<svg xmlns="http://www.w3.org/2000/svg" width="100" height="100" viewBox="0 0 100 100">
  <metadata><?xpacket begin="﻿" id="W5M0MpCehiHzreSzNTczkc9d"?>
<x:xmpmeta xmlns:x="adobe:ns:meta/" x:xmptk="Adobe XMP Core 5.6-c140 79.160451, 2017/05/06-01:08:21        ">
   <rdf:RDF xmlns:rdf="http://www.w3.org/1999/02/22-rdf-syntax-ns#">
      <rdf:Description rdf:about=""/>
   </rdf:RDF>
</x:xmpmeta>
                                                                                                    
                                                                                                    
                                                                                                    
                                                                                                    
                                                                                                    
                                                                                                    
                                                                                                    
                                                                                                    
                                                                                                    
                                                                                                    
                                                                                                    
                                                                                                    
                                                                                                    
                                                                                                    
                                                                                                    
                                                                                                    
                                                                                                    
                                                                                                    
                                                                                                    
                                                                                                    
                           
<?xpacket end="w"?></metadata>
<defs>
    <style>
      .cls-1 {
        fill: #fff;
        fill-rule: evenodd;
      }
    </style>
  </defs>
  <path id="add" class="cls-1" d="M50.5,3A47.5,47.5,0,1,0,98,50.5,47.363,47.363,0,0,0,50.5,3ZM76.409,52.659a2.04,2.04,0,0,1-2.159,2.159H55.9a1.02,1.02,0,0,0-1.08,1.08V74.25a2.04,2.04,0,0,1-2.159,2.159H48.341a2.04,2.04,0,0,1-2.159-2.159V55.9a1.02,1.02,0,0,0-1.08-1.08H26.75a2.04,2.04,0,0,1-2.159-2.159V48.341a2.04,2.04,0,0,1,2.159-2.159H45.1a1.02,1.02,0,0,0,1.08-1.08V26.75a2.04,2.04,0,0,1,2.159-2.159h4.318a2.04,2.04,0,0,1,2.159,2.159V45.1a1.02,1.02,0,0,0,1.08,1.08H74.25a2.04,2.04,0,0,1,2.159,2.159v4.318Z"/>
</svg>
