<svg xmlns="http://www.w3.org/2000/svg" width="62" height="62" viewBox="0 0 62 62">
  <metadata><?xpacket begin="﻿" id="W5M0MpCehiHzreSzNTczkc9d"?>
<x:xmpmeta xmlns:x="adobe:ns:meta/" x:xmptk="Adobe XMP Core 5.6-c140 79.160451, 2017/05/06-01:08:21        ">
   <rdf:RDF xmlns:rdf="http://www.w3.org/1999/02/22-rdf-syntax-ns#">
      <rdf:Description rdf:about=""/>
   </rdf:RDF>
</x:xmpmeta>
                                                                                                    
                                                                                                    
                                                                                                    
                                                                                                    
                                                                                                    
                                                                                                    
                                                                                                    
                                                                                                    
                                                                                                    
                                                                                                    
                                                                                                    
                                                                                                    
                                                                                                    
                                                                                                    
                                                                                                    
                                                                                                    
                                                                                                    
                                                                                                    
                                                                                                    
                                                                                                    
                           
<?xpacket end="w"?></metadata>
<defs>
    <style>
      .cls-1 {
        fill: #cb4d43;
      }

      .cls-2 {
        fill: #fff;
        fill-rule: evenodd;
      }
    </style>
  </defs>
  <circle id="Ellipse_1_copy_5" data-name="Ellipse 1 copy 5" class="cls-1" cx="31" cy="31" r="31"/>
  <path id="Forma_1" data-name="Forma 1" class="cls-2" d="M37,44a10.984,10.984,0,0,1-9.96-6.32,0.424,0.424,0,0,1,0-.361,11.008,11.008,0,0,1,19.92,0,0.424,0.424,0,0,1,0,.361A10.984,10.984,0,0,1,37,44Zm0-10.983A4.484,4.484,0,1,0,41.508,37.5,4.5,4.5,0,0,0,37,33.017Zm0,7.353A2.871,2.871,0,1,1,39.886,37.5,2.878,2.878,0,0,1,37,40.37ZM25,37.5c0,2.66,1.727,5.032,4.427,6.591H20.272a1.249,1.249,0,0,1-1.249-1.249V26.5h3.316l-0.85.792a0.952,0.952,0,0,0,0,1.413,1.127,1.127,0,0,0,1.515,0l2.679-2.5,0-.005q0.034-.032.065-0.067l0.017-.022c0.015-.019.031-0.037,0.045-0.057l0.013-.02c0.014-.021.028-0.043,0.041-0.065l0.007-.014c0.013-.024.026-0.049,0.038-0.075l0-.009c0.012-.027.022-0.054,0.032-0.082l0-.01c0.009-.028.017-0.056,0.023-0.084,0-.008,0-0.017,0-0.025,0-.024.009-0.047,0.011-0.072a0.907,0.907,0,0,0,0-.2c0-.024-0.007-0.048-0.011-0.072,0-.008,0-0.017,0-0.025-0.006-.028-0.014-0.056-0.023-0.084l0-.011c-0.009-.028-0.02-0.055-0.031-0.082l0-.01c-0.011-.025-0.024-0.05-0.037-0.074l-0.008-.015c-0.013-.022-0.027-0.043-0.041-0.064l-0.013-.02c-0.014-.019-0.029-0.037-0.043-0.055l-0.019-.024c-0.019-.021-0.038-0.041-0.059-0.061L25.683,24.8,23,22.3a1.127,1.127,0,0,0-1.515,0,0.952,0.952,0,0,0,0,1.413L22.339,24.5H19.023V17.863a1.249,1.249,0,0,1,1.249-1.249h9.575V27.022A1.249,1.249,0,0,0,31.1,28.271H41.5v1.354A16.332,16.332,0,0,0,37,29C30.373,29,25,32.806,25,37.5Zm7.345-11.727V17.345l8.428,8.427H32.345Z"/>
</svg>
