<svg xmlns="http://www.w3.org/2000/svg" width="20" height="20" viewBox="0 0 20 20">
  <metadata><?xpacket begin="﻿" id="W5M0MpCehiHzreSzNTczkc9d"?>
<x:xmpmeta xmlns:x="adobe:ns:meta/" x:xmptk="Adobe XMP Core 5.6-c142 79.160924, 2017/07/13-01:06:39        ">
   <rdf:RDF xmlns:rdf="http://www.w3.org/1999/02/22-rdf-syntax-ns#">
      <rdf:Description rdf:about=""/>
   </rdf:RDF>
</x:xmpmeta>
                                                                                                    
                                                                                                    
                                                                                                    
                                                                                                    
                                                                                                    
                                                                                                    
                                                                                                    
                                                                                                    
                                                                                                    
                                                                                                    
                                                                                                    
                                                                                                    
                                                                                                    
                                                                                                    
                                                                                                    
                                                                                                    
                                                                                                    
                                                                                                    
                                                                                                    
                                                                                                    
                           
<?xpacket end="w"?></metadata>
<defs>
    <style>
      .cls-1 {
        fill: #cb4d43;
      }

      .cls-2 {
        fill: #fff;
        fill-rule: evenodd;
      }
    </style>
  </defs>
  <circle class="cls-1" cx="10" cy="10" r="10"/>
  <path class="cls-2" d="M3.828,14A0.084,0.084,0,0,1,3.9,13.987H16.082a0.082,0.082,0,0,1,.073.013H3.828ZM13.1,5a0.07,0.07,0,0,1-.066.013H6.947A0.07,0.07,0,0,1,6.881,5H13.1ZM3.828,14H3.742A0.828,0.828,0,0,1,3,13.319V9.42a0.461,0.461,0,0,1,.128-0.24Q4.6,7.462,6.068,5.742q0.238-.279.476-0.558A0.458,0.458,0,0,1,6.852,5H6.881a0.155,0.155,0,0,0,.077.007h6.067A0.155,0.155,0,0,0,13.1,5h0.014a0.453,0.453,0,0,1,.328.188q1.7,1.993,3.408,3.986A0.567,0.567,0,0,1,17,9.564c0,1.212,0,2.425,0,3.637a0.839,0.839,0,0,1-.6.771c-0.062.019-.126,0.014-0.188,0.028H16.156a0.156,0.156,0,0,0-.077-0.007H3.9A0.154,0.154,0,0,0,3.828,14ZM7.215,5.817a0.131,0.131,0,0,0-.113.05Q5.547,7.688,3.987,9.506a0.438,0.438,0,0,0-.116.332c0,0.059.018,0.073,0.08,0.073,0.97,0,1.94,0,2.91,0a0.164,0.164,0,0,1,.125.047Q7.808,10.729,8.633,11.5a0.148,0.148,0,0,0,.111.044q1.248,0,2.5,0a0.147,0.147,0,0,0,.111-0.045q0.818-.768,1.638-1.535a0.188,0.188,0,0,1,.142-0.057q1.394,0,2.789,0A0.3,0.3,0,0,0,16.1,9.9a0.252,0.252,0,0,0,.012-0.167,0.168,0.168,0,0,0-.034-0.13q-1.6-1.866-3.193-3.735a0.13,0.13,0,0,0-.113-0.05q-1.387,0-2.775,0T7.215,5.817ZM9.983,9.091q-1.94,0-3.88,0A0.455,0.455,0,0,1,5.68,8.883a0.407,0.407,0,0,1,.359-0.609h7.845a0.437,0.437,0,0,1,.464.31,0.41,0.41,0,0,1-.385.5c-0.035,0-.071,0-0.107,0H9.983ZM9.991,6.639q1.508,0,3.017,0a0.443,0.443,0,0,1,.442.245,0.409,0.409,0,0,1-.38.572H6.957A0.425,0.425,0,0,1,6.5,7.032,0.419,0.419,0,0,1,6.9,6.641c0.074,0,.147,0,0.221,0H9.991Z"/>
</svg>
