<svg xmlns="http://www.w3.org/2000/svg" width="530" height="14" viewBox="0 0 530 14">
  <metadata><?xpacket begin="﻿" id="W5M0MpCehiHzreSzNTczkc9d"?>
<x:xmpmeta xmlns:x="adobe:ns:meta/" x:xmptk="Adobe XMP Core 5.6-c140 79.160451, 2017/05/06-01:08:21        ">
   <rdf:RDF xmlns:rdf="http://www.w3.org/1999/02/22-rdf-syntax-ns#">
      <rdf:Description rdf:about=""/>
   </rdf:RDF>
</x:xmpmeta>
<?xpacket end="w"?></metadata>
<defs>
    <style>
      .cls-1 {
        fill: #fff;
        fill-rule: evenodd;
      }
    </style>
  </defs>
  <path id="Rectangle_50_copy" data-name="Rectangle 50 copy" class="cls-1" d="M528,11V8H2v3H0V3H2V6H528V3h2v8h-2ZM480,0h1V4h-1V0ZM439,0h1V4h-1V0ZM399,0h1V4h-1V0ZM358,0h1V4h-1V0ZM317,0h1V4h-1V0ZM276,0h1V4h-1V0ZM235,0h1V4h-1V0ZM194,0h1V4h-1V0ZM154,0h1V4h-1V0ZM113,0h1V4h-1V0ZM73,0h1V4H73V0ZM32,0h1V4H32V0ZM54,14H53V10h1v4Zm41,0H94V10h1v4Zm40,0h-1V10h1v4Zm41,0h-1V10h1v4Zm40,0h-1V10h1v4Zm41,0h-1V10h1v4Zm41,0h-1V10h1v4Zm41,0h-1V10h1v4Zm41,0h-1V10h1v4Zm41,0h-1V10h1v4Zm40,0h-1V10h1v4Zm41,0h-1V10h1v4Z"/>
</svg>
