<svg xmlns="http://www.w3.org/2000/svg" width="2208" height="58" viewBox="0 0 2208 58">
  <metadata><?xpacket begin="﻿" id="W5M0MpCehiHzreSzNTczkc9d"?>
<x:xmpmeta xmlns:x="adobe:ns:meta/" x:xmptk="Adobe XMP Core 5.6-c138 79.159824, 2016/09/14-01:09:01        ">
   <rdf:RDF xmlns:rdf="http://www.w3.org/1999/02/22-rdf-syntax-ns#">
      <rdf:Description rdf:about=""/>
   </rdf:RDF>
</x:xmpmeta>
                                                                                                    
                                                                                                    
                                                                                                    
                                                                                                    
                                                                                                    
                                                                                                    
                                                                                                    
                                                                                                    
                                                                                                    
                                                                                                    
                                                                                                    
                                                                                                    
                                                                                                    
                                                                                                    
                                                                                                    
                                                                                                    
                                                                                                    
                                                                                                    
                                                                                                    
                                                                                                    
                           
<?xpacket end="w"?></metadata>
<defs>
    <style>
      .cls-1 {
        fill: #263a51;
        fill-rule: evenodd;
      }
    </style>
  </defs>
  <path id="Rectangle_3_copy" data-name="Rectangle 3 copy" class="cls-1" d="M2208,33h0v9h-9V33H8v9H-2V14H8V24H2199V14h9V24h0v9ZM2030,0h5V17h-5V0ZM1863,0h5V17h-5V0ZM1694,17h-2V0h7V17h-5Zm-167,0h-1V0h6V17h-5Zm-171,0h-1V0h6V17h-5ZM1190,0h5V17h-5V0ZM1019,0h5V17h-5V0ZM848,0h5V17h-5V0ZM681,0h5V17h-5V0ZM510,0h5V17h-5V0ZM344,0h5V17h-5V0ZM173,0h5V17h-5V0ZM91,58H86V41h5V58Zm171,0h-5V41h5V58Zm166,0h-5V41h5V58Zm171,0h-5V41h5V58Zm167,0h-5V41h5V58Zm171,0h-5V41h5V58Zm171,0h-5V41h5V58Zm165-17h1V58h-6V41h5Zm171,0h1V58h-6V41h5Zm166,0h2V58h-7V41h5Zm171,17h-5V41h5V58Zm167,0h-5V41h5V58Z"/>
</svg>
