<svg xmlns="http://www.w3.org/2000/svg" width="100" height="100" viewBox="0 0 100 100">
  <metadata><?xpacket begin="﻿" id="W5M0MpCehiHzreSzNTczkc9d"?>
<x:xmpmeta xmlns:x="adobe:ns:meta/" x:xmptk="Adobe XMP Core 5.6-c140 79.160451, 2017/05/06-01:08:21        ">
   <rdf:RDF xmlns:rdf="http://www.w3.org/1999/02/22-rdf-syntax-ns#">
      <rdf:Description rdf:about=""/>
   </rdf:RDF>
</x:xmpmeta>
                                                                                                    
                                                                                                    
                                                                                                    
                                                                                                    
                                                                                                    
                                                                                                    
                                                                                                    
                                                                                                    
                                                                                                    
                                                                                                    
                                                                                                    
                                                                                                    
                                                                                                    
                                                                                                    
                                                                                                    
                                                                                                    
                                                                                                    
                                                                                                    
                                                                                                    
                                                                                                    
                           
<?xpacket end="w"?></metadata>
<defs>
    <style>
      .cls-1 {
        fill: #fff;
        fill-rule: evenodd;
      }
    </style>
  </defs>
  <path id="cancel" class="cls-1" d="M16.912,16.912a47.5,47.5,0,1,0,67.175,0A47.363,47.363,0,0,0,16.912,16.912ZM70.347,33.706a2.04,2.04,0,0,1,0,3.053L57.37,49.737a1.02,1.02,0,0,0,0,1.527L70.347,64.24a2.04,2.04,0,0,1,0,3.053l-3.053,3.053a2.04,2.04,0,0,1-3.053,0L51.263,57.37a1.02,1.02,0,0,0-1.527,0L36.76,70.347a2.04,2.04,0,0,1-3.053,0l-3.053-3.053a2.04,2.04,0,0,1,0-3.053L43.63,51.263a1.02,1.02,0,0,0,0-1.527L30.653,36.76a2.04,2.04,0,0,1,0-3.053l3.053-3.053a2.04,2.04,0,0,1,3.053,0L49.737,43.63a1.02,1.02,0,0,0,1.527,0L64.24,30.653a2.04,2.04,0,0,1,3.053,0Z"/>
</svg>
