<svg xmlns="http://www.w3.org/2000/svg" width="36" height="36" viewBox="0 0 36 36">
  <metadata><?xpacket begin="﻿" id="W5M0MpCehiHzreSzNTczkc9d"?>
<x:xmpmeta xmlns:x="adobe:ns:meta/" x:xmptk="Adobe XMP Core 5.6-c140 79.160451, 2017/05/06-01:08:21        ">
   <rdf:RDF xmlns:rdf="http://www.w3.org/1999/02/22-rdf-syntax-ns#">
      <rdf:Description rdf:about=""/>
   </rdf:RDF>
</x:xmpmeta>
                                                                                                    
                                                                                                    
                                                                                                    
                                                                                                    
                                                                                                    
                                                                                                    
                                                                                                    
                                                                                                    
                                                                                                    
                                                                                                    
                                                                                                    
                                                                                                    
                                                                                                    
                                                                                                    
                                                                                                    
                                                                                                    
                                                                                                    
                                                                                                    
                                                                                                    
                                                                                                    
                           
<?xpacket end="w"?></metadata>
<defs>
    <style>
      .cls-1 {
        fill: #cb4d43;
      }

      .cls-2 {
        fill: #fff;
        fill-rule: evenodd;
      }
    </style>
  </defs>
  <circle class="cls-1" cx="18" cy="18" r="18"/>
  <path class="cls-2" d="M27.26,13.187a1.025,1.025,0,0,0-1.03-1.03H21.768a2.729,2.729,0,0,0-1.373.429V9.068a1.025,1.025,0,0,0-1.03-1.03H14.9a2.856,2.856,0,0,0-1.759.729L8.767,13.144A2.855,2.855,0,0,0,8.038,14.9v7.208a1.025,1.025,0,0,0,1.03,1.03H14.9v3.089a1.025,1.025,0,0,0,1.03,1.03h10.3a1.026,1.026,0,0,0,1.03-1.03V13.187ZM16.276,19.022h4.463a1.025,1.025,0,0,0,1.03-1.03V13.53h4.119V25.887H16.276V19.022Zm4.119-4.58v3.207H17.188Zm-5.278,3.637a2.477,2.477,0,0,0-.215.944v2.746H9.411V14.9h4.462a1.025,1.025,0,0,0,1.03-1.03V9.411h4.119v4.462l-3.39,3.39A2.5,2.5,0,0,0,15.117,18.078ZM13.53,10.323V13.53H10.323Z"/>
</svg>
