<svg xmlns="http://www.w3.org/2000/svg" width="20" height="26" viewBox="0 0 20 26">
  <metadata><?xpacket begin="﻿" id="W5M0MpCehiHzreSzNTczkc9d"?>
<x:xmpmeta xmlns:x="adobe:ns:meta/" x:xmptk="Adobe XMP Core 5.6-c140 79.160451, 2017/05/06-01:08:21        ">
   <rdf:RDF xmlns:rdf="http://www.w3.org/1999/02/22-rdf-syntax-ns#">
      <rdf:Description rdf:about=""/>
   </rdf:RDF>
</x:xmpmeta>
                                                                                                    
                                                                                                    
                                                                                                    
                                                                                                    
                                                                                                    
                                                                                                    
                                                                                                    
                                                                                                    
                                                                                                    
                                                                                                    
                                                                                                    
                                                                                                    
                                                                                                    
                                                                                                    
                                                                                                    
                                                                                                    
                                                                                                    
                                                                                                    
                                                                                                    
                                                                                                    
                           
<?xpacket end="w"?></metadata>
<defs>
    <style>
      .cls-1 {
        fill: #fff;
        fill-rule: evenodd;
      }
    </style>
  </defs>
  <path id="Forma_1" data-name="Forma 1" class="cls-1" d="M2.347,24.746A1.332,1.332,0,0,0,3.7,26H16.3a1.332,1.332,0,0,0,1.349-1.254l0.9-18.415H1.447Zm10.5-13.841a0.54,0.54,0,0,1,.548-0.531h0.877a0.54,0.54,0,0,1,.549.531V21.426a0.54,0.54,0,0,1-.549.531H13.4a0.54,0.54,0,0,1-.548-0.531V10.905Zm-3.839,0a0.54,0.54,0,0,1,.548-0.531h0.877a0.54,0.54,0,0,1,.548.531V21.426a0.54,0.54,0,0,1-.548.531H9.561a0.54,0.54,0,0,1-.548-0.531V10.905h0Zm-3.839,0a0.54,0.54,0,0,1,.548-0.531H6.6a0.54,0.54,0,0,1,.548.531V21.426a0.54,0.54,0,0,1-.548.531H5.722a0.54,0.54,0,0,1-.548-0.531V10.905ZM19.153,1.339H13.337V0.274A0.279,0.279,0,0,0,13.054,0H6.946a0.279,0.279,0,0,0-.283.274V1.339H0.847A0.835,0.835,0,0,0,0,2.16V4.74H20V2.16A0.835,0.835,0,0,0,19.153,1.339Z"/>
</svg>
