<?xml version="1.0" encoding="utf-8"?>
<!-- Generator: Adobe Illustrator 22.1.0, SVG Export Plug-In . SVG Version: 6.00 Build 0)  -->
<svg version="1.1" id="Layer_1" xmlns="http://www.w3.org/2000/svg" xmlns:xlink="http://www.w3.org/1999/xlink" x="0px" y="0px"
	 viewBox="0 0 20 20" style="enable-background:new 0 0 20 20;" xml:space="preserve">
<style type="text/css">
	.st0{fill:#FFFFFF;}
</style>
<g>
	<g>
		<path class="st0" d="M15.5,18.5h-13c-0.4,0-0.7,0.3-0.7,0.7s0.3,0.7,0.7,0.7h13c0.4,0,0.7-0.3,0.7-0.7S15.8,18.5,15.5,18.5z"/>
		<path class="st0" d="M1.8,12.3v3.3c0,0.1,0,0.4,0.1,0.6s0.3,0.1,0.4,0.1h3.3c0.1,0,0.3,0,0.4-0.1L17.7,4.7c0.3-0.3,0.3-0.7,0-1
			l-3.3-3.3c-0.3-0.3-0.7-0.3-1,0L11,2.6l-9.2,9.2C2,11.9,1.8,12,1.8,12.3L1.8,12.3z M13.9,1.8l2.3,2.3l-2.3,2.3l-1-3.6
			C12.9,2.9,13.9,1.8,13.9,1.8z M5.1,14.5l6.5-10.2l1,3.6l-7.1,7.1H3.3l0,0L5.1,14.5z"/>
	</g>
</g>
</svg>
