<?xml version="1.0" encoding="utf-8"?>
<!-- Generator: Adobe Illustrator 22.1.0, SVG Export Plug-In . SVG Version: 6.00 Build 0)  -->
<svg version="1.1" id="Layer_1" xmlns="http://www.w3.org/2000/svg" xmlns:xlink="http://www.w3.org/1999/xlink" x="0px" y="0px"
	 viewBox="0 0 20 20" style="enable-background:new 0 0 20 20;" xml:space="preserve">
<style type="text/css">
	.st0{fill:#CB4D43;}
	.st1{fill:#FFFFFF;}
</style>
<circle class="st0" cx="10" cy="10" r="10"/>
<g>
	<g>
		<path class="st1" d="M13.9,15.9h-9c-0.3,0-0.5,0.2-0.5,0.5s0.2,0.5,0.5,0.5h9c0.3,0,0.5-0.2,0.5-0.5S14.1,15.9,13.9,15.9z"/>
		<path class="st1" d="M4.4,11.6l0,2.3c0,0.1,0,0.3,0.1,0.4c0.1,0.1,0.2,0.1,0.3,0.1l2.3,0c0.1,0,0.2,0,0.3-0.1l8-8
			c0.2-0.2,0.2-0.5,0-0.7l-2.3-2.3c-0.2-0.2-0.5-0.2-0.7,0l-1.6,1.6l-6.4,6.4C4.5,11.3,4.4,11.4,4.4,11.6L4.4,11.6z M12.8,4.3
			l1.6,1.6l-1.6,1.6l-0.7-2.5C12.1,5.1,12.8,4.3,12.8,4.3z M6.7,13.1L11.2,6l0.7,2.5L7,13.4l-1.6,0l0,0L6.7,13.1z"/>
	</g>
</g>
</svg>
