<svg xmlns="http://www.w3.org/2000/svg" width="66" height="66" viewBox="0 0 66 66">
  <metadata><?xpacket begin="﻿" id="W5M0MpCehiHzreSzNTczkc9d"?>
<x:xmpmeta xmlns:x="adobe:ns:meta/" x:xmptk="Adobe XMP Core 5.6-c138 79.159824, 2016/09/14-01:09:01        ">
   <rdf:RDF xmlns:rdf="http://www.w3.org/1999/02/22-rdf-syntax-ns#">
      <rdf:Description rdf:about=""/>
   </rdf:RDF>
</x:xmpmeta>
                                                                                                    
                                                                                                    
                                                                                                    
                                                                                                    
                                                                                                    
                                                                                                    
                                                                                                    
                                                                                                    
                                                                                                    
                                                                                                    
                                                                                                    
                                                                                                    
                                                                                                    
                                                                                                    
                                                                                                    
                                                                                                    
                                                                                                    
                                                                                                    
                                                                                                    
                                                                                                    
                           
<?xpacket end="w"?></metadata>
<defs>
    <style>
      .cls-1 {
        fill: #fff;
        fill-rule: evenodd;
      }
    </style>
  </defs>
  <path class="cls-1" d="M63.3,37.856c-1.02-.613-2.066-1.229-3.113-1.833a27.1,27.1,0,0,0,0-6.312c1.051-.606,2.1-1.222,3.112-1.832a4.089,4.089,0,0,0,1.657-5.04h0l-2.23-5.384a4.089,4.089,0,0,0-4.735-2.393c-1.15.286-2.325,0.591-3.5,0.9A27.107,27.107,0,0,0,50.032,11.5c0.314-1.171.619-2.347,0.905-3.5a4.089,4.089,0,0,0-2.393-4.735l-5.384-2.23A4.089,4.089,0,0,0,38.121,2.7c-0.612,1.018-1.228,2.065-1.833,3.113a27.116,27.116,0,0,0-6.312,0c-0.607-1.052-1.223-2.1-1.832-3.112A4.089,4.089,0,0,0,23.1,1.043L17.72,3.273a4.089,4.089,0,0,0-2.393,4.735c0.287,1.153.591,2.328,0.9,3.5a27.1,27.1,0,0,0-4.462,4.464c-1.174-.315-2.35-0.619-3.5-0.905a4.089,4.089,0,0,0-4.735,2.393l-2.23,5.384a4.089,4.089,0,0,0,1.656,5.04c1.018,0.612,2.065,1.228,3.113,1.833a27.123,27.123,0,0,0,0,6.312c-1.049.605-2.1,1.221-3.112,1.832A4.089,4.089,0,0,0,1.308,42.9l2.23,5.384a4.088,4.088,0,0,0,4.735,2.393c1.149-.286,2.324-0.59,3.5-0.9a27.121,27.121,0,0,0,4.464,4.462c-0.315,1.172-.619,2.348-0.905,3.5a4.089,4.089,0,0,0,2.393,4.735l5.384,2.23A4.023,4.023,0,0,0,24.646,65a4.089,4.089,0,0,0,3.5-1.962c0.607-1.01,1.223-2.057,1.833-3.113a27.158,27.158,0,0,0,6.312,0c0.6,1.044,1.218,2.09,1.832,3.112a4.089,4.089,0,0,0,5.04,1.656l5.384-2.23a4.089,4.089,0,0,0,2.393-4.735c-0.285-1.143-.589-2.318-0.9-3.5A27.117,27.117,0,0,0,54.5,49.767c1.17,0.314,2.346.618,3.5,0.905a4.089,4.089,0,0,0,4.735-2.393l2.23-5.384A4.089,4.089,0,0,0,63.3,37.856Zm-4.5,8.544c-1.106-.277-2.233-0.57-3.354-0.872a4.056,4.056,0,0,0-4.266,1.422,22.757,22.757,0,0,1-3.972,3.973,4.055,4.055,0,0,0-1.42,4.264c0.3,1.128.6,2.255,0.872,3.352l-4.949,2.05c-0.589-.982-1.178-1.986-1.754-2.987a4.057,4.057,0,0,0-4.019-2.012,22.788,22.788,0,0,1-5.618,0A4.054,4.054,0,0,0,26.3,57.6c-0.583,1.012-1.173,2.017-1.755,2.988L19.6,58.54c0.277-1.1.57-2.231,0.872-3.353A4.056,4.056,0,0,0,19.05,50.92a22.761,22.761,0,0,1-3.973-3.972,4.054,4.054,0,0,0-4.264-1.42c-1.122.3-2.249,0.6-3.352,0.872L5.41,41.452C6.387,40.865,7.391,40.276,8.4,39.7a4.055,4.055,0,0,0,2.012-4.019,22.79,22.79,0,0,1,0-5.618A4.056,4.056,0,0,0,8.4,26.038c-1-.579-2.009-1.168-2.988-1.755l2.05-4.949c1.1,0.276,2.229.569,3.354,0.872a4.057,4.057,0,0,0,4.266-1.422,22.759,22.759,0,0,1,3.972-3.973,4.055,4.055,0,0,0,1.42-4.265C20.17,9.427,19.877,8.3,19.6,7.193l4.949-2.05C25.132,6.119,25.722,7.122,26.3,8.13a4.054,4.054,0,0,0,4.019,2.011,22.751,22.751,0,0,1,5.619,0,4.056,4.056,0,0,0,4.022-2.011c0.578-1,1.168-2.009,1.755-2.988l4.949,2.05c-0.277,1.105-.57,2.232-0.872,3.354a4.056,4.056,0,0,0,1.422,4.266,22.779,22.779,0,0,1,3.973,3.972,4.055,4.055,0,0,0,4.265,1.42c1.121-.3,2.248-0.595,3.352-0.872l2.05,4.949c-0.976.585-1.98,1.175-2.987,1.754a4.055,4.055,0,0,0-2.012,4.019,22.77,22.77,0,0,1,0,5.619A4.057,4.057,0,0,0,57.867,39.7c1,0.578,2.007,1.167,2.988,1.755Zm-12-19.2h0A14.814,14.814,0,1,0,38.8,46.538,14.814,14.814,0,0,0,46.8,27.2Zm-9.67,15.322a10.455,10.455,0,1,1,5.659-13.66A10.388,10.388,0,0,1,37.134,42.527Z"/>
</svg>
