<svg xmlns="http://www.w3.org/2000/svg" width="54" height="54" viewBox="0 0 54 54">
  <metadata><?xpacket begin="﻿" id="W5M0MpCehiHzreSzNTczkc9d"?>
<x:xmpmeta xmlns:x="adobe:ns:meta/" x:xmptk="Adobe XMP Core 5.6-c140 79.160451, 2017/05/06-01:08:21        ">
   <rdf:RDF xmlns:rdf="http://www.w3.org/1999/02/22-rdf-syntax-ns#">
      <rdf:Description rdf:about=""/>
   </rdf:RDF>
</x:xmpmeta>
                          
<?xpacket end="w"?></metadata>
<defs>
    <style>
      .cls-1 {
        fill: #fff;
        fill-rule: evenodd;
      }
    </style>
  </defs>
  <path class="cls-1" d="M26.962,0.487A26.757,26.757,0,1,0,53.717,27.243,26.786,26.786,0,0,0,26.962.487Zm0,48.216a21.46,21.46,0,1,1,21.459-21.46A21.484,21.484,0,0,1,26.962,48.7Zm-3.8-24.725c0.077,0.007.153,0.01,0.228,0.01a2.647,2.647,0,0,0,.321-5.274,9.132,9.132,0,0,1,9.3,1.668,2.649,2.649,0,1,0,3.5-3.975,14.443,14.443,0,0,0-16.09-2.02,2.648,2.648,0,0,0-5.268.092l-0.522,6.112a2.648,2.648,0,0,0,2.413,2.864Zm13.719,6.9L30.766,30.4a2.647,2.647,0,0,0-.5,5.27,9.142,9.142,0,0,1-9.328-1.6,2.649,2.649,0,0,0-3.473,4A14.316,14.316,0,0,0,26.9,41.6q0.516,0,1.035-.037a14.385,14.385,0,0,0,5.636-1.584,2.649,2.649,0,0,0,2.419,2.3c0.07,0.006.14,0.008,0.209,0.008a2.649,2.649,0,0,0,2.638-2.442l0.478-6.116A2.649,2.649,0,0,0,36.882,30.875Z"/>
</svg>
