<svg xmlns="http://www.w3.org/2000/svg" width="62" height="62" viewBox="0 0 62 62">
  <metadata><?xpacket begin="﻿" id="W5M0MpCehiHzreSzNTczkc9d"?>
<x:xmpmeta xmlns:x="adobe:ns:meta/" x:xmptk="Adobe XMP Core 5.6-c140 79.160451, 2017/05/06-01:08:21        ">
   <rdf:RDF xmlns:rdf="http://www.w3.org/1999/02/22-rdf-syntax-ns#">
      <rdf:Description rdf:about=""/>
   </rdf:RDF>
</x:xmpmeta>
                                                                                                    
                                                                                                    
                                                                                                    
                                                                                                    
                                                                                                    
                                                                                                    
                                                                                                    
                                                                                                    
                                                                                                    
                                                                                                    
                                                                                                    
                                                                                                    
                                                                                                    
                                                                                                    
                                                                                                    
                                                                                                    
                                                                                                    
                                                                                                    
                                                                                                    
                                                                                                    
                           
<?xpacket end="w"?></metadata>
<defs>
    <style>
      .cls-1 {
        fill: #cb4d43;
      }

      .cls-2 {
        fill: #fff;
        fill-rule: evenodd;
      }
    </style>
  </defs>
  <circle class="cls-1" cx="31" cy="31" r="31"/>
  <path class="cls-2" d="M45.251,37.1H41.5V34.6h3.747A1.249,1.249,0,1,1,45.251,37.1Zm-11.14-2.5,0.99-.99a1.249,1.249,0,1,0-1.766-1.766l-3.122,3.122L30.2,34.98c-0.024.024-.047,0.05-0.069,0.076-0.008.01-.015,0.02-0.022,0.03s-0.035.045-.051,0.068l-0.016.026c-0.017.026-.033,0.052-0.047,0.08l-0.009.019c-0.015.03-.03,0.06-0.044,0.092l0,0.012c-0.013.034-.026,0.068-0.037,0.1,0,0,0,.009,0,0.014-0.01.034-.019,0.069-0.026,0.1,0,0.01,0,.021,0,0.031-0.005.03-.01,0.059-0.013,0.09a1.237,1.237,0,0,0,0,.249c0,0.03.008,0.06,0.013,0.09,0,0.01,0,.021,0,0.031,0.007,0.036.016,0.071,0.026,0.106,0,0,0,.008,0,0.012,0.011,0.035.023,0.069,0.037,0.1l0,0.012c0.013,0.032.028,0.063,0.044,0.093L30,36.438c0.015,0.028.031,0.054,0.048,0.081l0.015,0.024c0.016,0.025.035,0.048,0.053,0.071l0.02,0.027c0.024,0.029.05,0.057,0.076,0.084l0.006,0.006,3.122,3.123A1.249,1.249,0,0,0,35.1,38.088l-0.99-.99H41.5v6.745a1.249,1.249,0,0,1-1.249,1.249H20.272a1.249,1.249,0,0,1-1.249-1.249V18.863a1.249,1.249,0,0,1,1.249-1.249h9.575V28.022A1.249,1.249,0,0,0,31.1,29.271H41.5V34.6H34.111Zm-1.766-7.827V18.345l8.428,8.427H32.345Z"/>
</svg>
