<svg xmlns="http://www.w3.org/2000/svg" width="62" height="62" viewBox="0 0 62 62">
  <metadata><?xpacket begin="﻿" id="W5M0MpCehiHzreSzNTczkc9d"?>
<x:xmpmeta xmlns:x="adobe:ns:meta/" x:xmptk="Adobe XMP Core 5.6-c140 79.160451, 2017/05/06-01:08:21        ">
   <rdf:RDF xmlns:rdf="http://www.w3.org/1999/02/22-rdf-syntax-ns#">
      <rdf:Description rdf:about=""/>
   </rdf:RDF>
</x:xmpmeta>
                                                                                                    
                                                                                                    
                                                                                                    
                                                                                                    
                                                                                                    
                                                                                                    
                                                                                                    
                                                                                                    
                                                                                                    
                                                                                                    
                                                                                                    
                                                                                                    
                                                                                                    
                                                                                                    
                                                                                                    
                                                                                                    
                                                                                                    
                                                                                                    
                                                                                                    
                                                                                                    
                           
<?xpacket end="w"?></metadata>
<defs>
    <style>
      .cls-1 {
        fill: #cb4d43;
      }

      .cls-2 {
        fill: #fff;
        fill-rule: evenodd;
      }
    </style>
  </defs>
  <circle id="Ellipse_1_copy_4" data-name="Ellipse 1 copy 4" class="cls-1" cx="31" cy="31" r="31"/>
  <path id="Forma_1" data-name="Forma 1" class="cls-2" d="M38.649,27.636H37.913c0,0.03-.049.06-0.049,0.091V42.636a1.372,1.372,0,0,1-2.744,0V27.727c0-.031.056-0.061,0.058-0.091H34.351a5.318,5.318,0,1,1,0-10.636h4.3A5.318,5.318,0,1,1,38.649,27.636Zm0-7.909h-4.3a2.591,2.591,0,1,0,0,5.182h4.3A2.591,2.591,0,1,0,38.649,19.727ZM27,22.5a6.964,6.964,0,0,0,2.847,5.463v0.058A1.249,1.249,0,0,0,31.1,29.271h1.052A10.173,10.173,0,0,0,34,29.808V45.091H20.272a1.249,1.249,0,0,1-1.249-1.249V36.79h7.584l-1.02,1.019a1.285,1.285,0,0,0,1.819,1.817l3.215-3.212,0.006-.007c0.027-.028.053-0.056,0.078-0.086l0.021-.028c0.019-.024.037-0.048,0.054-0.073l0.015-.025c0.017-.027.034-0.054,0.05-0.083l0.009-.018c0.016-.031.032-0.063,0.045-0.1l0-.012c0.014-.035.027-0.07,0.038-0.106l0-.013c0.011-.036.02-0.072,0.027-0.109,0-.011,0-0.022,0-0.032,0.005-.031.011-0.061,0.014-0.092a1.268,1.268,0,0,0,0-.257c0-.031-0.008-0.062-0.014-0.093,0-.011,0-0.022,0-0.032-0.007-.036-0.017-0.072-0.027-0.107,0,0,0-.01,0-0.014-0.011-.036-0.024-0.071-0.038-0.105l0-.013c-0.013-.032-0.029-0.064-0.045-0.095L30.844,34.9c-0.015-.028-0.032-0.055-0.049-0.082l-0.016-.026c-0.016-.024-0.034-0.047-0.052-0.07S30.712,34.7,30.7,34.689c-0.022-.027-0.046-0.053-0.071-0.078L30.62,34.6l-3.215-3.212A1.285,1.285,0,1,0,25.587,33.2l1.02,1.018H19.023V18.863a1.249,1.249,0,0,1,1.249-1.249h8.91A6.79,6.79,0,0,0,27,22.5Zm12,7.064q0.437-.129.852-0.293H41.5V34H39V29.564ZM42.674,35a1.323,1.323,0,0,1,1.319,1.364V38h-1.5a0.682,0.682,0,1,0,0,1.364h1.5v1.331A1.324,1.324,0,0,1,42.6,41.989H38.986L39,35h3.674ZM41.5,43.842a1.249,1.249,0,0,1-1.249,1.249H39V43h2.5v0.842Z"/>
</svg>
