<svg xmlns="http://www.w3.org/2000/svg" width="195" height="283" viewBox="0 0 195 283">
  <metadata><?xpacket begin="﻿" id="W5M0MpCehiHzreSzNTczkc9d"?>
<x:xmpmeta xmlns:x="adobe:ns:meta/" x:xmptk="Adobe XMP Core 5.6-c140 79.160451, 2017/05/06-01:08:21        ">
   <rdf:RDF xmlns:rdf="http://www.w3.org/1999/02/22-rdf-syntax-ns#">
      <rdf:Description rdf:about=""/>
   </rdf:RDF>
</x:xmpmeta>
                                                                                                    
                                                                                                    
                                                                                                    
                                                                                                    
                                                                                                    
                                                                                                    
                                                                                                    
                                                                                                    
                                                                                                    
                                                                                                    
                                                                                                    
                                                                                                    
                                                                                                    
                                                                                                    
                                                                                                    
                                                                                                    
                                                                                                    
                                                                                                    
                                                                                                    
                                                                                                    
                           
<?xpacket end="w"?></metadata>
<defs>
    <style>
      .cls-1 {
        fill: #fafafa;
        fill-rule: evenodd;
      }
    </style>
  </defs>
  <path id="Forma_1_copy" data-name="Forma 1 copy" class="cls-1" d="M110.232,30.259a7.152,7.152,0,0,1-7.134,12.4L89.742,34.917,81.183,49.792c-3.94,6.846-2.143,15.286,4.6,19.19l30.579,17.713,38.518-66.936L124.3,2.045c-6.739-3.9-14.922-1.244-18.862,5.6l-8.56,14.875ZM90.519,159.875c-0.161.279-.769,0.29-0.91,0.575l-6.549-3.793c-26.245-15.2-60.076-5.885-75.416,20.772S1.177,238.14,27.423,253.343l38.24,22.15c26.243,15.2,60.076,5.884,75.416-20.772s6.466-60.712-19.779-75.914l-7.366-4.266c0.177-.265.833-0.248,0.994-0.527L192.916,38.488A14.105,14.105,0,1,0,168.507,24.35Zm26.151,80.707A26.925,26.925,0,0,1,79.929,250.7l-38.24-22.151a27.175,27.175,0,0,1,27.106-47.1l38.24,22.15A27.112,27.112,0,0,1,116.67,240.582Z"/>
</svg>
