<svg xmlns="http://www.w3.org/2000/svg" width="33" height="32" viewBox="0 0 33 32">
  <defs>
    <style>
      .cls-1 {
        fill: #cb4d43;
        fill-rule: evenodd;
      }
    </style>
  </defs>
  <path class="cls-1" d="M17.656,2A14.476,14.476,0,0,0,9.242,4.661a0.639,0.639,0,0,0-.176.866l2.309,3.657a0.666,0.666,0,0,0,.437.3,0.679,0.679,0,0,0,.52-0.111,8.464,8.464,0,0,1,4.919-1.556A8.3,8.3,0,0,1,25.639,16a8.3,8.3,0,0,1-8.387,8.186,8.463,8.463,0,0,1-4.919-1.556,0.678,0.678,0,0,0-.52-0.111,0.665,0.665,0,0,0-.437.3L9.067,26.472a0.639,0.639,0,0,0,.176.866A14.475,14.475,0,0,0,17.656,30,14.191,14.191,0,0,0,32,16,14.191,14.191,0,0,0,17.656,2ZM11.131,21.251a0.635,0.635,0,0,0-.033-0.666L9.536,18.3h9.451a2.3,2.3,0,1,0,0-4.595H9.536L11.1,11.416a0.635,0.635,0,0,0,.033-0.666,0.667,0.667,0,0,0-.586-0.343h-4.5a0.67,0.67,0,0,0-.553.289L2.111,15.64a0.636,0.636,0,0,0,0,.72L5.488,21.3a0.67,0.67,0,0,0,.554.289h4.5A0.667,0.667,0,0,0,11.131,21.251Z"/>
</svg>
