<svg xmlns="http://www.w3.org/2000/svg" width="873" height="478" viewBox="0 0 873 478">
  <metadata><?xpacket begin="﻿" id="W5M0MpCehiHzreSzNTczkc9d"?>
<x:xmpmeta xmlns:x="adobe:ns:meta/" x:xmptk="Adobe XMP Core 5.6-c138 79.159824, 2016/09/14-01:09:01        ">
   <rdf:RDF xmlns:rdf="http://www.w3.org/1999/02/22-rdf-syntax-ns#">
      <rdf:Description rdf:about=""/>
   </rdf:RDF>
</x:xmpmeta>
                          
<?xpacket end="w"?></metadata>
<defs>
    <style>
      .cls-1 {
        fill: #fff;
        fill-rule: evenodd;
        opacity: 0.02;
      }
    </style>
  </defs>
  <path id="map" class="cls-1" d="M753.955,346.72c-0.339,0-.718.821-1.122,1.417a8.843,8.843,0,0,0-1.367,4.387c0,1.712.752,2.678,0.752,4.959s-1.595,4.564-2.589,5.879a1.217,1.217,0,0,1-.953.607,5.378,5.378,0,0,1-1.686-.828c-0.844-.348-1.031-1.622-2.819-2.5s-5.085-1.669-6.594-3.027-0.473-1.407,0-2.808a7.178,7.178,0,0,1,2.26-3.471c1.131-.916.8-1.271-0.609-2.06s-3.389-.832-5.793-0.832c-0.495,0-.948-0.007-1.355-0.007-1.564,0-2.429.111-2.322,1.191s1,1.619.413,1.619a5.452,5.452,0,0,1-.878-0.128,13.873,13.873,0,0,0-2.55-.316,2.756,2.756,0,0,0-2.114.711c-0.892.965-1.085,1.537-1.6,3.6s0.143,2.195-.7,2.195-4.191-1.623-5.32-2.105a2.856,2.856,0,0,0-1.109-.287,2.988,2.988,0,0,0-1.953,1.077,71.955,71.955,0,0,1-7.582,6.185c-1.694.964-1.6,0.747-3.322,6.144l-0.11.124c-1.939,1.958-3.695,1.41-7.017,2.441-3.385,1.054-9.252,4.477-9.674,5.991-0.337,1.206-.137,1.578-0.256,1.578a0.543,0.543,0,0,1-.166-0.065,5.133,5.133,0,0,1-1.137-1.118,7.182,7.182,0,0,0-.7,3.486c0.21,1.647.987,2.632,0.918,4.741s-0.851,3.356-.776,4.8,2.465,4.211,3.105,5.925,1.062,1.25,1.409,4.344,1.982,4.8.355,6.447-2.826,1.318-.846,3.027c1.425,1.238,2.669,2.163,4.444,2.163a7.022,7.022,0,0,0,2.331-.448c3.18-1.122,2.334-2.107,4.805-2.634s2.969-1.051,5.086-1.184,3.6,0.064,4.384-1.449,0.205-1.448,2.323-2.5,1.9-1.319,3.322-1.579a2.907,2.907,0,0,1,.531-0.047,6.217,6.217,0,0,1,.77.062,6.216,6.216,0,0,0,.768.062,3.311,3.311,0,0,0,2.165-.869c1.9-1.513.5-1.644,4.731-1.644a20.061,20.061,0,0,1,7.556,1.119c1.559,0.525,4.1,1.907,4.733,2.9s1.484,2.171,1.764,2.171h0.1c0.273,0,.65-0.052,1.521-0.923a43.032,43.032,0,0,1,3.813-2.962,7.032,7.032,0,0,1-.776,2.9,3.725,3.725,0,0,0-.639,2.306,0.05,0.05,0,0,0,.052.061,17.662,17.662,0,0,0,1.792-1.379l0.633,3.16a3.782,3.782,0,0,1,1.484.985,10.9,10.9,0,0,1,2.118,3.159c0.633,1.647,3.322,3.291,5.016,3.555a12.464,12.464,0,0,0,1.922.147,16.167,16.167,0,0,0,2.525-.215c1.067-.164,1.287-1.252,2.119-1.252a1.387,1.387,0,0,1,.563.137c1.216,0.534.172,1.614,2.333,1.614,0.224,0,.48-0.012.778-0.037a8.514,8.514,0,0,0,5.3-2.17,1.114,1.114,0,0,1,.631-0.223,1.391,1.391,0,0,1,.524.131,1.367,1.367,0,0,0,.5.13,1.963,1.963,0,0,0,1.377-1.092c1.62-2.238,1.9-1.713,2.185-4.408s0.211-3.226,1.764-5.792,1.913-1.319,2.973-5.068,2.4-7.308,2.262-10.4,0.061-1.054-.641-4.543-0.21-3.092-2.47-4.539-2.826-1.054-3.392-3.1,0.144-2.631-.918-2.631c-0.423,0-.825.074-1.2,0.074a1.41,1.41,0,0,1-1.419-.993c-0.633-1.386-.56-1.912-1.764-3.229s-2.328-1.052-4.52-2.037-1.062-1.253-1.062-2.964,0.124-3.53-1.619-4.323-0.71.441-.71-2.367,0-2.414-1.409-2.9-1.887-.439-2.782-2.15-2.067-4.517-2.49-5.658a0.535,0.535,0,0,0-.386-0.454m-55.813-2.568a0.693,0.693,0,0,0-.782.425c-0.087.543-1.063,0.512,0.67,1.153a14.29,14.29,0,0,0,2.91.983,0.289,0.289,0,0,0,.337-0.374,2.42,2.42,0,0,0-1.409-1.548,3.109,3.109,0,0,0-1.726-.639m-2.731-2.208c-0.524,0-.707.35-1.809,0.49a4.932,4.932,0,0,1-.593.037,2.63,2.63,0,0,1-1.474-.346c-0.851.263-2.589,0.749-1.789,1.1a1.834,1.834,0,0,0,1.225.439c0.311,0,.764-0.027,1.458-0.088,2.49-.217,4.663-0.524,4.986-1.053s-0.422-.175-1.459-0.482a1.931,1.931,0,0,0-.545-0.094m21.581-.344a8.49,8.49,0,0,1-1.615.155c-0.2,0-.4-0.007-0.607-0.025-0.073-.006-0.147-0.009-0.219-0.009a4.313,4.313,0,0,0-2.469.932c-0.367.31,0.366,0.4-2.372,1.448l-0.063.04c-1.167.8-1.216,1.023-1.111,1.653a1.192,1.192,0,0,1-.125.924,5.012,5.012,0,0,0,3.019-1.4,4.917,4.917,0,0,1,2.7-1.776,10.263,10.263,0,0,0,2.861-1.943m-5.926-.092c-0.058,0-.119,0-0.184,0-0.987.043-1.688,0.087-2.681,0.087-0.968,0-2.6.835-3.335,0.835H704.81c-0.569-.037-1.557-0.326-2.1-0.326a0.579,0.579,0,0,0-.3.061,0.236,0.236,0,0,1-.131.046,1.4,1.4,0,0,1-.378-0.154,2.33,2.33,0,0,0-.929-0.156,5.5,5.5,0,0,0-.68.047c-1.67.2-1.459,0.568-.143,0.965a8.942,8.942,0,0,0,2.491.431,4.011,4.011,0,0,0,1.042-.126,16.239,16.239,0,0,1,2.968-.834c1.832-.306,2.447-0.263,3.9-0.436l1.466-.174a1,1,0,0,0-.947-0.27M668.435,337a0.878,0.878,0,0,0-.818.306c-0.556,0-.975-0.16-1.347-0.16a1.243,1.243,0,0,0-1.1.862c-0.751,1.36-.658,1.36.516,1.36s0.943,0.616.894,0.789-0.565-.133,1.839.832a7.669,7.669,0,0,0,2.869.607,4.122,4.122,0,0,0,1.885-.388,0.479,0.479,0,0,1,.229-0.062c0.534,0,1.068,1,3.964,1.466a14.385,14.385,0,0,0,2.311.184c0.62,0,1.18-.036,1.708-0.073s1.022-.073,1.509-0.073a6.649,6.649,0,0,1,1.624.182,4.589,4.589,0,0,0,1.026.167c0.821,0,.248-0.678-0.933-1.568-1.509-1.144-1.365-.529-2.875-1.626s-3.619-1.139-4.606-1.317a0.947,0.947,0,0,0-.164-0.017c-0.258,0-.15.188-0.158,0.378s-0.131.377-.846,0.377a7.952,7.952,0,0,1-1-.079,14,14,0,0,0-1.838-.143l-0.211,0-0.153,0a2.055,2.055,0,0,1-1.281-.607c-1.559-1.008-1.559-1.184-2.6-1.36a2.665,2.665,0,0,0-.448-0.041m113.794-5.573c-0.341,0-.435.27,0.048,0.963,0.609,0.86.378,0.727,1.155,1.863a4.846,4.846,0,0,0,2.918,1.647,1.207,1.207,0,0,0,.324.079c0.286,0-.435-0.568-1-1.327a10.789,10.789,0,0,0-1.746-2.349,3.24,3.24,0,0,0-1.7-.876m-5.76-2.047a0.338,0.338,0,0,0-.308.378c-0.156,1.222.354,1.581-.777,2.479a6.944,6.944,0,0,1-3.607,1.1,3.3,3.3,0,0,1-.5.055,3.854,3.854,0,0,0-1.3-.3c-0.177,0-.339-0.008-0.485-0.008-1.074,0-1.3.163-.694,0.819,0.643,0.706.532,1.39,2.352,1.39,0.111,0,.229,0,0.356-0.008,2.191-.087,4-1.271,5.413-1.708a2.063,2.063,0,0,0,1.416-2.108,3.34,3.34,0,0,0-1.859-2.089m-62.984-.49a1.106,1.106,0,0,0-1.236,1.247c0,1.132-.242,1.693,2.061,1.693s4.905-1.015.907-2.539a5.045,5.045,0,0,0-1.732-.4m9.335-1.043a11.391,11.391,0,0,0-3.3.712c-0.534.165-1.093,1.861-.788,2.877,0.12,0.409.251,0.543,0.444,0.543,0.287,0,.71-0.3,1.438-0.432,1.21-.223,1.023-1.183,2.538-1.3,0.068-.005.14-0.007,0.215-0.007a17.625,17.625,0,0,1,4.448,1.082s0.671-.789-1.751-2.314a5.887,5.887,0,0,0-3.244-1.163m8.493-5.29a8,8,0,0,0-2.585.616c-3.111,1.144-2.638.881-.564,1.669s2.353,1.054,2.633,1.054,3.3,0.437,2.638.879-3.483.875-1.695,2.1,1.037,0.352,5.744,2.723,5.464,0.615,6.973,3.684,1.5,2.548.279,3.338-2.824,1.578-2.166,1.664a41.889,41.889,0,0,0,5.083.529c3.206,0.173.188,2.016,3.764,2.016s4.52-1.14,5.937-2.808a1.964,1.964,0,0,1,1.475-.954,31.343,31.343,0,0,1,3.232.87c3.01,0.7,4.047,3.334,7.816,4.387,2.306,0.643,3.8,1.42,4.071,1.42,0.17,0-.148-0.31-1.06-1.159-2.353-2.2-3.2-3.772-6.408-6.32s-3.383-2.8-4.327-4.738-4.234-4.213-7.9-5.7-5.775-1.7-10.077-2.9a5.473,5.473,0,0,0-1.465-.216c-3.158,0-3.9,3.419-5.222,3.728a2.029,2.029,0,0,1-.457.056c-1.213,0-1.934-1.292-3.026-3.568-0.8-1.645-1.471-2.372-2.688-2.372m-444.93-3.533H215.1a11.469,11.469,0,0,0-.81,1.323c-1.558,2.961-2.975,5.067-3.391,7.173s-2.682,2.172-1.483,5.924,1.341,3.817,3.743,7.372a93.162,93.162,0,0,1,5.718,10.2c0.7,1.513,2.044,5.136,3.46,6.914a21.386,21.386,0,0,0,4.52,4.142c1.409,0.987,3.253,2.305,5.017,3.357a7.257,7.257,0,0,1,3.806,4.474c0.783,2.437.994,2.636,0.994,2.9s0.354,5.462-.211,8.025a60.771,60.771,0,0,0-1.062,7.108c-0.28,2.568-3.88,18.888-4.664,22.9s-3.6,19.549-4.514,23.039-1.34,8.553-1.905,15.072-1.484,8.355-.211,11.319,1.974,5.133,2.961,7.305,3.744,4.412,5.44,5.661,6.705,4.144,8.823,4.608a7.555,7.555,0,0,0,1.592.163,35.732,35.732,0,0,0,5.541-.825c3.037-.522,5.937-0.655,4.243-1.184a3.657,3.657,0,0,0-1.146-.161c-0.1,0-.2,0-0.3,0s-0.208,0-.315,0c-0.81,0-1.8-.129-3.818-1.36-3.458-2.107-5.65-1.58-6.706-4.608s-1.205-6.053-1.837-8.094,1.06-1.908,2.824-4.608,1.907-2.433,3.813-4.213,2.689-1.709,1.558-3.026-0.993-2.895-1.136-5,0.708-1.179,1.552-2.961c3.769-7.895,2.342-9.54,3.555-9.54,0.569,0,1.72.362,4.263,0.611,0.343,0.034.607,0.055,0.8,0.055,1.475,0-.8-1.156-1.978-6.657-0.068-.33,2.758-1.119,3.812-1.644s1.839-2.657,1.975-3.51a0.265,0.265,0,0,1,.3-0.243,4.5,4.5,0,0,1,1.237.406,4.509,4.509,0,0,0,1.575.406,1.58,1.58,0,0,0,.373-0.042c1.342-.333,3.3.083,4.993-2.023s1.129-2.562.355-3.749c-0.339-.517-0.258-0.569-0.134-0.569h0.05l0.048,0c0.125,0,.188-0.055-0.226-0.618-0.282-.385-0.252-0.525-0.024-0.525a8.62,8.62,0,0,1,1.7.5,7.764,7.764,0,0,0,2.211.5,1.172,1.172,0,0,0,.855-0.275c0.459-.46-0.107.067,2.08-2.368s3.675-5.6,7.066-8.687,4.873-4.413,5.793-6.715,1.763-6.055,2.607-7.894c0.3-.648.528-1.125,0.757-1.526V326.321c-1.808-.656-1.389-1.381-2.731-4a11.846,11.846,0,0,0-2.121-3.3m370.017,0h-8.023a1.527,1.527,0,0,1,.078.2,5.483,5.483,0,0,0,1.552,2.9c1.037,0.876,1.037.745,1.646,2.455s1.558,2.941,2.029,4.386,3.155,2.813,4.515,4.565c1.207,1.55,3.149,3.718,3.847,3.718a0.219,0.219,0,0,0,.208-0.12,0.6,0.6,0,0,1,.594-0.323,3.349,3.349,0,0,1,.53.062,3.428,3.428,0,0,0,.557.062,1.114,1.114,0,0,0,.387-0.062c0.707-.265.944-1.274,1.415-3.729s-0.427-3.6-1.086-4.173-1.881-.7-2.21-1.226-0.895-2.325-1.695-2.9-1,.044-1-1.36,0.944-1.271-.229-2.06a6.292,6.292,0,0,1-1.7-1.753,5.522,5.522,0,0,0-1.418-.645m4.922,0h-1.395a3.7,3.7,0,0,0,1.248.449c0.223,0,.262-0.15.147-0.449m35.174,0H673.223c-0.517,1.291-.719,1.51.274,2.4,1.087,0.965-.746,1.009-0.515,1.668s0.242,1.886.895,2.017a0.767,0.767,0,0,0,.161.017,1.059,1.059,0,0,0,.368-0.078,0.973,0.973,0,0,1,.325-0.079,1.06,1.06,0,0,1,.753.537c0.795,1.007.137,3.856,1.173,3.992a3.22,3.22,0,0,0,.42.026,6.215,6.215,0,0,0,.73-0.053,6,6,0,0,1,.686-0.053,2.033,2.033,0,0,1,.847.169,4.3,4.3,0,0,0,1.761.522,3,3,0,0,0,.97-0.175,3.313,3.313,0,0,1,1.049-.164,4.257,4.257,0,0,1,2.013.519,10.694,10.694,0,0,0,3.719,1.012c0.065,0,.128,0,0.187-0.007,1.087-.086,1.266.177,1.459-1.36s0.05-2.983,1.366-4.163,1.366-1.19,1.458-2.287a6.175,6.175,0,0,1,.895-3.374,0.72,0.72,0,0,1,.556-0.394,0.83,0.83,0,0,1,.468.211,0.815,0.815,0,0,0,.394.211,0.341,0.341,0,0,0,.278-0.253,3.983,3.983,0,0,1,.583-0.859m18.8,0h-1.7c-0.31.236-.61,0.457-0.877,0.645a2.217,2.217,0,0,1-1.187.517,3.311,3.311,0,0,1-1.452-.791,0.749,0.749,0,0,0-.388-0.134,1.006,1.006,0,0,0-.608.369,1.276,1.276,0,0,1-.906.369,2.933,2.933,0,0,1-1.209-.33c-0.538-.251-1-0.474-1.419-0.645H702.6a8.783,8.783,0,0,0-1.381.862c-2.527,1.859-.937,2.623-1,3.934s-2.112,5.028-2.874,6.395-0.759,1.858-.176,2.733,1.411,0.545,1.758.985,0,3.879-.41,5.028c-0.3.833,0.364,1.177,1.309,1.177a5.39,5.39,0,0,0,1.156-.139c1.466-.33.173-0.439,0.173-1.638s0.7-1.749.7-3.992v-3.279a0.351,0.351,0,0,1,.15-0.028,1.039,1.039,0,0,1,.793.572c0.527,0.768,1.291,2.9,1.932,3.993,0.469,0.794.939,1.446,1.546,1.446a1.232,1.232,0,0,0,.743-0.3c1-.765,1.932-1.64,1.932-1.64s-1.932-.6-1.932-1.256,0.82-1.2-.534-3.389-2.049-2.294-.347-2.406,1.646-1.8,2.639-2.3a4.348,4.348,0,0,1,1.84-.353,5.3,5.3,0,0,1,.564.027,2.645,2.645,0,0,0-1.782-.71,2.691,2.691,0,0,0-.74.106,19.575,19.575,0,0,0-4.166,1.369,4.4,4.4,0,0,1-1.8.679,0.83,0.83,0,0,1-.833-0.844,9.09,9.09,0,0,1-.231-3.443,0.925,0.925,0,0,1,1.066-.962,7.337,7.337,0,0,1,.93.091,7.492,7.492,0,0,0,1.018.091,2.654,2.654,0,0,0,.736-0.093,5.6,5.6,0,0,1,1.759-.3c0.608,0,1.443.082,3.11,0.19,0.382,0.025.723,0.038,1.03,0.038,2.374,0,2.66-.738,3.545-1.949,0.167-.229.323-0.465,0.466-0.7m5.231,0h-2.548c0.021,0.039.042,0.078,0.062,0.117,0.379,0.7.286,3.113,0.428,3.639s1.553,1.013,1.553,1.013a5.13,5.13,0,0,1,.471-2.371c0.432-.624.14-1.373,0.034-2.4M490.586,228.6a7.41,7.41,0,0,0-1.151.32,7.111,7.111,0,0,1-2.013.321,5.274,5.274,0,0,1-1.115-.117,3.025,3.025,0,0,0-.641-0.075,0.968,0.968,0,0,0-1.126,1.25,2.01,2.01,0,0,0,2.027,1.25,3.37,3.37,0,0,0,.59-0.054c2.968-.528,1.837.2,3.179-1.973,0.433-.7.484-0.922,0.25-0.922m-20.6-.774a11.016,11.016,0,0,0-1.275.112,12.369,12.369,0,0,1-1.551.112c-0.28,0-.579-0.013-0.9-0.044-0.151-.015-0.3-0.022-0.433-0.022-1.782,0-2.346,1.168,1,1.538a44.889,44.889,0,0,0,4.529.34,8.479,8.479,0,0,0,2.04-.21c1.334-.329.2-0.064-1.559-1.251a3.116,3.116,0,0,0-1.849-.575m-55.032-15.09a6.179,6.179,0,0,0-.765.045c-2.359.3-2.54,1.1-.708,1.58a4.382,4.382,0,0,0,1.062.179c0.739,0,.806-0.457,1.576-1.012,0.811-.584-0.193-0.792-1.165-0.792M431.277,208a5.042,5.042,0,0,0-1.927.607c-2.4,1.132-2.541,1.973-2.832,3.774s1.937,0.35,1.365,1.93c-0.358,1-.279,1.7.462,1.7a4.444,4.444,0,0,0,1.991-.78c2.49-1.493,1.08-2.852,1.459-4.74,0.27-1.347.516-2.493-.518-2.493m-0.654-7.695a1.8,1.8,0,0,0-.572,1.02c-0.193.5,0.242,1.84-1.224,2.763s0.708,1.756,1.173,2.633a0.2,0.2,0,0,0,.146.128c0.446,0,.927-3.3.8-4.955-0.076-1.038-.156-1.589-0.321-1.589M388,159.266H377.951a1.31,1.31,0,0,0,1.158,1.335,2.928,2.928,0,0,0,.7.088,2.584,2.584,0,0,0,.32-0.02c0.081-.011.137-0.021,0.169-0.021,0.164,0-.369.3-1.517,2.458-1.624,3.035-2.791,5.24-.674,5.24a6.089,6.089,0,0,0,1.338-.188c3.832-.9,4.888-2.88,6.719-3.117s2.167-1.7,2.167-3.919a5.393,5.393,0,0,0-.332-1.856m18.223,0H398.3a0.846,0.846,0,0,1-.473.722,0.68,0.68,0,0,1-.374.1,4.477,4.477,0,0,1-1.687-.609l-0.413-.21h-1.429c-0.106,1.022.428,1.821,1.072,3.272,0.665,1.511-.448,2.36-2.553,3.352-1.973.926-.51,1.521,1,1.521,0.11,0,.22,0,0.329-0.009,0.855-.05,2.394-0.286,3.553-0.286,1.028,0,1.758.186,1.445,0.852-0.665,1.417-2.607-.234-3.993,2.125-1.351,2.282-6.175,4.257-4.075,4.257,0.072,0,.151,0,0.239-0.007,2.662-.141,2.278-0.849,10.22-1.983s2.44-.1,7.662-1.7c3.9-1.2,3.956-1.741,2.531-1.741a12.185,12.185,0,0,0-1.866.182,2.936,2.936,0,0,1-.468.046c-1.826,0,2.318-3.079,1.69-5.948-0.268-1.237-.735-1.5-1.275-1.5a3.915,3.915,0,0,0-.628.072,3.874,3.874,0,0,1-.65.073,1.346,1.346,0,0,1-1.222-.723c-0.589-.933-0.855-1.548-0.712-1.856m3.452,0H408.01l0.2,0.06a3.856,3.856,0,0,0,1.037.2c0.283,0,.43-0.088.423-0.261m123.739,28.158a1.518,1.518,0,0,0,.781-0.227,2.989,2.989,0,0,1,1.488-.491,0.989,0.989,0,0,1,.486.1c1.2,1.908,1.7,1.908,1.348,3.358s0,1.973,1.123,2.3a1.435,1.435,0,0,0,.4.05,5.951,5.951,0,0,0,1.258-.193,6.2,6.2,0,0,1,.947-0.194c0.235,0,.151.169-0.553,0.731a7.294,7.294,0,0,1-1.613,1.155c-0.046,0,.011-0.076.011-0.076s0.323-.224-0.6-0.287-3.383-.463-5.3-0.593c-0.1-.007-0.2-0.011-0.29-0.011-1.555,0-1.08,1.037-.411,1.722,0.7,0.723,1.478,1.052,0,1.052a6.066,6.066,0,0,1-1.5-.312c-0.169,0,0,.279.655,1.366,1.34,2.238.347,1.843,1.478,3.686s1.626,1.185,2.477,1.709a0.781,0.781,0,0,0,.418.144,0.473,0.473,0,0,0,.093-0.008,0.455,0.455,0,0,1,.058-0.008,9.38,9.38,0,0,1-.221,1.849c-0.279,2.764.422,3.422,0.422,3.422s0.4-2.272,1.29-2.272a0.646,0.646,0,0,1,.33.1c1.143,0.658.571,1.25,1.491,2.765s0.7,1.58-1,1.58-2.538.789-1.974,2.172,1.417,0.789,1.559,3.027a27.6,27.6,0,0,0,.914,5.594c0.5,2.04,2.471,3.422-1.125,3.422a23.284,23.284,0,0,1-7.488-1.117c-2.473-.66-1.769-1.645-4.023-1.91s0.558-2.962.347-5.857,1.7-4.278,1.7-6.254c0-1.138.4-1.379,0.735-1.379a1.007,1.007,0,0,1,.463.13,28.065,28.065,0,0,0-3.247-1.778c-1.273-.524-1.914-0.2-2.832-3.883s-0.279-2.961-1.2-4.081-2.117-2.3-2.117-2.3,3.037-1.054,3.389-3.027,1.486-.4,2.473-2.829,2.757-2.173,4.377-2.765a2.141,2.141,0,0,1,.739-0.136,3.146,3.146,0,0,1,1.165.28,2.947,2.947,0,0,0,1.06.278m49.142-28.158H443.262a1.384,1.384,0,0,1-1.169.905,2.426,2.426,0,0,1-.767-0.153,5.4,5.4,0,0,1-1.479-.752H428.26c-1.263.35-3.042,0.792-3.387,0.883-0.5.134,1.273,0.789-1.622,1.053s-2.471-.064-3.887.792-0.988,1.446-1.2,3.224-0.56,3.158-.28,3.488,0.776,0.789-1.974.988-4.31.724-4.59,1.58,1.547,1.907.212,2.828-3.322.855-3.11,1.976,0.422,1.513-2.262,1.513a4.263,4.263,0,0,1-3.389-1.185c-0.211,0,.422,1.052.782,1.908s-1.272,1.382-2.545,1.909a1.58,1.58,0,0,1-.6.134,0.948,0.948,0,0,1-.889-0.791s-2.4,0-3.247.13-0.572,1.052.563,1.908,0.7,0.987-.352,1.383,1.129-.067,3.109.526,1.267,2.239,2.187,3.359,1.831,1.049,2.682,1.907,0.354,2.763.64,6.91c0.236,3.5.32,4.653-1.354,4.653a7.2,7.2,0,0,1-1.124-.112c-2.819-.461-5.65-1.052-6.985-1.184-0.116-.011-0.238-0.016-0.366-0.016a16.9,16.9,0,0,0-1.857.167,18.731,18.731,0,0,1-2.23.166,8.666,8.666,0,0,1-1.484-.119,29.582,29.582,0,0,0-4.445-.461c-0.428,0,.211.79,0.776,1.381s-0.708,1.713-.28,2.829-0.075,3.687.28,5.594,0.075,2.5-.708,5.793c-0.668,2.835.026,3.032,0.549,3.032,0.084,0,.164,0,0.234,0,0.49,0,0,.594-0.355,2.436a11.522,11.522,0,0,1-.782,3.095c-0.06.1-.058,0.134,0.012,0.134a17.727,17.727,0,0,1,4.086-.661c0.988-.04,1.708-0.093,2.22-0.093,1.171,0,1.251.276,0.953,1.6-0.227,1.026-.066,1.33.394,1.33a11.9,11.9,0,0,0,1.8-.408c1.472-.342,1.081-1.181,2.707-1.181a7.321,7.321,0,0,1,.895.063,7.55,7.55,0,0,0,.913.058,5.453,5.453,0,0,0,4.457-2.23,1.158,1.158,0,0,1,.621-0.543,0.313,0.313,0,0,1,.155.061,0.375,0.375,0,0,0,.2.06,2.3,2.3,0,0,0,1.211-.765c1.906-1.708,1.341-2.763,1.764-4.079s-1.764.528,0.286-3.358,3.247-5.526,4.587-6.186,3.036,0.33,3.036-2.04,0.286-3.553,1.7-4.738a3.048,3.048,0,0,1,1.909-.948,4.363,4.363,0,0,1,2.189.884,3.026,3.026,0,0,0,1.378.613c0.592,0,.818-0.713,1.936-1.8,1.7-1.645,2.969-2.831,4.664-2.831s2.471,1.054,3.247,2.436,0.144,2.567,1.839,4.146,2.433,2.633,3.178,2.994,0.49,1.581,1.833,1.91,2.155,0.461,2.937,1.316a20.851,20.851,0,0,0,2.041,2.038,5.493,5.493,0,0,1,2.119,2.5c0.6,1.517,1.483,2.011.6,3.261s-0.6,1.414-1.41,2.041-1.129.888-3.781,1.216-4.166.5-3.1,1.151,1.8,0.364,3.072,1.22,0.952,2.139,2.329,2.2c0.191,0.009.349,0.014,0.478,0.014,0.805,0,.512-0.225.33-1.331-0.2-1.283-.7-1.68-0.2-2.635s0.633-1.446,1.025-1.446c0.311,0,.232.732,0.562,0.732a0.559,0.559,0,0,0,.313-0.141,10.629,10.629,0,0,0,1.627-2.335c0.6-.82,1.484-0.428,1.559-1.447s-0.958-2.074-.43-3.457c0.312-.808.453-1.458,0.9-1.458a3.01,3.01,0,0,1,1.576,1.162,2.117,2.117,0,0,0,.908.723c0.381,0-.407-1.634-0.692-2.169-0.391-.725-1.912-1.68-3.4-2.6a16.385,16.385,0,0,1-2.186-1.678c-0.323-.2,1.378-0.362.913-0.79a0.466,0.466,0,0,0-.332-0.186c-0.043,0-.092.006-0.156,0.012s-0.143.012-.247,0.012a5.472,5.472,0,0,1-1.2-.168,4.016,4.016,0,0,1-2.719-1.874,9.882,9.882,0,0,1-1.734-3.094c-0.881-1.941-.136-1.709-1.906-2.764s-1.416-.626-1.168-1.973a4.207,4.207,0,0,0-.278-2.5c-0.144-.495-0.106-0.757,1.588-1.384a5.192,5.192,0,0,1,1.115-.375c0.3,0,.383.333,1.463,1.1,1.769,1.25,2.26,3.389,3.316,5.43s1.558,1.054,3.954,2.337a23.643,23.643,0,0,1,6.043,5c0.708,0.987.46,2.831,0.142,4.246s-0.428,1.02.745,2.433a8.628,8.628,0,0,1,1.9,3.258c0.6,1.549.286,1.646,1.551,2.4s0.709,0.886.355,2.335,0.571,2.5.67,3.127c0.03,0.175.1,0.222,0.2,0.222a1.031,1.031,0,0,0,.2-0.031,1.28,1.28,0,0,1,.252-0.03,0.969,0.969,0,0,1,.8.53,1.41,1.41,0,0,0,1.228.848l0.1,0h0.087a1.125,1.125,0,0,1,.165.01,0.668,0.668,0,0,0,.109.013c0.208,0-.035-0.265.245-1.428,0.323-1.317.745-2.7,1.166-2.9s1.063-.066.355-1.678-2.372-.394-2.012-3.03-0.881-2.86-.987-3.98-0.459-1.612,1.094-2.468a4.548,4.548,0,0,1,2.286-.769l0.216,0a17.526,17.526,0,0,1,2.26.7c1.484,0.438,3.651.593,3.842,1.051,0.162,0.4.059,1.188,0.346,1.188a0.322,0.322,0,0,0,.17-0.065c0.491-.331.684-0.837,1.628-1.736a2.291,2.291,0,0,1,1.779-.989,5.631,5.631,0,0,1,.66.048c0.641,0.075.949,0.177,1.141,0.177s0.272-.108.461-0.464c0.379-.7-0.187-0.177-1.241-1.557s-1.441-1.031-1.6-2.393a8.279,8.279,0,0,1,0-2.367c0.043-.7.373-0.7,0.962-1.383s0.969-.725,1.036-1.687a19.515,19.515,0,0,1,.423-2c0.093-.747-0.4-1.009.354-1.384s0.751-.107,1.2-0.724a2.22,2.22,0,0,0,.639-1.6,6.059,6.059,0,0,1,.236-2.284,10.416,10.416,0,0,0,.751-1.007,2.542,2.542,0,0,1,1.105-1.3c0.707-.461.306-0.832,1.3-0.986a5.912,5.912,0,0,1,.926-0.079c0.41,0,.723.052,1.148,0.079,0.113,0.007.236,0.01,0.363,0.01,0.631,0,1.365-.075,1.562-0.075,0.242,0,0,.2-0.3.417a1.057,1.057,0,0,1-.944.528,4.279,4.279,0,0,1-.443.024,2.46,2.46,0,0,1-.824-0.112,1.806,1.806,0,0,0,1.342.9c0.962,0.132.682,0.22,1.669,0.352a2.525,2.525,0,0,0,.34.02c0.2,0,.405-0.017.6-0.034s0.38-.034.54-0.034c0.421,0,.665.118,0.451,0.661A3.384,3.384,0,0,1,488.008,192a9.779,9.779,0,0,1-1.744.856,3.185,3.185,0,0,0,1.2.7,1.169,1.169,0,0,0,.417.076,1.886,1.886,0,0,0,.366-0.043,1.587,1.587,0,0,1,.28-0.044c0.2,0,.288.144,0.233,0.8-0.1,1.2.316,1.566,0.952,1.566a2.261,2.261,0,0,0,.347-0.03,5.946,5.946,0,0,0,2.447-.856c1.123-.636,1.409-1.317,2.067-1.317s1.062-.7,1.509-0.829-0.54-.288-0.938-0.4,0.211-.133-1.255-0.9a2.7,2.7,0,0,1-1.738-1.975c-0.187-.613-0.092-0.13,1.342-1.25s0.353-1.14,2.731-1.775a27.433,27.433,0,0,1,5.576-1.251l0.173,0c1.242,0,1.286.242,1.125,0.726a1.628,1.628,0,0,1-1.459,1.361c-1.2.283-2.353,0.13-2.006,0.636s2.943,1.425,1.746,1.864-1.317.417-1.6,1.184,0.193,1.075-1.268,1.426-2,.371-1.838,1.1,1.931,1.624,2.919,2.173a15.5,15.5,0,0,1,2.917,1.535c0.895,0.768,2.566,2.657,3.342,3.248s2.471,1.425,2.875,2.72,1.155,2.962.069,3.729a6.829,6.829,0,0,1-3.249,1.6,11.018,11.018,0,0,1-2.665.243h-0.724c-0.9,0-1.155.048-1.33,0.048a4.791,4.791,0,0,1-1.141-.334c-1.578-.5-2.869-0.788-3.578-1.074s-0.142-.833-1.055-1.008-1.39.066-2.1-.438c-0.657-.469-0.423-0.954-2.1-0.954-0.133,0-.278,0-0.438.009-0.38.016-.721,0.021-1.029,0.021-0.244,0-.468,0-0.675-0.006s-0.4-.006-0.575-0.006a2.885,2.885,0,0,0-1.608.32,5.162,5.162,0,0,0-1.622,2.085c-0.359.635-.993,0.438-2.049,0.5s-2.309.109-3.11,0.2-0.969.064-1.223,0.483,1.223,0.568,1.72.7-0.472.461-.944,0.657a7.631,7.631,0,0,1-2.85.967,19.127,19.127,0,0,0-3.13.305,2.48,2.48,0,0,0-2.023,1.778c-0.433.958-.318,1.24,0.081,1.24a3.761,3.761,0,0,0,.93-0.208,2.925,2.925,0,0,1,.6-0.148c0.182,0-.041.209-0.2,0.607a8.7,8.7,0,0,0,.3,4.3c0.54,2,.347,2,1.669,3.29a8.821,8.821,0,0,0,3.062,2.239,7.723,7.723,0,0,0,3.009.765,2.063,2.063,0,0,0,.642-0.085,1.16,1.16,0,0,0,.794-1.274c0.046-.38.1-0.542,0.363-0.542a3.182,3.182,0,0,1,.768.17,6.1,6.1,0,0,1,2.875,1.251c0.707,0.766.3,0.9,2.471,1.009,0.2,0.01.373,0.015,0.532,0.015,1.6,0,1.479-.5,1.846-1.419a1.012,1.012,0,0,1,.934-0.829,2.214,2.214,0,0,1,.575.1,4.8,4.8,0,0,0,1.039.507,0.8,0.8,0,0,0,.252-0.044,5.3,5.3,0,0,1,1.373-.368c0.3,0,.473.137,0.323,0.564a4.973,4.973,0,0,0-.447,2.525,9.023,9.023,0,0,1,.136,3.6c-0.329,1.513-1.553,4.869-1.994,6.406a15.946,15.946,0,0,1-2.359,4.364c-0.516.592-.54,0.947-2.849,1.074-0.535.031-1.011,0.054-1.437,0.054-1.409,0-2.279-.247-2.984-1.26a0.943,0.943,0,0,0-.792-0.459c-0.836,0-1.763,1.092-2.008,1.206a5.375,5.375,0,0,1-2.983.731c-0.125,0-.255,0-0.391-0.008a20.411,20.411,0,0,1-5.388-1.4,6.374,6.374,0,0,0-1.784-.241c-0.369,0-.689.025-0.942,0.045l-0.054,0c-0.523,0,.016-0.632-1.151-1.077-1.2-.46-1.34-0.46-2.775-1.054s-1.367-.087-1.67-1.182c-0.193-.683-0.763-0.841-1.611-0.841-0.52,0-1.143.06-1.848,0.094-1.863.088-2.639,0.218-2.949,0.724s-1.292,2.172-1.435,2.585,0.5,1.1.708,1.538-0.254,1.209-.826,2.064a0.959,0.959,0,0,1-.755.654,7.485,7.485,0,0,1-.983-0.174,7.736,7.736,0,0,1-2.758-1.559c-0.869-.547-2.471-0.547-3.98-1.072s-1.551-1.494-2.422-2.5-0.564-1.1-3.06-1.842-2.589-.4-4.733-1.362a27.359,27.359,0,0,1-3.6-1.861c-1.907-1.08-2.093-1.233-1.316-2.152s1.831-1.8,2.067-2.744-0.142-.877-0.658-2.17-0.776-.635-0.23-1.866a5.946,5.946,0,0,1,1.105-1.821c0.23-.284.211-0.349-0.918-0.766a27.282,27.282,0,0,0-2.69-.9c-0.162,0-1.011.7-1.663,1.052a3.009,3.009,0,0,1-1.535.369,8.4,8.4,0,0,1-1.432-.149c-1.628-.286-2.355-0.551-2.993-0.593h-0.035c-0.635,0-1.593,1.193-1.9,1.624a0.369,0.369,0,0,1-.3.22,11.042,11.042,0,0,1-1.582-.635c-1.168-.459-1.023-0.667-1.518-0.667a6.456,6.456,0,0,0-.65.052,30.006,30.006,0,0,0-6.208,1.82,34.909,34.909,0,0,0-6.875,3.271,8.633,8.633,0,0,1-2.024,1.185,1.407,1.407,0,0,1-.547-0.242,3.078,3.078,0,0,0-2-.574l-0.206,0a11.525,11.525,0,0,0-2.116.459,0.648,0.648,0,0,1-.169-0.022,4.493,4.493,0,0,1-1.813-.919c-0.849-.573-0.908-1.17-1.27-1.17a0.891,0.891,0,0,0-.445.182c-0.851.55-1.087,2.237-1.651,3.577s-0.733,2.258-1.832,2.873-3.229,1.93-4.545,2.632-0.869,1.713-1.205,3.536-0.825,6.161-1.012,6.689-1.13.855-2.284,1.445a34.041,34.041,0,0,0-4.912,3.492c-1.068.964-2.69,4.537-3.4,5.7s-1.458,2.392-2.8,4.9a49.024,49.024,0,0,1-3.173,5c-0.547.811-1.229,0.829-.776,2.258s1.074,4.475,1.646,5.925,1.172,4.1.912,5.022-0.416.723-1.007,2.193-2,4.3-2.029,4.781,0.54,0.572,1.273,1.583,2.191,4.364,3.668,6.031,2.43,3.882,3.535,5.461,1.222,3.117,2.824,4.631,0.963,1.559,2.9,2.5,1.484,1.47,3.434,2.44a25.04,25.04,0,0,1,3.98,2.563,3.806,3.806,0,0,0,2.2.89,4.226,4.226,0,0,0,1.655-.405c1.431-.612,2.846-1.713,5.2-1.713a8.659,8.659,0,0,1,1.7.176,22.725,22.725,0,0,0,3.838.6,6.11,6.11,0,0,0,2.116-.429c1.957-.681,2.95-2.019,5.482-2.414,2.548-.394.242-0.46,4.055-0.746,1.781-.133,2.9-0.208,3.631-0.208a1.919,1.919,0,0,1,1.4.317c0.447,0.417,1.72,1.977,2.69,3.092s0.863,1.624,3.1,1.669l0.327,0a21.025,21.025,0,0,0,2.114-.12c0.6-.06,1.093-0.12,1.465-0.12a1.585,1.585,0,0,1,.5.061c0.634,0.219,1.224,1.514,2.049,2.415s0.752,0.789.4,2.94c-0.045.274-.093,0.574-0.144,0.892h87.653a23.63,23.63,0,0,0,3.19-2.778,19.161,19.161,0,0,0,2.664-4.1c0.721-1.56,4.21-6.493,4.724-7.7s0.777-1.338,1.486-2.83,1.105-3.029,1.931-4.871c0.728-1.622.794-2.737,0.059-2.737a1.1,1.1,0,0,0-.339.062c-1.087.35-3.154,0.679-5.278,1.187s-4.334,1.139-6.047,1.509-2.044.793-3.652,0.837a0.982,0.982,0,0,0-.945.324,5.474,5.474,0,0,1-1.011-.633,18.333,18.333,0,0,1-3.452-2.5c-0.615-.723-0.168-0.087-0.124-1.47s0.614-.966-0.231-2.389-2.217-2.106-2.924-3.007-0.347-1.162-1.385-1.535a17.248,17.248,0,0,1-2.353-.944A3.493,3.493,0,0,1,502.978,283a25.813,25.813,0,0,0-1.578-3.949c-0.614-1.159.051-.766-1.273-1.861s-1.931-1.669-2-2.764a22.142,22.142,0,0,0-.38-5c-0.489-1.8-.3-1.23-1.415-2.328s-1.57-1.426-2.4-4.079a12.253,12.253,0,0,0-1.367-3.555c-0.893-1.753-3.08-5.987-3.88-7.677s-1.087-1.318-1.7-3.091-0.254-2.439.193-3.094a0.293,0.293,0,0,1,.229-0.161c0.387,0,.813,1.25,1.3,2.639,0.411,1.158.716,1.649,1.109,1.649a1.015,1.015,0,0,0,.587-0.268c0.612-.48,1.361-2.645,1.793-2.645a0.275,0.275,0,0,1,.2.251c0.349,1.122-.285.75,0.684,2.634s1.478,2.238,2.944,5.046,1.527,3,2.539,4.829a19.106,19.106,0,0,0,2.869,3.663c0.732,0.855,1.06,2.346,1.559,3.882s0.21,3.337.676,3.862a13.523,13.523,0,0,0,1.956,1.271c0.987,0.7,1.744,2.239,2.875,4.059s1.1,1.93,2.136,3.665a17.232,17.232,0,0,1,1.862,6.272,13.372,13.372,0,0,0,.8,3.685c0.4,1.1.067,1.143,1.3,1.386a1.675,1.675,0,0,0,.319.03c1.186,0,2.69-1.109,3.747-1.63a23.671,23.671,0,0,1,5.4-1.121c1.882-.286,1.906-0.572,2.286-1.12s0.067-.941,1.55-1.1,4.422-1.582,6.05-2.2,0.5-.525,1.763-1.488a5.077,5.077,0,0,1,2.359-1.383c1.5-.528,2.186-0.09,2.683-0.572s0.5-1.468,1.365-2.215,2.212-1.122,4.446-2.02,1.509-.217,1.627-2.08a10.268,10.268,0,0,1,.895-3.469l0.564,0.988a0.7,0.7,0,0,0,.226.095,2.483,2.483,0,0,0,1.184-.973,5.553,5.553,0,0,0,1.838-3c0.515-1.648.8-1.293,0.068-1.778s-0.683.286-1.434-1.1,0.186-1.449-1.205-1.977-1.763-.853-3.123-1.422-1.509-.109-2.074-1.4,0.019-3.273-.59-3.469a0.3,0.3,0,0,0-.087-0.014c-0.524,0-.568,1.688-1.446,2.189-0.92.526-1.757,2.3-3.713,2.762a14.225,14.225,0,0,1-3.681.4c-0.352,0-.72,0-1.126,0-0.361,0-.637.006-0.849,0.006-0.821,0-.687-0.084-0.914-0.9-0.286-1.034,0-1.052-.4-2.678a14.083,14.083,0,0,0-.843-2.544,10.052,10.052,0,0,1,.092,2.808,2.538,2.538,0,0,1-.513,1.113,0.28,0.28,0,0,1-.17-0.236c-0.237-.678-0.895-1.25-1.931-3.512s-0.54-2.1-2-3.728-0.658-1.512-1.577-2.589-2.067-2.17-1.434-2.964a15.7,15.7,0,0,1,1.622-1.95c0.285-.153-0.753-0.305,1.527-0.305,0.767,0,1.271-.023,1.63-0.023a1.371,1.371,0,0,1,1.337.614c0.733,0.789.589,1.165,1.23,2.874a6.814,6.814,0,0,0,2.236,3.224,0.813,0.813,0,0,0,.491.245,0.641,0.641,0,0,0,.09-0.008,0.682,0.682,0,0,1,.093-0.009,1.656,1.656,0,0,1,.946.67c1.223,1.231,1.347,1.759,2.805,2.153a7.2,7.2,0,0,0,2.344.419c0.437,0,1-.029,1.792-0.088,0.608-.047,1.118-0.072,1.55-0.072,1.414,0,1.987.266,2.363,0.9,0.5,0.835.067,1.846,2.048,2.132s2.187,0.086,3.526.546,3.2,1.6,5.862,1.69c1.2,0.039,1.937.127,2.595,0.127a6.974,6.974,0,0,0,2.776-.633c2.353-.92,1.908-1.01,3.863-1.054a18.458,18.458,0,0,0,2.7-.483,0.423,0.423,0,0,1,.435.31c0.3,0.768.515,0.811,0.775,1.423s0.7,1.757,1.013,2.569,0.707,0.876,2.522,1.6c1.67,0.67,1.271,1.039,2.284,1.039,0.083,0,.175,0,0.279-0.008,1.366-.064,2.515-0.2,2.515-0.2s0.354,0.572-.7,1.1a9.23,9.23,0,0,1-3.084.7,0.819,0.819,0,0,1-.1,0l-0.018,0c-0.228,0,.508.893,2.072,2.459,1.21,1.208,1.708,1.492,2.609,1.492,0.292,0,.627-0.03,1.043-0.068a1.844,1.844,0,0,0,1.537-.771V159.266M34.777,154.22a2.741,2.741,0,0,0-1.816.729c-1.161.922-1.478,1.713-.845,2.734a1.044,1.044,0,0,0,.435.54c0.172,0,.362-0.46,1.291-1.1,1.492-1.021.782-1.151,2.653-1.612s1.483-1.089,1.483-1.089a1.459,1.459,0,0,1-.753.155,3.364,3.364,0,0,1-.73-0.087,8.248,8.248,0,0,0-1.718-.27m2.367-2.322a2.4,2.4,0,0,0-1.246.322c-0.945.571-1.368,1.053-.762,1.053a2.679,2.679,0,0,0,.514-0.066c1.145-.237,1.115-0.846,1.69-0.846a1.062,1.062,0,0,1,.217.024,2.191,2.191,0,0,0,.424.045,0.885,0.885,0,0,0,.669-0.21,3.974,3.974,0,0,0-1.506-.322M5.056,146.267a6.211,6.211,0,0,0-1.75.719,3.292,3.292,0,0,1-1.456.325,4.2,4.2,0,0,1-.594-0.044c-0.155-.022-0.261-0.044-0.3-0.044-0.059,0,.019.047,0.286,0.206a6.407,6.407,0,0,0,3,1.021,2.656,2.656,0,0,0,.285-0.015c1.025-.116,1.695-0.132,1.322-0.627a1.589,1.589,0,0,1-.491-1.132c-0.015-.281-0.1-0.409-0.3-0.409M865,133.716a0.472,0.472,0,0,0-.514.437c-0.213.813-.448,1.076,0.961,1.579a2.873,2.873,0,0,0,1,.171c0.181,0,.352-0.013.52-0.025s0.333-.028.5-0.028a2.213,2.213,0,0,1,1.418.5,3.111,3.111,0,0,0,1.944.879,6.191,6.191,0,0,0,.764-0.069,2.168,2.168,0,0,0,1.409-.635,32,32,0,0,0-5.433-2.261c-1.358-.262-2.13-0.545-2.571-0.545m-650.311-4.432a6.806,6.806,0,0,0-1.817.35c-0.509.156-.658,1.317,0,2.368a0.675,0.675,0,0,0,.579.371c0.663,0,1.491-1.035,1.917-1.994,0.345-.777.042-1.095-0.679-1.095m12.309-.89a22.586,22.586,0,0,1-2.849.336,12.337,12.337,0,0,1-1.317-.074c-1.3-.137-2.836-0.23-4.022-0.23a3.3,3.3,0,0,0-1.909.265c-0.1.393,0.454,0,.987,1.775s-0.359,3.16-.067,4.41,0.595,2.633.806,3.193,1.062,0.163-.384,2.007-0.783,2.008-.249,2.6a26.811,26.811,0,0,1,2.33,4.181,11.423,11.423,0,0,1,.595,4.179c-0.136,1.054-.28,3.98-1.092,4.606s-0.914.263-2.4,0.658-1.564,1.384-1.216,1.876c0.225,0.315-.576.616-0.986,1.091h51.687c0.8-.352.758-0.672,0.022-1.419a11.614,11.614,0,0,0-3.5-1.875,2.265,2.265,0,0,0-.916-0.171,6.137,6.137,0,0,0-1.188.148,5.671,5.671,0,0,1-.937.15,0.51,0.51,0,0,1-.28-0.063c-0.46-.3-0.18-0.328-0.068-1.415s-1.137-2.236-2.508-2.9-0.958-1.284-.075-2.73-0.069-1.547-.808-3.1-3.322-6.249-4.06-7.7c-0.608-1.18-1.121-2.448-1.747-2.448a0.658,0.658,0,0,0-.445.211,7.341,7.341,0,0,0-2.086,3.226c-0.211,1.052.676,1.71,0.354,2.038a0.507,0.507,0,0,1-.409.173c-0.071,0-.148-0.007-0.237-0.014s-0.192-.016-0.31-0.016a2.664,2.664,0,0,0-.348.023c-0.739.1-.882-0.034-1.484,1.479-0.391.983-.735,1.412-1.44,1.412a4.963,4.963,0,0,1-1.529-.358c-1.862-.657-3.669-2.269-4.339-2.369s-1.062-.132-1.094-0.921a29.329,29.329,0,0,0,.18-4.145c-0.18-1.944.845-2.535,0.845-2.535a8.007,8.007,0,0,0-2.8-.629c-0.067,0-.135,0-0.2,0s-0.14.005-.206,0.005c-1.28,0-1.661-.587-2.334-1.617-0.707-1.087-1.235-.858-2.614-1.745a8.533,8.533,0,0,0-3.353-1.58m-19.452-1.386a5.7,5.7,0,0,0-.883.081c-2.987.484-3.962,0.57-3.49,2.24,0.242,0.852.57,1.2,1.1,1.2a5.953,5.953,0,0,0,2.193-.806c1.808-.9,3.132-2.714,1.076-2.714m-7.971-12.33a0.984,0.984,0,0,0-.612.783,22.142,22.142,0,0,0-1.484,5.4,9.74,9.74,0,0,1-.776,3.158c-0.355,1.119,1.13-.2,2.118,1.448,0.538,0.9.655,1.442,0.938,1.442a3.72,3.72,0,0,0,1.389-1.246,5.721,5.721,0,0,1,4.265-2.1,6.382,6.382,0,0,1,1.951.328,11.632,11.632,0,0,0,2.981.666c0.7,0,.981-0.293.552-1.06-0.851-1.516-1.98-1.382-3.676-3.423a9.914,9.914,0,0,0-5.078-3.358c-1.535-.57-2.07-2.033-2.568-2.033M223.5,102.5a2.553,2.553,0,0,0-.983.23c-1.98.836-3.141,1.413-1.415,3.686,1.209,1.585,2.074,2.754,2.712,2.754a0.878,0.878,0,0,0,.708-0.714c0.6-1.461,1.2-5.956-1.022-5.956M849.848,99.1a7.22,7.22,0,0,0-1.533.275,8.43,8.43,0,0,1-2,.276,6.148,6.148,0,0,1-1.044-.089,29.733,29.733,0,0,0-3.2-.461,1.381,1.381,0,0,1-.386.049c-0.079,0-.154,0-0.226-0.009s-0.141-.009-0.2-0.009c-0.38,0-.594.159-0.457,1.417,0.155,1.514.454,2.017,1.7,2.017a11.674,11.674,0,0,0,1.543-.143,31.909,31.909,0,0,1,4.173-.36c3.527-.264,4.266-0.758,4.266-0.758a6.182,6.182,0,0,0-1.689-1.908,1.474,1.474,0,0,0-.936-0.3M169.209,96.328a0.658,0.658,0,0,0-.358.135c-0.422.262-1.13,2.37-1.415,2.765s-1.5.791-2.254,1.668c-0.487.566,0.322,0.566,1.157,0.566a4.457,4.457,0,0,1,1.189.091c0.759,0.264,1.323,1.009,1.932,1.23a8.306,8.306,0,0,0,2.017.178,8.671,8.671,0,0,0,3.261-.487c1.36-.657,1.5-0.876,1.36-1.183a20.591,20.591,0,0,0-4.8-3.994,7.241,7.241,0,0,0-2.089-.969m109.533-6.159c-1.322,0-2.592,1.452-3.123,2.36-0.568.98,0.695,2.2,1.871,2.2A1.527,1.527,0,0,0,278,94.648c1.272-.449,1.688.048,2.415-0.531a1.375,1.375,0,0,0-.069-2.262,1.965,1.965,0,0,1-.658-1.413,1.775,1.775,0,0,0-.944-0.274m303.812-5.045v20.4c2.488-1.169,2.912-2.5,3.684-4.544,0.851-2.235-1.416-3.686-2.614-4.871s-1.123-1.841-.7-6.976a10.675,10.675,0,0,0-.369-4.012m-437.62-6.956a9.655,9.655,0,0,0,.286,3.771c0.464,2.009.542,4.749-.2,4.749a0.846,0.846,0,0,1-.555-0.361c-1.1-1.248-2.044-3.577-3.565-3.577a1.9,1.9,0,0,0-.955.287,6.532,6.532,0,0,1-3.174.873c-0.663,0-1.043-.137-0.875-0.257,0.38-.265-0.043-1.579-1.129-1.976a1.905,1.905,0,0,0-.658-0.124,4.84,4.84,0,0,0-2.211,1,9.268,9.268,0,0,1-3.247.947c-0.405,0-.512-0.152,0-0.552,1.458-1.142.987-1.754,0.465-3.072a0.686,0.686,0,0,0-.719-0.4c-1.3,0-3.937,1.621-5.5,2.727-1.976,1.4-3.148,3.552-4.328,5s-0.329,2.37,1.459,2.895,4.663,0.879,2.26,1.756-4.241,1.489-3.012,2.236a7.039,7.039,0,0,0,3.529.739,15.672,15.672,0,0,0,1.929-.125,28.471,28.471,0,0,1,3.8-.416,13.12,13.12,0,0,1,3.5.5,21.845,21.845,0,0,0,5.364.879h0.045a10.71,10.71,0,0,1-3.527,1.185c-2.26.394-6.408,0-8.526,0.394s-5.458.964-4.613,1.754a8.716,8.716,0,0,0,4.428,2.94,8.064,8.064,0,0,0,2.5.443c0.313,0,.589-0.023.853-0.046s0.514-.045.78-0.045a4.189,4.189,0,0,1,1.043.13c1.745,0.44.8,2.413,1.273,2.722a1.218,1.218,0,0,0,.567.085,51,51,0,0,0,6.493-.963c3.3-.615,2.074-1.141,4.663-1.8s2.682-2.632,4.191-3.07a1.709,1.709,0,0,1,.465-0.082c0.807,0,.188,1.147,1.746,1.529,1.788,0.44.8,0.572,2.732,0.879,1.775,0.282,1.6.936,3.02,0.936,0.125,0,.262-0.005.414-0.016,1.887-.13,4.1-1.4,3.812-1.624a1.642,1.642,0,0,1-.372-1.666,0.252,0.252,0,0,0-.293-0.34,7.058,7.058,0,0,0-2.346.953,0.46,0.46,0,0,1-.228.074c-0.492,0-.29-1.35,1.121-2.05a3.389,3.389,0,0,1,1.529-.351c0.964,0,1.8.351,2.427,0.351,0.944,0,.1-2.72-1.6-3.157s-2.446-1.494-4.992-2.9-1.224-2.018-1.975-3.859-2.352-7.285-3.769-8.252-2.918-.7-4.327-1.665m5.641-3.565c-0.322,0-.678.018-1.072,0.055-2.117.2-2.831,1.668-2.024,1.886s1.317-.219,2.584,1.141a3.33,3.33,0,0,0,1.867,1.293c0.449,0,.815-0.4,1.051-1.423,0.458-1.969-.067-2.952-2.406-2.952m599.479-.971a3.878,3.878,0,0,0-1.388.334c-1.216.489-1.129,0.924,0.243,2.075s0.926,0.888.323,1.709,0-.031,1.974.856,2.794,2.5,4.029,2.863a3.329,3.329,0,0,0,.94.139,2.558,2.558,0,0,0,1.141-.239,11.173,11.173,0,0,0-1.59-2.895c-1.161-1.579-3.675-2.04-4.136-3.421a1.618,1.618,0,0,0-1.536-1.422m-637.7-.082a13.778,13.778,0,0,0-1.548.1,30.308,30.308,0,0,0-5.937,1.1c-1.83.525,0.665,1.711,1.273,3.467s0.708,0.657-.514,2.588-0.522,2.632-1.367,4.079-3.1,3.38-2.4,4.344,2.968,1.536,3.911,2.283c0.8,0.632,1.6,1.835,2.854,1.835a2.239,2.239,0,0,0,.717-0.124,18.691,18.691,0,0,0,3.44-1.579c1.18-.614,2.167-1.317,2.118-2.853-0.042-1.42-.087-2.162.285-2.162a0.391,0.391,0,0,1,.1.014,3.965,3.965,0,0,0,1,.359,0.651,0.651,0,0,0,.6-0.536,9.248,9.248,0,0,1,1.838-3.115c0.794-.79,3.1-1.581,4.185-2.5s2.924-1.931,3.439-2.721-0.944-1.4-1.836-1.754-1.926-1.754-4-1.754a6.83,6.83,0,0,0-3.042,1.056c-0.063,0-.086-0.053-0.069-0.181,0.1-.7-1.41-1.052-2.255-1.361a6.5,6.5,0,0,0-2.785-.581m51.7-.166c-2.028,0-5.075,1.772-4.942,2.415,0.142,0.658,1.651.4,3.06,1.187s1.839,0.7.424,2.938a1.437,1.437,0,0,1-1.048.866c-0.765,0-1.247-1.493-1.585-1.746s-0.247-.63-0.6-0.63a2.1,2.1,0,0,0-.813.281c-1.279.638-2.205,1.4-.044,2.5s2.869,2.018,4.329,2.94c1.2,0.757,1.828,2.67,3.715,2.67a3.958,3.958,0,0,0,1.42-.3c3.054-1.185,4.284-2.59,4.713-3.819s-0.429-1.493-1.18-2.635c-0.658-.987-0.885-1.482-1.945-1.482a4.991,4.991,0,0,0-.552.035c-1.558.175-2.075,0.175-2.075,0.175a8.729,8.729,0,0,1,2.733-2.149c1.7-.834.28-1.4,1.081-2.193,0.617-.609-0.917-0.982-2.214-0.982a4.464,4.464,0,0,0-1.034.1,3.209,3.209,0,0,1-.8.115c-0.595,0-1.022-.227-2.5-0.289l-0.144,0m418.509-1.306v6.941a19.873,19.873,0,0,0,1.635-6.73s-0.675-.094-1.635-0.211M210.218,71.9a5.91,5.91,0,0,0-.689.039c-2.341.279,1.409,4.561,4.42,4.738q0.248,0.014.492,0.014a15.39,15.39,0,0,0,5.724-1.506c0.625-.165-6.095-3.284-9.947-3.284m-11.4-.452c-3.021,0-5.694.6-6.518,2.946a126.4,126.4,0,0,0-3.77,14.655c-0.186,1.667,5.651,4.125,9.7,4.3,1.776,0.077,4.041.171,5.914,0.171,2.4,0,4.152-.154,3.414-0.7-1.155-.841-0.442-1.349,2.259-1.349q0.594,0,1.317.033,0.456,0.021.849,0.021c2.972,0,3.292-.875,3.292-1.6,0-.136.02-0.2,0.066-0.2a15.321,15.321,0,0,0,3.231,2.566c2.633,1.4,4.9,5.353,7.253,7.633s7.625,5.354,6.587,7.11,1.131,7.9-6.973,9.3-8.562.439-8.469,2.281,0.465,2.633,3.669,2.633c2.345,0,5.344-1.41,7.373-1.41a2.089,2.089,0,0,1,1.762.708,9.634,9.634,0,0,0,4.9,3.07c1.316,0.44-1.6,1.228-2.353,1.493s1.6,0.527,6.217,2.72a19.331,19.331,0,0,0,7.14,1.886c1.119,0,1.451-.339.292-1.009-2.727-1.579-4.043-4.474-5.273-5.44-0.419-.331-0.562-0.456-0.481-0.456,0.154,0,1.131.46,2.556,0.806a13.7,13.7,0,0,1,5.085,3.072,0.881,0.881,0,0,0,.54.252c0.605,0,1.009-1.166,1.528-3.587,0.658-3.072-.28-3.072-3.955-5.528s-4.8-4.386-5.18-6.142,1.887-2.106,2.831-3.336a0.615,0.615,0,0,1,.512-0.259c1.178,0,3.327,2.747,4.853,4.471,1.345,1.517,2.527,3.876,3.632,3.876a1.353,1.353,0,0,0,1.075-.891,32.118,32.118,0,0,0,2.726-9.566c0-1.315-1.409.087-7.433-2.9s-9.132-4.124-9.7-4.124,1.6-1.142,4.24-2.458,3.763-1.139-1.888-6.494-7.253-6.492-10.922-6.845-4.707-4.212-7.345-5.526a3.919,3.919,0,0,0-1.744-.34c-2.981,0-7.338,2-8.806,2.358a11.554,11.554,0,0,1-1.326.384c-0.45,0-.781-0.513-2.157-2.488-2.254-3.25-4.042-5.617-4.042-5.617-1.968-.184-4.312-0.491-6.478-0.491M182.338,70.9a9.153,9.153,0,0,0-2.447.269c-2.123.623-2.862,2.1-2.576,2.631a2.134,2.134,0,0,0-.752-0.154,1,1,0,0,0-1.049,1.011c-0.216,1.545-1.168,3.883-.776,4.968a28.039,28.039,0,0,1,.453,7.469c-0.28,1.085-1.832.4-1.832,2.337a39.433,39.433,0,0,0,.386,6.121c0.285,1.35,1.377,1.579,2.967,1.678s3.074-.064,3.354.756c0.061,0.175.1,0.292,0.128,0.367-0.181.052-2.263,0.666-2.636,1.642-0.362.957,0.3,0.987,0.381,0.987H178c0.323,0,1.941.107,0.8,2.338-1.273,2.468-3.285,2.007-3.639,2.3s-0.174,1.942-.174,2.172l0.528,2.337a14.223,14.223,0,0,1-3.042-2.436c-0.6-.922.6-2.8,0.6-3.157s-2.855-.758-3.669-0.824c-0.062,0-.123-0.008-0.184-0.008-0.747,0-1.46.4-2.114,2.017-0.606,1.5.232,2.152-1.721,2.152-0.3,0-.678-0.016-1.135-0.047-3.39-.231-2.122-0.034-5.159-0.264s-3.354-.922-5.117-1.121-2.335-2.8-4.378-3.059a4.5,4.5,0,0,0-.556-0.036c-1.718,0-2.82,1.069-4.354,1.813-1.7.823-.777,0.659-0.213,1.612s0.286,1.283.565,1.942a7.771,7.771,0,0,1,.529,3.588c-0.232.921,0.554,1.957,0.284,1.957a0.23,0.23,0,0,1-.074-0.016c-0.459-.164-1.408-0.955-2.607-2.962s-1.981-2.8-3.254-2.8-5.4.854-7.693,0.92c-0.142,0-.285.007-0.428,0.007a25.161,25.161,0,0,1-5.855-.83c-1.591-.394,1.515-0.855,2.75-1.48s0-1.812-1.658-2.7a2.612,2.612,0,0,0-1.251-.358,3.02,3.02,0,0,0-.784.126,2.859,2.859,0,0,1-.74.126,1.7,1.7,0,0,1-.54-0.09c-1.206-.4-5.477-0.857-6.892-1.416-1.361-.539-5.842-2.179-7.519-2.179-0.063,0-.121,0-0.175.007a4,4,0,0,0-1.378.166s0.67,0.953-.64,1.381a8.083,8.083,0,0,1-2.083.518,0.979,0.979,0,0,1-.351-0.056c-0.423-.167.18-1.381-0.528-1.68a0.712,0.712,0,0,0-.28-0.059,1.747,1.747,0,0,0-1.2,1.277,0.835,0.835,0,0,1-.6.727,0.71,0.71,0,0,1-.279-0.068c-0.46-.2-5.438-5.3-5.438-5.3s-0.424.823-1.237,2.4-0.526.922-3.669,2.4a54.77,54.77,0,0,1-6.142,2.631,0.247,0.247,0,0,1-.065.011c-0.407,0,3.739-2.488,5.852-3.663,1.7-.951,1.5-1.479.627-1.479a3.506,3.506,0,0,0-.876.129c-1.484.4-5.862,3.292-7.346,3.917a2.924,2.924,0,0,1-1.163.278c-0.63,0-1.109-.278-2.264-0.278-1.726,0-1.478,3.389-4.272,3.752,0,0-4.588-1.907-7.129-2.632s-15.182-.922-15.182-0.922-14.908-.463-15.467-0.924-0.851-2.366-2.546-2.366c-1.35,0-4.422.251-5.959,0.251a3.835,3.835,0,0,1-.815-0.055,5.079,5.079,0,0,0-1.845-.726,2.658,2.658,0,0,0-1.546.594c-1.837,1.317-6,2.763-9.462,4.344s-4.52,4.41-5.726,5.925-3.036,2.04-4.024,3.552,2.615,2.239,2.826,3.16a3.744,3.744,0,0,0,1.342,2.5c0.844,0.528,4.52.594,4.52,0.594s-0.5.395,1.763,1.777c0,0-3.385,2.968-5.136,2.968a1.388,1.388,0,0,1-.16-0.009A6.347,6.347,0,0,1,8,123.756s-4.378,2.434-5.085,2.763-0.137,1.052.564,1.712,0.285,1.183.213,2.039c-0.046.574,1.146,0.91,2.533,0.91a8.176,8.176,0,0,0,2.054-.253c1.982-.525,5.155-2.039,6.638-2.236a2.552,2.552,0,0,1,.34-0.023c1.243,0,1.716.985,0.933,1.469-0.844.528-1.2,0.79-1.2,0.79s2.118,2.371,1.484,3.029a4.132,4.132,0,0,1-2.335,1.383,18.465,18.465,0,0,0-5.507,1.974c-1.267.855-2.4,1.248-3.178,2.763s0.638,3.225.638,5.2,1.975,3.092,3.391,3.355a7.916,7.916,0,0,0,1.425.094H11.3l0.362,0a2.962,2.962,0,0,1,2.055.436c0.64,0.724-.422,2.238.566,2.962a1.169,1.169,0,0,0,.7.187,7.489,7.489,0,0,0,1.88-.388,7.563,7.563,0,0,1,1.815-.386,1.157,1.157,0,0,1,.406.062,7.761,7.761,0,0,0,2.575.4,8.77,8.77,0,0,0,2.653-.4,4.075,4.075,0,0,1,1.134-.244c0.755,0,.451.7-0.289,1.889a34.731,34.731,0,0,1-3.458,5.133,11.17,11.17,0,0,1-.924.893h4.269c1.849-1.685,6.629-5.351,8.091-7.21,1.553-1.976-.5-0.856,1.341-3.885a19.338,19.338,0,0,1,5.222-5.923c1.775-1.429,4.382-2.952,5.235-2.952a0.23,0.23,0,0,1,.281.189c0.067,0.789-.566.919-2.118,1.843-1.383.817-1.089,1.063-.462,1.063,0.079,0,.164,0,0.251-0.011,0.128-.011.238-0.018,0.321-0.018,0.418,0,.2.182-1.459,1-1.974.987-2.329,1.448-2.961,3.029a12.27,12.27,0,0,0-.707,3.29c-0.056.254,0.143,0.39,0.517,0.39a5.894,5.894,0,0,0,2.805-1.115c1.906-1.25,5.364-4.08,6.073-5.725,0.582-1.367,1.414-2.369,2.532-2.369a2.164,2.164,0,0,1,.721.131c1.478,0.527,4.372,3.026,5.221,3.293a3.2,3.2,0,0,0,.845.08c1.263,0,3.241-.279,3.464-0.279,0.28,0,11.221,3.552,12.356,4.344s4.589,4.606,4.733,5.33,2.327,3.621,2.962,3.819a8.366,8.366,0,0,1,3.036,1.682H207.429c0.45-.813-1.577-0.916-1.577-0.916s-0.26-.867-2.552-1.2-4.34-.132-5.507-1.283a27.928,27.928,0,0,0-6.744-4.41,8.651,8.651,0,0,0-2.8-.576,2.6,2.6,0,0,0-1.973.71,1.123,1.123,0,0,1-.795.435c-0.613,0-1.15-.794-1.782-1.754-0.881-1.347-2.191-4.9-3.352-5.627s-3.956-.789-4.695-1.283,0.914-2.829,1.2-4.772a10.815,10.815,0,0,1,1.62-4.571c0.707-.99,2.93-4.18,3.533-5a2.749,2.749,0,0,1,2.26-1.283c1.3-.229,2.932-0.428,1.944-1.25a4.841,4.841,0,0,0-2.825-1.186,5.092,5.092,0,0,1-2.049-.988c-0.1-.045-0.083-0.064.022-0.064,0.239,0,.937.1,1.789,0.192a26.135,26.135,0,0,0,2.714.19,7.23,7.23,0,0,0,.95-0.053c1.975-.265,2.609-1.121,3.671-1.251a1.912,1.912,0,0,1,.228-0.013,5.086,5.086,0,0,1,.616.052,5.179,5.179,0,0,0,.641.052,2.282,2.282,0,0,0,2.042-1.407c1.273-2.106,2.333-4.08,2.333-4.08a12.538,12.538,0,0,1-1.989.146,11.363,11.363,0,0,1-3.375-.476,33.256,33.256,0,0,1-5.9-2.829s4.88,0.3,5.861.361,2.44,0.066,3.992.231a10.028,10.028,0,0,0,1.025.073,2,2,0,0,0,1.98-1.356c0.776-1.448-1.1-1.384-1.8-1.647s1.3-1.054,2.192-1.248a2.009,2.009,0,0,1,.441-0.05,1.325,1.325,0,0,1,1.323.738,0.184,0.184,0,0,0,.206.164,12.014,12.014,0,0,1,2.227-.391,6.659,6.659,0,0,0,4.627-1.681c1.377-1.282,2.508-2.368,1.625-3.947a18.263,18.263,0,0,1-1.732-3.818,1.069,1.069,0,0,1,.95-1.251s1.876-.2,1.342-1.514,0.5-1.613-1.124-2.435-1.769-1.876-4.8-2.106c-1.242-.094-2.218-0.248-2.886-0.248-0.968,0-1.288.325-.828,1.631a12.725,12.725,0,0,0,1.379,3.093s-0.776.527-1.876,1.185-0.559,1.316-.031,2.632-1.8,1.579-1.912,1.646,1.348,2.665.323,2.961a3.54,3.54,0,0,1-.817.2,4.828,4.828,0,0,1-1.549-.632,13.429,13.429,0,0,1-2.614-1.251c-0.919-.658-1.025-1.447.037-3.158s0.92-2.567.7-3.193-2.116-2.37-2.681-2.37-0.777.691-1.057,1.974a16.988,16.988,0,0,1-1.875,4.344,0.142,0.142,0,0,1-.083.025c-0.31,0-.873-0.881-0.942-1.9-0.067-1.12.392-1.777-.21-2.831a2.034,2.034,0,0,1,.074-2.04s-1.625-.229-2.825-0.3a2.5,2.5,0,0,1-1.77-.492c-0.422-.3,1.59-1.909,1.206-3.852s-2.049-2.3-2.224-4.409-3.5-3.028-3.5-3.028a10.481,10.481,0,0,1,.808-2.6c0.5-.855-0.67-3.52-0.67-3.52a11.244,11.244,0,0,0,1.4.082c1.232,0,2.968-.192,3.862-1.167,1.489-1.611.849-3.885,1.837-5.168s1.347-1.317,1.347-1.317a26.381,26.381,0,0,0-3.7-.3M582.554,70v0.7a0.642,0.642,0,0,0,0-.7m181.663-2.028a1.822,1.822,0,0,0-1.711,1.485c0.037,0.768,3.535,2.928,4.8,3.553a3.646,3.646,0,0,0,1.721.382c0.781,0,1.746-.153,3.229-0.317,2.681-.3,2.894-1.448,3.209-2.106s-1.273-.427-3.068-0.789a5.754,5.754,0,0,0-1.135-.108,10,10,0,0,0-1.3.1,8.724,8.724,0,0,1-1,.1,1.066,1.066,0,0,1-.488-0.091c-0.634-.329.956-0.659-0.634-1.25a3.167,3.167,0,0,0-1.1-.226,2.065,2.065,0,0,0-.661.108,1.542,1.542,0,0,1-.4.108,0.263,0.263,0,0,1-.166-0.056,1.853,1.853,0,0,0-1.2-.891,0.846,0.846,0,0,0-.09,0m-609.634-3.13a3.444,3.444,0,0,0-1.056.186l-0.075.03a2.041,2.041,0,0,0-1.011,1.7c-0.016.211,0.107,0.3,0.348,0.3a9.141,9.141,0,0,0,2.172-.606c1.294-.451,1-1.609-0.378-1.609M121.15,62.881a18.058,18.058,0,0,0-4.158,3.241c-0.408.62,0.028,0.74,0.724,0.74,0.313,0,.679-0.024,1.045-0.038,1.173-.043,1.409-2.193,2.4-3.881,0.024-.042.021-0.061-0.008-0.061M744.2,62.1c-1.185,0-2.045,1.1-3.515,2.555-1.659,1.645-.709,2.108,1.3,4.542,1.278,1.548,2.1,2.166,2.95,2.166a3.17,3.17,0,0,0,1.571-.553c1.252-.734,1.264-1.274,1.736-1.274a1.719,1.719,0,0,1,.591.154,2.9,2.9,0,0,0,.992.129,29.285,29.285,0,0,0,4.342-.589c0.127,0-.164,1.746.986,1.746a1.7,1.7,0,0,0,.535-0.1c1.758-.591,3.385-0.891,4.2-1.778s1.378-1.579,1.378-1.579-1.8-1.085-4.521-2.8-3.743-2.172-4.661-2.3a1.062,1.062,0,0,0-.144-0.011c-0.762,0-.647,1.014-0.988,1.822a0.67,0.67,0,0,1-.561.582,4.592,4.592,0,0,1-1.45-.582c-1.409-.691-2.825-1.744-4.272-2.075A2.109,2.109,0,0,0,744.2,62.1m-567.177-.417a2.655,2.655,0,0,0-1.275.365,11.6,11.6,0,0,0-3.112,2.522c-0.752.855-.094,0.966,1.862,1.952a7.159,7.159,0,0,0,3.1.839,2.409,2.409,0,0,0,1.866-.687c0.788-.886-0.089-4.992-2.437-4.992M154.55,56.623a3.379,3.379,0,0,0-1.731.679c-0.447.22,0.237,0.723,0.54,1.666s0.049,1.253,1.839,1.385c0.243,0.018.462,0.027,0.661,0.027,1.265,0,1.685-.38,1.81-1.367,0.142-1.139-1.366-1.994-2.5-2.3a2.348,2.348,0,0,0-.622-0.087M141.9,56.582c-0.607,0-1.115,1.069-2.242,2.322-1.458,1.624-.285,2.238,1.175,2.94s2.5,2.5,1.793,2.985a1.3,1.3,0,0,1-.787.2c-0.21,0-.452-0.02-0.744-0.04s-0.635-.04-1.047-0.04a14.293,14.293,0,0,0-1.613.1,7.347,7.347,0,0,1-.832.052c-1.845,0-1.845-.925-2.514-1.237-0.752-.35,1.273-1.094-1.6-2.28a8.978,8.978,0,0,0-2.945-.967c-0.2,0-.386.031-0.682,0.045-1.334.063-1.925,0.264-4.142,1.229s-3.153,3.465-3.669,4.826,0.236,1.361,2.26,2.151a4.168,4.168,0,0,0,1.511.27,4.21,4.21,0,0,0,4-2.378,0.845,0.845,0,0,1,.547-0.716c0.465,0,.816,1.419.541,2.12-0.125.317-.015,0.436,0.218,0.436a6.64,6.64,0,0,0,2.042-.788,13.453,13.453,0,0,1,3.576-.614,12.944,12.944,0,0,1-4.291,2.458,30.978,30.978,0,0,1-4.613,1.227c-0.609.088,0.571,1.01,3.155,1.537a4.037,4.037,0,0,0,.8.082c2.15,0,3.743-1.813,7.065-3.067,2.762-1.042,3.37-1.456,4-1.456a2.745,2.745,0,0,1,.755.14,1.99,1.99,0,0,0,.555.076c1.065,0,2.209-.742,3.492-1.043,1.5-.35,2.118.222,2.782-2.018s1.833-4.387-.285-4.519c-0.4-.024-0.731-0.044-1-0.044-1.177,0-1.31.369-1.542,2.327a2.371,2.371,0,0,1-.314,1.376,0.837,0.837,0,0,1-.159-0.455s-1.409-2.1-2.26-3.2-1.458-2.806-2.4-3.728a0.866,0.866,0,0,0-.584-0.3m-11.241,0a5.952,5.952,0,0,0-2.066.549c-0.968.436-.968,0.768,0.609,0.941a4.377,4.377,0,0,0,.482.028c1.283,0,1.984-.623,1.685-1.21a0.723,0.723,0,0,0-.71-0.309m37.263-1.012c-0.079,0-.163,0-0.253,0-1.72.045-2.894,0.638-4.309,0.638s-2.025.264-.987,0.789a4.47,4.47,0,0,1,1.669,1.756,3.754,3.754,0,0,1,.426,1.949l-2.351-1.928c-0.857-.625-1.375-1.16-2.085-1.16a1.834,1.834,0,0,0-.7.153c-1.124.46-.186,1.03-0.186,1.338s1.365-.045,1.39.7,0.442,1.054-1.2,1.142-2.1.021-2.732,0.5,1.229-.065,1.795.683a2.042,2.042,0,0,0,1.785.711,8.916,8.916,0,0,0,1.318-.119c1.578-.241,3.72-0.591,3.72-0.591a12.66,12.66,0,0,0-1.627,1.862,1.736,1.736,0,0,0,.169,2.413,0.754,0.754,0,0,0,.424.152c0.523,0,.943-0.73,2.78-0.766,2.278-.043,2.961-1.227,2.961-1.227a2.158,2.158,0,0,1-.447-1.645,4.392,4.392,0,0,0-.025-1.406l1.13,0.924s-0.161-.681-0.49-1.91-0.069-1.317-.43-2.985c-0.335-1.579-.284-1.977-1.745-1.977M123.892,53.2a3.228,3.228,0,0,0-2.455,1.142c-0.465.571-1.316-.352-5.929,3.335-2.36,1.884-2.825,3.378-4.657,4.564s-1.415,2.193-.8,2.848a1.053,1.053,0,0,0,.8.27,6.384,6.384,0,0,0,2.494-.752c0.662-.341,1.235-1.081,1.7-1.081a0.464,0.464,0,0,1,.372.205,0.244,0.244,0,0,0,.2.1c0.735,0,2.566-2.43,3.33-3.3a7.6,7.6,0,0,1,2.386-1.931l0.018,0c0.236,0.043-.808,1.142-0.43,2.061a1.153,1.153,0,0,0,1.143.644,3.567,3.567,0,0,0,2.436-1.257c1.507-1.579.141-3.027,1.321-4.256s2.16-1.054-.143-2.152a4.143,4.143,0,0,0-1.786-.439m48.8-.2c-0.993,0-.528.461,0.5,2.141,0.777,1.281,1.128,1.929,2.193,1.929a5.227,5.227,0,0,0,1.227-.186,10.208,10.208,0,0,1,2.383-.4,3.46,3.46,0,0,1,3.02,1.746c1.552,2.24,2.366,2.931,1.093,3.752s-0.671,2.139.075,3.851c0.685,1.586,2.191,1.644,4.293,1.644h0.507c2.364,0,17.335-.228,19.67-0.657s4.408-2.4,5.651-3.29,1.906-2.271.211-3.292a13.073,13.073,0,0,0-6.006-1.974c-1.911,0-3.532.988-6.425,1.283s-2.26,1.681-4.875,1.745c-1.673.041-1.754,0.528-2.438,0.528a6.377,6.377,0,0,1-2.119-.628c-3.21-1.314-5.576-2.961-4.055-3.19s2.75-.428,1.907-1.151c-0.8-.687-2.175-2.489-4.29-2.489-0.122,0-.247.006-0.374,0.019-1.278.127-1.7,0.287-2.2,0.287a8.617,8.617,0,0,1-2.43-.617A27.267,27.267,0,0,0,172.689,53m-43.647-3.149a3.171,3.171,0,0,0-1.339.32c-0.745.341-1.012,0.349,0.54,0.943a6.525,6.525,0,0,0,2.188.435c0.575,0,.931-0.131.823-0.37a2.527,2.527,0,0,0-2.212-1.329m21.3-.184a1.4,1.4,0,0,0-.61.153c-0.435.21-.28,0.9,0.1,1.711s0.47,0.614,1.266.922a6.053,6.053,0,0,1,1.787,1.139,0.326,0.326,0,0,0,.2.13,0.917,0.917,0,0,0,.443-0.657c0.329-.79-0.168-0.655-1.062-1.71-0.722-.852-1.319-1.688-2.121-1.688m-10.132-1.28a23.87,23.87,0,0,0-3.587.4c-1.036.172-4.1,1.25-4.266,1.774a4.213,4.213,0,0,0,.5,2.568,1.033,1.033,0,0,0,1.029.778,10.306,10.306,0,0,0,2.244-.448c2.638-.7,4.452-2.063,3.576-2.305a18.612,18.612,0,0,0-2.186-.744c-0.776-.111.684-0.527,2.422-1.075,1.209-.38,1.864-0.95.271-0.95m47.27-1.3c-0.967,0-3.373,1.415-7.194,1.543-2.819.1-7.059,1.1-4.707,1.141,1.923,0.037,3.564.365,6.181,0.365,0.587,0,1.224-.017,1.923-0.057,3.813-.22,4.185-0.482,4.278-2.326,0.024-.485-0.136-0.666-0.481-0.666m472.2-.474c-2.473,0-4.514.4-5.72,2.767s4.167,2.037-4.165,4.012-13.487,1.778-17.939,2.437-13.562.789-13.207,4.277,5.017,8.424.285,8.556-10.878.461-13.138,0.461a27.816,27.816,0,0,1-2.984-.37c-0.34,0-.469.149-0.332,0.634,0.353,1.248,1.129,4.54,1.553,5.856s1.34,0.265,2.681,1.121a5.6,5.6,0,0,1,2.471,2.961c0.5,1.25.708,1.385-.7,1.448-0.061,0-.121,0-0.181,0-1.325,0-2.4-.7-6.463-1.649-2.666-.622-3.6-1.269-4.643-1.269a4.961,4.961,0,0,0-2.342.81c-2.895,1.578-2.05,2.366.845,3.223,2.507,0.744-1.19.793-3,.793h-0.671c-1.2,0-2.049-1.515-1.484-4.082A9.263,9.263,0,0,0,590.4,74a7.689,7.689,0,0,1-1.694,3.885c-1.621,2.17-.639,4.672-0.355,7.173s-0.913,5.66-.913,7.964c0,1.014.834,1.1,1.99,1.1l0.35,0,0.377,0a5.532,5.532,0,0,1,4.2,1.341c2.615,2.633,3.037,7.043,3.037,7.239q0,0.006,0,.006c-0.085,0-2.161-4.508-4.306-5.732a3.005,3.005,0,0,0-1.466-.473c-1.09,0-1.667,1-2.7,1.723-1.409.988,0.641,3.031,0.776,4.344s-3.668,4.081-5.365,5.464c-1.334,1.088-.96,1.6-1.777,1.614v49.627h155.2q0.276-.256.6-0.562c2.615-2.5,5.507-3.1,7.842-5.792s7.693-7.439,8.475-8.428c0.62-.787.611-1.281,2.055-1.281a12.628,12.628,0,0,1,1.4.1c2.892,0.33,6.991.592,7.911,0.79,0.73,0.158.833,1.064,1.768,1.064a2.535,2.535,0,0,0,.913-0.208c1.458-.576,1-1.443,2.31-1.443a7.169,7.169,0,0,1,1.428.192c3.112,0.657,6.644,1.052,5.228,1.513s-2.682.924-.278,1.12c1.072,0.088,2.669.176,4.031,0.176,1.681,0,3-.135,2.538-0.571-0.851-.791-2.335-0.394.28-3.686a14.219,14.219,0,0,1,8.618-5.265c2.893-.594,3.533-0.461,5.084-1.381a1.473,1.473,0,0,1,.713-0.252c0.8,0,.685,1.43.343,2.818-0.176.713,0,1.061,0.421,1.061,0.583,0,1.632-.678,2.826-1.983,1.754-1.914,2.057-2.624,3.746-2.624,0.285,0,.609.02,0.987,0.058l2.613,0.262a6.332,6.332,0,0,0-2.757,1.185c-1.056.921,1.559,2.895-3.247,6.187-14.827,10.165-.508,3.826-16.313,11.189-1.483.691-1.355,3.27-1.252,5.763h16.141l1.641-6.161c0.51-1.657-10.593-1.227,5.5-9.409a6.9,6.9,0,0,1,2.832-.791s-0.3,2.163.359,2.163a0.445,0.445,0,0,0,.2-0.055c0.755-.377,1.361-1.672,3.474-1.672a7.133,7.133,0,0,1,1.686.225,35.768,35.768,0,0,0,3.674.944,1.607,1.607,0,0,0,1.057-.487,56.178,56.178,0,0,1,9.742-5.067c3.3-1.345,3.752-2.559,5.861-2.559a9.061,9.061,0,0,1,1.7.191,13.461,13.461,0,0,0,2.506.291c1.383,0,1.524-.422,1.524-0.422a17.808,17.808,0,0,1-1.839-3.62c-0.64-1.843-3.744-4.082-3.744-4.082s4.867-.593,6.426-1.512,1.342-3.817,2.546-3.884l1.2-.066s-0.565,2.567,1.409,2.567c0.517,0,1.072-.027,1.625-0.027,1.566,0,3.116.216,3.741,1.87,0.849,2.238,2.191,1.777,3.675,2.3S863,131.652,863,131.652a1.939,1.939,0,0,1,.218-2.041,6.911,6.911,0,0,0,.913-3.026,10.284,10.284,0,0,0,3.33.518,11.017,11.017,0,0,0,1.121-.057c2.54-.265,2.323-0.6,2.323-0.6a38.6,38.6,0,0,0-6.278-3.948c-3.39-1.644-2.689-1.051-6.638-2.895a9.036,9.036,0,0,0-1.893-.77,8.627,8.627,0,0,0-1.708-1.468c-3.676-2.831-5.084-3.093-10.1-6.251s-5.227-4.278-11.375-5.266-9.461-1.713-11.083-1.777c-0.107,0-.2-0.007-0.29-0.007-1.243,0-.554.494,0.5,2.772,1.131,2.434,1.336,2.368-1.415,2.633-0.142.013-.277,0.02-0.407,0.02-2.391,0-2.86-2.188-4.461-3.312-0.781-.543-0.8-0.685-1.142-0.685-0.183,0-.46.041-1,0.082s-1.322.08-2.529,0.08q-0.36,0-.772-0.005c-4.526-.053-3.977-0.907-4.888-0.907a4.505,4.505,0,0,0-1.049.184,8.11,8.11,0,0,1-2.059.286,22.637,22.637,0,0,1-4.648-.878c-2.967-.657-1.625-1.71-1.625-3.091s1.272-2.965-3.527-4.215c-4.036-1.051-4.636-1.868-7.313-1.868-0.51,0-1.1.029-1.8,0.093-2.984.267-4,.993-5.039,0.993a3.066,3.066,0,0,1-1.673-.6c-2.185-1.38-1.273-3.947-6-6.12s-3.738-1.976-6.849-2.83-1.342-.856-6.849-2.3c-3.345-.879-5.075-1.54-6.3-1.54a2.654,2.654,0,0,0-2.035.949c-1.694,1.709-1.626,1.577-.707,3.224s1.763,2.7-.919,3.29a12.056,12.056,0,0,1-2.616.313,11.539,11.539,0,0,1-3.6-.644,13.878,13.878,0,0,0-4.029-.611,10.908,10.908,0,0,0-2.534.283,1.854,1.854,0,0,1-.436.054,2.526,2.526,0,0,1-1.793-1.069,2.417,2.417,0,0,0-1.55-1.069,1.406,1.406,0,0,0-.742.242c-1.765,1.092-1.9,4.146-3.463,4.146a1.461,1.461,0,0,1-.424-0.067c-1.974-.593-3.6-1.054-4.24-4.276s-0.063-3.29.993-5.66-0.5-3.16-1.628-4.344-0.142-2.5-3.389-2.5-4.234.267-7.271,0.4-0.845,2.042-3.39,2.436a35.337,35.337,0,0,1-5.169.284c-1.211,0-2.415-.021-3.518-0.021-2.751,0-5.439-.526-3.179-2.3s3.179-1.777-3.03-1.777-4.1-.33-6.079-0.33-3.247-.986-5.856-1.25a9.673,9.673,0,0,0-.969-0.048c-2.357,0-5.023.8-9.487,1.956-2.75.712-4.2,1.193-4.568,1.193-0.315,0,.149-0.346,1.253-1.193,2.4-1.843,1.334-3.29,5.718-6.053s6.209-2.766,9.251-5.134,3.813-1.974,3.106-4.542-1.063-2.106-3.037-3.95-3.391-2.434-6.991-3.027c-1.885-.31-3.151-0.6-3.829-0.6-0.617,0-.747.242-0.413,0.933,0.709,1.447,3.322,1.841-1.054,1.841s-6.285-1.448-4.024-2.236,3.389-.723-0.92-1.645-1.552-2.3-.633-2.635-1.347-.789-3.818-0.789M140.975,43.892a24.379,24.379,0,0,0-7.2,1.961,4.3,4.3,0,0,0-2.144,2.061c-0.071.09-.033,0.127,0.079,0.127a25.721,25.721,0,0,0,2.512-.654,1.98,1.98,0,0,1,.467-0.056,3.171,3.171,0,0,1,.323.02,2.793,2.793,0,0,0,.287.021,1.359,1.359,0,0,0,.946-0.446,1.8,1.8,0,0,1,1.238-.358c0.31,0,.645.031,0.994,0.061s0.706,0.061,1.068.061a4.5,4.5,0,0,0,.967-0.094c1.595-.35,1.856-1.4,1.5-2.323a1.028,1.028,0,0,0-1.039-.382m27.831-3.271c-1.9,0,3.464,4.318,2.821,4.651-0.708.359-2.471,0.425-1.161,1.51,0.755,0.629.954,0.905,1.309,0.905a4.818,4.818,0,0,0,1.3-.411,13.228,13.228,0,0,0,4.28-2.632c0.2-.461-1.665-1.349-2.938-1.744s-2.148-1.416-4.8-2.139a3.283,3.283,0,0,0-.809-0.141m-13.8-2.428a11.414,11.414,0,0,0-2.239.561c-1.69.427-2.236,1.64-2.894,2.172-1.342,1.087,3.464.689,5.017,1.217s1.944,0.922.21,1.382c-1.584.422-2.84,1.476-1.717,1.476a2.888,2.888,0,0,0,.377-0.029,7.936,7.936,0,0,1,1.043-.068,28.651,28.651,0,0,1,4.389.6c2.229,0.362,2.05.13,3.037,1.383a2.537,2.537,0,0,0,2.128,1.1,6.366,6.366,0,0,0,1.442-.208c1.516-.364,1.726-0.461.745-1.548s-2.018-3.093-3.359-3.883c-1.266-.745-2.346-1.786-3.592-1.787-0.072,0-.146,0-0.219.011-0.316.031-.575,0.056-0.8,0.056-0.736,0-1.132-.266-2.024-1.473a1.873,1.873,0,0,0-1.542-.955M656.7,33.806c-1.366.265-2.5,1.625-3.3,2.81a21.282,21.282,0,0,1-3.391,3.772c-0.987.79-.707,1.011,0.9,1.582a2.414,2.414,0,0,0,.806.123c1.61,0,3.743-1.139,4.422-1.177h0.041a2.894,2.894,0,0,1,1.127.465,4.231,4.231,0,0,0,2,.463,6.55,6.55,0,0,0,.784-0.05c2.54-.309,6.4-0.79,4.522-2.151a39.113,39.113,0,0,1-3.3-2.368,9.082,9.082,0,0,0-4.706-1.8s4.284-1.448,3.248-1.535-3.155-.135-3.155-0.135M165.421,32.378a10.934,10.934,0,0,0-2.785.772c-2.881.9-2.168,1.492,1.224,2.983a7.147,7.147,0,0,0,2.435.764c0.964,0,.921-0.936.676-2.784-0.18-1.332-.784-1.736-1.55-1.736m14.6-9.884c-0.076,0-.152,0-0.23.006-1.907.1-2.719,1.215-4.551,3.519s-3.322,4.245-1.242,4.476a15.477,15.477,0,0,0,1.814.085h0.187c0.7,0,1.056.022,1.14,0.41,0.144,0.655-.353,1.117-3.458,1.117s-2.154.691-.422,2.732c1.006,1.185,1.486,1.448,2.23,1.448,0.537,0,1.212-.138,2.321-0.166,2.052-.051,3.045-0.635,4.405-0.635a5.246,5.246,0,0,1,1.32.176c2.185,0.558,2.857,1.118.882,1.71s-6.644,1.711-5.582,2.7,4.347,3.356,5.831,3.587a2.326,2.326,0,0,0,.364.03,4.01,4.01,0,0,0,1.4-.362,5.878,5.878,0,0,1,2.124-.361,10.092,10.092,0,0,1,1.118.067c1.692,0.191,2.279.373,2.506,0.373,0.205,0,.117-0.148.282-0.569,0.354-.888,2.125-3.158,2.471-3.983s1.242-1.347,3-1.743,2.329-.954.672-1.548-3.535-.856-3.353-1.316,1.2-1.81.49-2.5-1.832-.659-2.757-1.019-1.938-2.04-3.1-2.763-2.185-.79-3.6-1.877c-1.369-1.055-3.546-3.591-6.264-3.591M639.7,19.329c-1.18.615-.193,0.745-0.709,1.184s-3.532.175-5.084,2.632-2.634.747-3.44,2.238a31.162,31.162,0,0,0-1.46,3.291,4.449,4.449,0,0,0,2.755,1.545c0.056,0,.113,0,0.169-0.007,0.123-.011.254-0.017,0.39-0.017a6.711,6.711,0,0,1,5.212,2.56c1.458,2.018,2.54,2.018,6.073,2.588,3.032,0.489,2.278.915,3.169,0.915,0.147,0,.339-0.012.6-0.037,1.831-.178,4.371.219,3.813-0.7a3.967,3.967,0,0,1-.753-3.29c0.231-1.8,1.876-1.713-.049-2.9a3.75,3.75,0,0,0-1.984-.6,3.383,3.383,0,0,0-.807.1c-0.2.05-.34,0.1-0.392,0.1-0.024,0-.031-0.01-0.021-0.034,0.1-.22,1.746-0.88,1.088-0.924s-3.913-.217-4.286-2.06,0.889-1.977,1.547-2.108,0.477-.352-1.411-1.711a51.691,51.691,0,0,0-4.42-2.763m-10.211-.822c-1.55,0-3.072,1.4-4.759,1.457-1.913.066-4.03,0.132-2.26,0.724,1.388,0.465,1.244,2.4,2.774,2.4a3.993,3.993,0,0,0,1.671-.491c3.391-1.647,2.683-1.778,5.016-2.765s0.982-.514-1.836-1.248a2.411,2.411,0,0,0-.606-0.076M284.4,9.7a30.816,30.816,0,0,0-8.111,1.187,32.591,32.591,0,0,1-8.824,1.91c-4.1.195-8.756,3.551-11.09,5.131s-9.6,5.791-11.437,6.779-1.131,1.448.844,1.976,4.1,0.855,4.1.855-1.273,5.264-6.352,6.712a135.6,135.6,0,0,0-14.833,5.791c-0.43.264,0.563,3.158,1.83,4.607s2.473,2.434,3.6,3.883,3.111,1.316,4.664,2.83a3.842,3.842,0,0,0,3.2,1.091c0.379,0,.8-0.011,1.285-0.022s1.022-.021,1.636-0.021q0.382,0,.8.006c4.236,0.064,3.1.393,7.836,0.655s9.681,0.659,11.3,2.108,3.955,7.109,5.439,10.531,4.1,9.082,4.1,9.609-1.626,4.673-1.626,5.331,0.843,1.777,1.626,2.7,0.348,1.645.2,2.5,0.851,3.028.993,3.291a0.039,0.039,0,0,0,.038.02c0.323,0,2.286-2.147,3.563-2.52a1.029,1.029,0,0,1,.288-0.038c1.475,0,4.376,2.531,4.376,4.315,0,4.328,1.173,2.853-5.862,7.965-0.931.672-1.838,5.855-1.13,8.356s2.4,5.463,3.739,9.018,5.3,8.555,6.569,10.859c1.214,2.2,1.592,5.174,4.072,6.073V10.861c-0.665-.192-1.343-0.384-2.022-0.571A18.263,18.263,0,0,0,284.4,9.7M234.727,7.782a10.67,10.67,0,0,0-1.38.1c-4.707.612-11.953,0.261-14.213,0.612s1.124,1.318,2.353,2.106c0.26,0.168.145,0.225-.248,0.225-0.416,0-1.143-.064-2.069-0.128s-2.053-.128-3.264-0.128a21.483,21.483,0,0,0-5.626.646c-5.366,1.491-8.855,2.281-3.106,4.476s6.5,2.807,6.5,2.807-7.345-1.316-10.45-2.543a7.991,7.991,0,0,0-2.39-.835c-0.707,0-1.63.439-4.863,1.361-5.837,1.666-11.487,2.545-11.2,4.3s4.707,4.124,7.626,4.736a8.482,8.482,0,0,0,1.708.148,34.13,34.13,0,0,0,7.712-1.2,0.11,0.11,0,0,1,.035-0.009,21.914,21.914,0,0,1-2.4,2.377s3.013-.615,6.4-1.492,6.03-1.843,9.233-2.983a28.235,28.235,0,0,0,3.764-1.491s-5.551,4.3-9.414,5.791A42.189,42.189,0,0,1,198.227,29.2c-2.353.087-1.98,1.579,0.38,2.808s4.14,3.861,5.364,4.738a3.69,3.69,0,0,1,1.416,2.283,6.9,6.9,0,0,0-3.923-1.288,6.433,6.433,0,0,0-3.8,1.288c-4.049,2.893-3.484,4.386-2.447,4.737s4.613,0.7,5.271,1.93a0.886,0.886,0,0,0,.846.354c1.552,0,4.519-1.493,4.519-1.493s-2.347,2.983-4.613,2.983c-2.066,0-2.161-1.623-4.7-1.623a7.154,7.154,0,0,0-.756.043c-3.3.352-3.111,1.142-1.7,2.283s2.546,1.492.094,2.633-3.576,1.491-3.67,2.893,3.2,1.406,5.272,1.406,4.048-.178,7.817-0.263,3.291-1.317,4.707-1.317,2.826,0.44,2.26,1.844c-0.2.5-.188,0.708,0.093,0.708a41.6,41.6,0,0,0,4.614-1.672c4.142-1.494,2.254-3.776,1.981-4.566s-1.795-1.052-2.733-1.491,2.826-4.3,2.254-5.616,4.62-.264,6.967-3.334,1.509-5.354-.185-5.88,3.109-.175,4.613-1.055,4.8-1.93,6.121-3.6c1.079-1.366,1.591-2.026-.019-2.026a13.288,13.288,0,0,0-1.389.1c-0.275.03-.47,0.045-0.592,0.045-1.3,0,5.522-1.66,8.968-3.907,3.769-2.457,8.1-5.353,9.04-6.055a4.242,4.242,0,0,1,.751-0.412,33.174,33.174,0,0,1-3.39.325c-0.745.044-1.516,0.064-2.266,0.064-3.7,0-6.939-.473-4.508-0.766,2.918-.35,11.58-1.4,13.84-3.072a27.866,27.866,0,0,1,3.291-2.193,76.7,76.7,0,0,0-14.669-2.2,9.671,9.671,0,0,0-2.089.18,5.323,5.323,0,0,1-1.215.155,5,5,0,0,1-2.327-.694,6.365,6.365,0,0,0-2.989-.695m56.508-1.017a3.171,3.171,0,0,1-.328.1c-0.209.043-.048,0.255,0.328,0.533V6.766M526.56,354.88c-1.167,0-.6,3.305-2.067,6.552-1.788,3.949-5.557,2.019-8.569,4.913s-2.546,2.019-.286,6.055-1.874,3.6-2.918,8.339,1.224,3.859,2.447,7.9c0.692,2.272,1.174,2.876,1.866,2.876a16.163,16.163,0,0,0,2.189-.593,13.25,13.25,0,0,0,3.856-1.581,57.006,57.006,0,0,1,1.882-8.688c1.507-5.176,2.546-8.951,2.823-12.372,0.241-2.879.477-5.072,1-5.072a0.468,0.468,0,0,1,.328.246,1.783,1.783,0,0,0,.66.725c0.155,0,.184-0.411.184-1.34,0-1.668-.9-6.356-2.353-7.459a1.935,1.935,0,0,0-1.038-.5M291.235,326.321v61.537a7.9,7.9,0,0,1,1.721-2.03,22.5,22.5,0,0,1,6.991-3.622c1.695-.4,2.471-3.091,5.291-6.646a3.977,3.977,0,0,1,3.21-1.8,5.776,5.776,0,0,1,1.039.111,5.112,5.112,0,0,0,.807.11,0.6,0.6,0,0,0,.662-0.524c0.429-1.644.143-5.792,0.429-9.608s-0.707-3.688.211-4.872,1.907-2.305.851-3.619,0-.659,1.2-1.315,3.316-1.646,4.31-3.227,3.533-4.739,4.167-6.053,0.563-1.448-.5-3.225,0.286-4.279-.563-4.742a1.8,1.8,0,0,0-.84-0.158c-0.323,0-.682.038-1.047,0.076s-0.733.076-1.077,0.076a2.454,2.454,0,0,1-.849-0.124c-1.062-.4-5.085-3.75-8.265-5s-15.884-4.671-17.728-5.335l-0.019-.007m227.243-7.3H430.825c-0.347,2.179-.786,5.235-0.869,6.937-0.092,1.955-.471,1.253.231,2.414a12.466,12.466,0,0,0,1.7,2.238c0.871,1.031.709,1.338,1.6,2.28s0.211,0.575,1.247,1.429,1.267,0.33,1.739,1.644a23.508,23.508,0,0,1,1.03,4.452,15.055,15.055,0,0,0,.758,3.381c0.684,2.5.9,4.322,1.459,5.878s0.752,1.4.752,3.268a7.044,7.044,0,0,1-.441,3.4,20.458,20.458,0,0,1-2.148,3.945c-0.8,1.3-.069,1.274-0.38,3.163s-0.7,3.313-.745,4.54-0.5,2.5-.447,3.2,0.162-.113.938,1.712a19.959,19.959,0,0,0,1.882,3.616,24.394,24.394,0,0,1,1.745,3.34c0.8,1.684,1.365,3.222,1.831,4.5s0.124-.333.522,2.676,0.683,5.856.869,7.065a4.309,4.309,0,0,0,1.036,2.8c0.827,0.858,1.087.439,1.976,1.756a16.147,16.147,0,0,1,2.056,3.816,18.885,18.885,0,0,0,1.483,3.38,5.246,5.246,0,0,1,1.055,3.269c0.169,1.976-.235,2.236.311,3.337s0.727,0.985,1.925,2.3c0.94,1.034.982,1.539,1.9,1.539a5.863,5.863,0,0,0,.99-0.113c1.957-.351,3.279-0.638,6.973-1.057s0.871,0.2,4.751-1.05,4.806-.131,5.608-1.821,2.234-2.065,4.041-3.532a8.586,8.586,0,0,0,3.136-3.489c1.435-2.346,1.975-3.27,3.317-5.22s2.1-1.317,2.191-2.9a53.894,53.894,0,0,1,.211-5.552c0.286-1.335-.609-0.854,1.862-1.82s4.632-1.007,4.85-2.85,0.186-1.6.373-3.115,0.751-1.383-.043-3.139-1.46-2.983-1.764-3.928,0.272-.789,1.055-2.28,3.086-3.511,3.881-4.477,0.733-.655,2.471-1.426,4.713-1.731,5.253-3.157a29.3,29.3,0,0,0,1.435-4.036,26.6,26.6,0,0,0,.143-6.427c-0.118-2.438-.069-3.49-1.267-5.159s-0.64-.173-1.44-2.256,0.447-3.38.142-4.52-0.751-1.3-1.6-2.193,0.279-1.036.4-2.064,2.124-3.051,2.825-4.478a30.581,30.581,0,0,1,2.185-3.4c0.951-1.448,4.452-5.526,5.608-7s0.757-1.47,2.31-2.721c0.684-.553,1.712-1.318,2.739-2.112m185.544-.359a3.235,3.235,0,0,0-1.42.359h2.944a4.013,4.013,0,0,0-1.524-.359m12.381-1.894s-1.5,1.253-2.811,2.253h1.7a14.238,14.238,0,0,0,1.112-2.253m4.232-1.965a26.252,26.252,0,0,0-2.971,2.446c-0.487.458-.054,1.107,0.31,1.772h2.548a6.247,6.247,0,0,1-.034-0.628c0-1.361-.751-1.89.144-3.511,0.03-.054.028-0.079,0-0.079m-81.222-5.9c-0.369,0-.343.235,0.473,1.288a18.64,18.64,0,0,0,2.733,2.986,1.145,1.145,0,0,0,.8.372,1.657,1.657,0,0,0,.388-0.058,1.556,1.556,0,0,1,.353-0.058c0.295,0,.584.19,0.953,1.055,0.893,2.106.564,2.153,1.458,2.943,0.812,0.716,1.507.964,1.8,1.594H656.4a6.994,6.994,0,0,1-2.158-1.07c-0.652-.7-3.435-1.973-4.75-3.293s-2.781-2.364-3.2-3.331-1.744-1.756-6.073-2.325c-0.334-.045-0.618-0.1-0.8-0.1m52.747-4.369h-0.016c-0.591.009-2.826,2.675-3.527,3.684s0.658,0.742-.378,1.622-1.833.485-2.87,1.8a14.779,14.779,0,0,1-3.247,2.719c-0.659.485-2.782,1.052-3.726,2.329a1.256,1.256,0,0,0,.335,1.97,1.144,1.144,0,0,1-.436.061,4.714,4.714,0,0,1-1.638-.368c-1.508-.569-1.6-1.271-1.6-1.271h-0.008c-0.1,0-1.1.039-1.681,1.578-0.05.132-.1,0.254-0.143,0.368H696.5a0.353,0.353,0,0,0,.024-0.455c-0.235-.437-1.458-0.437-1.923-1.271s0.142-1.274-.429-2.982-0.889-1.057-.093-2.019,1.458-1.143,1.552-1.889,0.422-.791,1.416-1.49-0.156-.375-1.1-1.077-2.683-3.308-3.783-3.308m-89.548-4.983a0.4,0.4,0,0,0-.366.368,7.069,7.069,0,0,0-.379,2.325c0,1.183-.138,2.457-0.043,3.64s0.161,2.018.819,2.281a2.912,2.912,0,0,0,1.117.309,2.569,2.569,0,0,0,1.075-.283c1.087-.5,2.1-1.406,1.559-2.767a38.259,38.259,0,0,0-2.149-4.235c-0.433-.745-1.166-1.638-1.633-1.638m-0.99-1.473a0.251,0.251,0,0,0-.264.3l0.025-.088a1.491,1.491,0,0,0,.516.747,0.278,0.278,0,0,0,.2.153c0.135,0,.194-0.247-0.036-0.566a1.031,1.031,0,0,1-.293-0.52,0.533,0.533,0,0,0-.151-0.023m111.223-.5s0.161,0.9.3,1.793c0.042,0.27-.019.353-0.134,0.353a1.217,1.217,0,0,1-.369-0.113,1.242,1.242,0,0,0-.432-0.113,0.324,0.324,0,0,0-.281.137,1.825,1.825,0,0,1-1.169.659,12.53,12.53,0,0,0-2.041,1.594l0.011-1.066a0.871,0.871,0,0,0-.556-0.765,0.409,0.409,0,0,0-.326.237,4.041,4.041,0,0,1-1.856,1.628,2.858,2.858,0,0,0-1.726,2.106,0.628,0.628,0,0,0,.592.855h0.011a5.677,5.677,0,0,0,1.042-1.317c0.652-1.02.77-.985,1.957-1.135a7.825,7.825,0,0,1,.791-0.076c0.382,0,.417.144,0.674,0.586,0.373,0.643.087,1.612,0.125,2.321a1.714,1.714,0,0,0,1.178,1.975,2.728,2.728,0,0,0,.756.188,5.839,5.839,0,0,1,1-.252c1.111-.1,1.093-0.069.931-0.629a10.066,10.066,0,0,1-.565-1.711,1.219,1.219,0,0,1,.869-1.068,0.1,0.1,0,0,1,.05-0.014,3.836,3.836,0,0,1,.658,1.493,0.978,0.978,0,0,0,.392.627,0.549,0.549,0,0,0,.223-0.463,9.549,9.549,0,0,0,.391-2.9,10.96,10.96,0,0,1-.211-2.057,2.555,2.555,0,0,0-.869-1.675c-0.317-.232-1.41-1.2-1.41-1.2m-14.422-3.781a0.89,0.89,0,0,0-.212.028c-0.349.087-.566,0.429-0.777,1.63a4.461,4.461,0,0,1-1.609,2.533,23.487,23.487,0,0,0-2.787,2.98c-0.036.122-.062,0.18-0.032,0.18,0.063,0,.375-0.257,1.372-0.724,1.466-.689,2.627-1.612,2.8-2.551s-0.173-.359,1.119-0.968,0.633-.809.688-1.762c0.045-.839-0.089-1.346-0.562-1.346m4.845-3c-1.208,0-2.148.52-1.611,1.885,0.658,1.675.849,1.923,2.173,2.122a2.987,2.987,0,0,0,.459.036,2.639,2.639,0,0,0,1.657-.552s0.1,0.271-1.148,1.051-1.385,2.277-.41,2.857c0.791,0.474.924,1.15,1.244,1.15a0.448,0.448,0,0,0,.265-0.121c0.559-.445.975-1.988,2.117-3.06s1.217-1.227,1.367-2.368a9.033,9.033,0,0,0,.023-2.054l-1.682,2.256a2.54,2.54,0,0,0-.993-1.563c-1.025-1-1.049-1.3-2.615-1.562a4.974,4.974,0,0,0-.846-0.077m8.162-.079a5.775,5.775,0,0,0-1.038.066c-0.142.113-.956-0.084-0.111,0.739s1.626,1,1.522,1.612c-0.09.512-.056,0.675-0.323,0.675a1.5,1.5,0,0,1-.188-0.016c-0.477-.069-0.621-0.184-0.831-0.2h-0.013c-0.2,0-.227.4-0.092,0.772a5.832,5.832,0,0,0,.508.593,3.065,3.065,0,0,1,.428,1.6c0.063,0.375.176,0.467,0.271,0.467a0.263,0.263,0,0,0,.17-0.087s-0.1-1.778-.055-2.142c0.048-.314-0.1-1.008.257-1.008a0.5,0.5,0,0,1,.2.054,2.222,2.222,0,0,1,.578.76,0.676,0.676,0,0,0,.217-0.414,4.542,4.542,0,0,0,.019-2.651c-0.173-.789-0.8-0.82-1.521-0.82m-472.4-4.458c-0.9,0-.961.9-0.14,1.677a2.873,2.873,0,0,0,2.077.653c0.623,0,1.288-.079,1.947-0.108,1.5-.072-0.608-1.194-3.216-2.095a2.106,2.106,0,0,0-.668-0.127m-28.127-7.77a0.769,0.769,0,0,0-.835.847c-0.02,1.3.465,1.221,1.732,1.572a2.939,2.939,0,0,0,.77.113c0.843,0,1.293-.478.6-1.237a3.449,3.449,0,0,0-2.268-1.295m13.048-.074c-0.507,0-.691.136-0.378,0.458a3.441,3.441,0,0,1,.762,3.256,0.394,0.394,0,0,1-.483.33,20.891,20.891,0,0,1-3.254-.8,8.392,8.392,0,0,0-1.511-.321c-0.4,0,.219.382,1.568,1.11,2.049,1.112,3.383.841,3.29,2.32-0.028.477,0.16,0.659,0.455,0.659a4.794,4.794,0,0,0,2.308-1.379,0.984,0.984,0,0,1,.713-0.387c0.511,0,1.287.466,3.751,0.84,1.938,0.291,3.059.614,3.6,0.614,0.478,0,.5-0.254.223-1.009-0.583-1.6,1.677-1.473-1.57-3-2.494-1.178-7.78-2.692-9.47-2.692m477.7-2.731c-0.668,0-1.059,1.826-1.265,2.829-0.237,1.14-.516,1.886-0.094,2.718a1.192,1.192,0,0,1,.236,1.1L699.3,281.4a7.838,7.838,0,0,0-.329,1.972c0,0.924-.378,1.319,1.037,1.978s1.881,0.307,2.069,1.317,0.185,1.448,1.129,1.621a3.8,3.8,0,0,1,2.4,1.187,0.174,0.174,0,0,0,.113.107,1.508,1.508,0,0,0,.225-0.8,0.831,0.831,0,0,1,.452-0.8,0.341,0.341,0,0,1,.055.005,3.832,3.832,0,0,1,1.888,1.711,1.639,1.639,0,0,0,1.173.794s-1.08-1.8-.609-2.021,0.609-.394-0.615-1.142a6.58,6.58,0,0,0-3.154-.7,1.685,1.685,0,0,0-.568.023,1.453,1.453,0,0,1-.257.038c-0.245,0-.419-0.2-0.821-1.243a5.419,5.419,0,0,1-.141-3.379c0-.072.017-0.1,0.048-0.1a0.537,0.537,0,0,1,.149.055,0.552,0.552,0,0,0,.225.055,0.851,0.851,0,0,0,.663-0.671,6.761,6.761,0,0,0,.609-3.508c-0.093-1.23.845-1.712,0.136-1.755s-2.774,0-3.24-.351a0.492,0.492,0,0,0-.293-0.11M677.1,272.252l-0.658.483s-2.167.066-2.5,0.066a9.033,9.033,0,0,0-1.626,1.165c-0.54.326-.54,0.785-0.162,1.643s1.011,0.9,2.067,1.184a1.576,1.576,0,0,0,.4.065c0.569,0,.4-0.569,1.063-0.81a2.038,2.038,0,0,0,1.155-1.621,2.446,2.446,0,0,1,.869-1.141l-0.615-1.034m-469.127-8.1c-2.841,0-4.109,1.2-5.471,1.654-0.929.314-.366,0.54,0.691,0.54a9.006,9.006,0,0,0,3.065-.54,5.744,5.744,0,0,1,2.084-.412,2.9,2.9,0,0,1,2.051.621c0.185,0.248-.154.433-0.523,0.433a0.787,0.787,0,0,1-.582-0.216,0.178,0.178,0,0,0-.118-0.074c-0.233,0-.023,1.2,2.136,1.981,2.465,0.892,3.062,1.314,3.31,2.374a6.661,6.661,0,0,0,.788,2.5c0.56,0.883.771,1.256-.26,1.644s-0.671.332,0.087,0.805a10.077,10.077,0,0,0,4.451,1.436c0.784,0.067,1.376.163,1.741,0.163,0.638,0,.579-0.294-0.374-1.55-1.5-1.973-4.1-5.809-4.328-6.288-0.727-1.522-1.825-3.986-6.4-4.838a12.837,12.837,0,0,0-2.346-.234m495.713-5.834a1.749,1.749,0,0,0-.93.289c-3.016,1.92-4.376,1.778-3.172,4.213s1.95,3.464,2.118,3.925a0.156,0.156,0,0,0,.139.131c0.262,0,.792-0.8,1.457-2.369,0.826-1.929.919-4.452,1.248-5.219,0.231-.533-0.218-0.97-0.86-0.97m33.61-26.245c-0.019-.044-0.036-0.09-0.051-0.137a0.228,0.228,0,0,1,.048.116,0.177,0.177,0,0,0,0,.021m14.93-21.807s-2.011.759-2.222,1.217l-0.217.462a0.608,0.608,0,0,0-.431-0.147,1.28,1.28,0,0,0-.558.147,3.087,3.087,0,0,0-.912,2.665c0.106,1.283,1.2-.1-0.217,3.85s-2.118,4.839-3.5,5.859a4.143,4.143,0,0,1-2.41.9,1.745,1.745,0,0,1-.765-0.149c-0.534-.262.144-1.151,0.529-1.416,0.291-.194-0.519-0.3-1.226-0.3a4.716,4.716,0,0,0-.643.037c-0.672.1-.037,0.856-0.112,1.48s-1.371,2.3-1.229,3.063,0.136,0.986-.708,1.247a1.052,1.052,0,0,1-.315.049,2.464,2.464,0,0,1-1.344-.8,0.393,0.393,0,0,0-.177-0.029c-0.459,0-1.591.293-3,.489a3.138,3.138,0,0,0-2.788,2.007c-0.708,1.217-2.372,1.416-3.57,1.873s-0.739,2.175-2.049,2.766-1.3,1.681-1.41,2.566c-0.043.362,0.083,0.473,0.257,0.473a1.882,1.882,0,0,0,.694-0.274c0.134-.063.141-1.129,0.831-1.129a0.687,0.687,0,0,1,.124.011c0.814,0.13.92,0.164,0.491,1.083s-0.665,1.384-1.087,2.175,0.137,1.153.769,1.942a0.61,0.61,0,0,0,.467.275c0.506,0,1.1-.848,2.111-1.922,1.347-1.413,1.453-1.745,1.347-3.359s-0.64-1.643-1.627-2.1-1.2,0-.105-1.251a1.35,1.35,0,0,1,1.016-.59,1.675,1.675,0,0,1,.448.078,1.707,1.707,0,0,0,.421.076,0.7,0.7,0,0,0,.444-0.159,1.705,1.705,0,0,1,.176-0.112,1.891,1.891,0,0,0-.213,1.545,25.84,25.84,0,0,0,.843,3.119,0.291,0.291,0,0,0,.284.268,7.232,7.232,0,0,0,1.728-.883c1.162-.624,1.093-2.426,2.2-2.426a3.237,3.237,0,0,1,1.081.443,2.125,2.125,0,0,0,1.123-.966,3.3,3.3,0,0,0,.748-1.271c0.175,0.705.388,1.493,0.425,1.732a0.108,0.108,0,0,0,.12.095c0.332,0,1.283-.725,2.246-1.08,1.167-.429.075-0.625-0.031-1.38a1.289,1.289,0,0,1,.528-1.187,1.37,1.37,0,0,0,1.25.68,2.866,2.866,0,0,0,1.221-.319c1.626-.771,1.949-1.144,2.326-1.144a0.672,0.672,0,0,1,.182.026,3.743,3.743,0,0,0,.965.345,1.159,1.159,0,0,0,.625-0.215,1.112,1.112,0,0,1,.549-0.213c0.289,0,.327.3,0.228,0.577-0.02.056,0.012,0.081,0.083,0.081a10.77,10.77,0,0,0,2.7-1.2c0.535-.359.249-0.033,0.038-1.416s-0.883-1.479-.491-3.256a15.815,15.815,0,0,0,.385-3.061c0.106-1.118.528-1.283,0.813-1.35s0.286-1.545.883-2.334,0.459-1.152.459-2.964-0.993-1.48-1.056-2.763a9.5,9.5,0,0,1,.242-2.534m1.181-13.316c-0.226,0-.439.121-0.392,0.606a4.2,4.2,0,0,1-.466,2.935c-0.664,1.1-.193,1.361-0.565,2.9a0.767,0.767,0,0,1-.78.694,2.29,2.29,0,0,1-.835-0.214,2.75,2.75,0,0,0-.554-0.214,0.039,0.039,0,0,0-.047.042,3.2,3.2,0,0,1-.751,1.8c-0.473.395-2.075,0.485-1.6,2.018a21.661,21.661,0,0,0,1.322,3.16l1.217-.964L751,209.4a2.027,2.027,0,0,0-1.174-.921,1.418,1.418,0,0,1-.8-1.8,0.4,0.4,0,0,1,.376-0.119,7.688,7.688,0,0,1,.769.067,7.987,7.987,0,0,0,.876.066,2.56,2.56,0,0,0,.282-0.014c0.455-.046.868-0.193,1.313-0.193a1.963,1.963,0,0,1,1.282.5,6.819,6.819,0,0,0,2.54,1.142,7.734,7.734,0,0,1,.658-2.107c0.473-.876,1.838-0.482,3.2-0.876s2.4-.615,1.931-1.186-0.428-1.842-.713-2.808a0.469,0.469,0,0,0-.439-0.428,4.973,4.973,0,0,0-1.443.735,1.528,1.528,0,0,1-.693.157,3.564,3.564,0,0,1-1.847-.684,18.85,18.85,0,0,1-3.247-3.86,1.188,1.188,0,0,0-.459-0.121m-501.75-9.9c-0.21,0-.82,2.607.45,3.285a4.588,4.588,0,0,0,1.994.716,1.84,1.84,0,0,0,1.353-.674c0.486-.5.537-0.594,0.3-0.594-0.076,0-.183.011-0.315,0.021s-0.289.021-.466,0.021a4.008,4.008,0,0,1-.7-0.06c-1.366-.243-2.658-0.811-2.563-2.259a0.531,0.531,0,0,0-.054-0.456M251.193,176.8c-1.36,0,.285,1.448,2.446,2.631a3.776,3.776,0,0,0,1.8.478c1.318,0,2.126-.788,1.259-1.223-2.093-1.051-4.142-1.886-5.507-1.886m-157.4-.779c-0.115,0-.1.087,0.1,0.3a18.114,18.114,0,0,0,3.813,3.64,13.338,13.338,0,0,0,4.991,2.281,4.96,4.96,0,0,0,1.363.225c1.227,0,1.545-.752.426-1.76-1.458-1.316-.236-1.184-2.875-1.8s-3.2-.4-4.52-1.229a15,15,0,0,0-3.3-1.656m178.4-6.535a1.263,1.263,0,0,0-.646.335,20.2,20.2,0,0,0-5.153,6.518c-2.049,3.685-1.832,3.29-3.812,5.332s-0.988,1.577,5.153,2.763c5.166,1,5.64,1.8,6.5,1.8a2.1,2.1,0,0,0,.567-0.092,1.918,1.918,0,0,1,.507-0.077c0.973,0,1.188,1.032,1.188,2.118,0,0.421.152,0.618,0.377,0.618,0.444,0,1.173-.76,1.6-2.067,0.633-1.975-.64-5.528-1.907-7.568-0.844-1.354-1.253-1.81-2.008-1.81a6.513,6.513,0,0,0-1.525.3,3.439,3.439,0,0,1-.85.142c-0.936,0-.619-0.894-1.191-2.184-0.709-1.579-1.845-.329-0.144-2.7,1.344-1.882,1.889-3.429,1.347-3.431M84.877,165.14c-0.7,0-1.285.18-1.285,0.473,0,1.956,2.067,5.308,3.62,6.405a2.5,2.5,0,0,0,.964.528c0.342,0,.038-0.789-0.442-2.37-0.709-2.328-.144-2.328-0.473-3.819-0.191-.868-1.4-1.217-2.384-1.217m670.14-2.464a1.976,1.976,0,0,0-.911.74l0.329,0.528c0.329,1.274.658,3.248-.094,3.467s-1.273,1.623-1.459,3.072-0.565,3.291.231,4.43,0.235,1.228.235,2.195,0.285,3.422-.186,4.869-0.752,1.8-.565,3.335a28.959,28.959,0,0,1,0,4.037c0,2.193-.136,3.949-0.044,4.825,0.023,0.214.068,0.3,0.128,0.3a6.483,6.483,0,0,0,.761-1.042,1.545,1.545,0,0,1,.958-0.265,1.845,1.845,0,0,1,1.352.528l0.707,0.746a0.366,0.366,0,0,0,.128.024c0.245,0,.654-0.29-0.55-2.877-1.558-3.334-1.838-2.63-1.416-5.659s0.658-3.07,2.26-3.38a1.6,1.6,0,0,1,.3-0.029c1.406,0,2.156,1.931,2.336,2.137a0.073,0.073,0,0,0,.04.031,14.135,14.135,0,0,0-.748-2.489c-0.564-1.711-1.086-2.281-1.273-4.431s-0.85-3.95-1.695-4.562-0.421-1.626-.043-2.458a6.936,6.936,0,0,0,.329-3.554,37.712,37.712,0,0,0-.845-4.257,0.292,0.292,0,0,0-.268-0.259m-729.966-3.41H20.781a19.84,19.84,0,0,1-4.591,2.99,56.866,56.866,0,0,0-6,2.631c-1.348.789-3.322,2.434-4.384,3.16-0.385.263-.208,0.387,0.234,0.387A6.012,6.012,0,0,0,9.2,167.388c1.273-1.05,2.329-1.381,4.942-2.17s9.042-4.148,10.6-5.661c0.091-.089.195-0.186,0.309-0.291m241.861,0H215.224a0.757,0.757,0,0,0-.058,1.017c0.777,1.149,1.161,4.046,1.3,5.625a17.862,17.862,0,0,1,.18,3.72c-0.142.92-1.378,1.676-2.117,2.106a0.247,0.247,0,0,1-.122.036c-0.636,0-.786-3.134-2.151-3.942-1.453-.856-4.9-0.273-4.613-1.425a7.751,7.751,0,0,0-.677-5.168c-0.988-1.711-.7-0.723.285-1.743a1.09,1.09,0,0,0,.174-0.226H83.35a4.435,4.435,0,0,1,.782.948c0.836,1.4,1.262,2.409,2.145,2.409a1.558,1.558,0,0,0,.531-0.1,2.406,2.406,0,0,1,.819-0.149,2.986,2.986,0,0,1,2.367,1.465c0.776,1.118.633,3.29,1.2,4.41s2.968,2.369,3.527,3.421,1.415,2.7,2.191,3.949,2.683,1.779,4.167,2.106a16.32,16.32,0,0,1,5.937,3.027,30.832,30.832,0,0,1,2.962,4.609s-2.4-.986-3.527-1.317a8.849,8.849,0,0,0-1.973-.493,0.559,0.559,0,0,0-.648.625c0,1.119,2.546,4.016,2.757,5.527s0.565,9.15-.845,12.57-0.284,9.544-.211,11.652,4.023,7.634,4.943,9.278,1.062,3.884,1.764,5.989,1.273,3.091,3.316,3.29,6.214,2.964,7.345,5.86,1.49,4.8,2.613,6.512,3.534,4.147,3.888,4.941c0.084,0.188.04,0.259-.1,0.259a18.653,18.653,0,0,0-2.8-.723c-1.335,0,.143.793,2.259,2.5s4.317,2.831,4.808,3.819a6.266,6.266,0,0,1,1.054,3.026c0,1.249,2.26,1.713,2.826,2.765a0.518,0.518,0,0,0,.439.321c0.616,0,1.287-1.476.057-3.614-1.552-2.7-3.036-3.356-4.731-6.052a57.158,57.158,0,0,1-3.812-7.833c-0.641-1.514-2.118-5.266-2.118-5.266s5.651,3.227,6.5,5.462,0.918,4.737,2.967,6.714,3.6,1.842,4.657,4.607,2.614,3.092,4.663,5.332,5.44,4.21,4.944,6.582-0.709,1.314.564,4.013,4.241,3.092,5.93,4.214,5.724,1.776,7.978,2.7c2.066,0.837,5.239,2.276,8.026,2.276a7.074,7.074,0,0,0,.8-0.043,10.667,10.667,0,0,1,1.147-.072c1.814,0,1.881.72,3.021,1.39,1.348,0.788,2.967,3.619,6.991,4.607s5.44,1.314,8.762,3.685,4.8,3.03,4.8,4.738a5.627,5.627,0,0,0,1.763,3.95,31.778,31.778,0,0,0,4.24,2.436c0.708,0.329,1.764.4,2.186,0.855s2.472,0.462,2.9.922c0.39,0.425.664,1.132,1.258,1.132a0.808,0.808,0,0,0,.151-0.014c0.709-.131,1.838-2.237,2.472-2.961a1.246,1.246,0,0,1,.973-0.422,2.781,2.781,0,0,1,1.43.488c0.707,0.462,1.124,2.172,1.9,3.554s0.217,0.984.638,3.555,1.342,2.565.144,5.2c-1,2.193-2.59,3.152-3.99,5.127h71.288a6,6,0,0,0-1.909-1.178c-2.043-.858-3.527-1.582-3.669-3.027s-2.187-3.884-3.671-4.477-8.189-1.513-9.394-2.5-4.024-2.9-6.284-5-3.247-4.669-5.438-5.592-7.911-1.251-11.649-2.371a45.156,45.156,0,0,0-9.115-1.578c-0.987-.079-1.164-0.379-1.852-0.379a8.3,8.3,0,0,0-2.309.509c-3.112.988-3.744,1.121-5.657,1.843s-1.969,1.386-3.384,3.619a13.377,13.377,0,0,0-1.769,3.888,4.887,4.887,0,0,0-4.161-2.834c-0.177-.011-0.35-0.016-0.518-0.016a8.572,8.572,0,0,0-3.123.617,7.106,7.106,0,0,1-1.863.615,0.738,0.738,0,0,1-.214-0.029,14.851,14.851,0,0,1-4.241-1.976c-1.769-1.184-3.677-2.237-3.18-3.685s1.411-3.489,1.559-4.214a28.472,28.472,0,0,0-.217-4.8c-0.136-.922.565-1.514-1.409-2.5a4.625,4.625,0,0,0-2.087-.413c-0.483,0-.969.041-1.437,0.082s-0.917.081-1.331,0.081a2.931,2.931,0,0,1-1.225-.21,10.277,10.277,0,0,0-4.377-.659,4.919,4.919,0,0,1-2.26-.528s2.509-1.315,2.509-2.6,0.1-1.545.1-2.072a2.833,2.833,0,0,0-.46-1.494,5.19,5.19,0,0,0,1.273-1.206,0.814,0.814,0,0,1,.12-0.194,0.277,0.277,0,0,1,.009.078,0.081,0.081,0,0,0,.087.079,0.813,0.813,0,0,0,.387-0.194c0.776-.558.491-0.558,0.491-1.513s0.248-1.087.886-2.34,1.691-2.432-.707-2.6c-0.276-.019-0.557-0.028-0.837-0.028a41.585,41.585,0,0,0-5.446.619c-1.242.133-1.242,2.106-1.453,3.094a14.33,14.33,0,0,1-1.621,3.06l-0.566,1.513c0,0.163-.027.334-0.166,0.334a0.786,0.786,0,0,1-.435-0.265,3.492,3.492,0,0,0-2.366-.528,15.34,15.34,0,0,0-3.279.889,4.579,4.579,0,0,1-1.024.2,0.748,0.748,0,0,1-.6-0.4,3.336,3.336,0,0,0-1.416-.889c-0.851-.364-1.553-1.385-2.54-2.337a21.229,21.229,0,0,1-3.322-4.871c-1.236-2.272-1.839-3.425-.806-5.791,1.017-2.371,1.868-3.489,2.147-4.41s0.956-.659-0.49-2.271-1.417-1.712-.988-2.8,1.8-2.4,3.595-3.75,5.619-3.881,6.607-3.947c0.055,0,.111-0.006.167-0.006a8.384,8.384,0,0,1,2.8.826,7.409,7.409,0,0,0,2.087.329c0.88,0.132,1.06,1.089,2.047,1.089a12.281,12.281,0,0,0,1.84-.51,0.621,0.621,0,0,1,.24.047,7.426,7.426,0,0,0,1.516.77,0.214,0.214,0,0,0,.224-0.209c0.1-.627.31-1.055-1.137-1.45s-1.1-.491-1.1-1.051,0.6-.627,1.417-0.823a1.649,1.649,0,0,1,.362-0.03c0.429,0,1.085.071,1.809,0.142s1.508,0.142,2.2.142a3.666,3.666,0,0,0,1.592-.254,2.288,2.288,0,0,1,1.073-.223,13.618,13.618,0,0,1,3.522.814,4.348,4.348,0,0,0,.887.308,4.587,4.587,0,0,0,1.3-.371,2.161,2.161,0,0,1,.753-0.142c1.28,0,2.156,1.288,2.607,2.346a14.462,14.462,0,0,1,.807,4.049,5.564,5.564,0,0,0,1.025,3.29c0.987,1.578.179,2.1,1.2,2.861,0.805,0.6,1.238,1.515,1.741,1.515a0.622,0.622,0,0,0,.438-0.231,5.894,5.894,0,0,0,1.348-3.16c0.142-1.085-.28-0.132-1.3-3.552s-2.65-7.043-2.191-9.116,0.211-2.4,1.167-3.689a19.182,19.182,0,0,1,3.49-2.957c0.782-.662,1.03-1.09,1.665-1.615s1.061-.261,1.656-1.02,1.025-1.352,1.59-2.007a0.783,0.783,0,0,1,.678-0.383H219.6a2.1,2.1,0,0,0,.686-0.113,3.738,3.738,0,0,0,1.59-1.119c0.045-.041.051-0.051,0.031-0.051l-0.038,0c-0.018,0-.039,0-0.062,0a0.409,0.409,0,0,1-.391-0.316c-0.211-.528-0.391-0.888-0.03-1.153s1.408,0.165,1.054-.789-1.129-.527-1.415-0.823,1.2-1.251.534-3.193,0.956-1.81-.038-3.158-0.527-3.424.1-4.54a3.011,3.011,0,0,1,1.21-1.35c0.148,0,.174.247-0.042,0.886-0.565,1.681-.565,2.931-0.248,3.426s0.814,0.557.814,1.545c0,0.849-.683,1.9-0.4,1.9a0.523,0.523,0,0,0,.221-0.086c0.739-.429,1.335-1.942,1.659-3.159s-0.386-2.337-.739-3.456a4.885,4.885,0,0,1-.144-2.2,1.722,1.722,0,0,0,.808,1.514,1.856,1.856,0,0,1,.64,1.875,24.976,24.976,0,0,0,1.62-3.85c0.248-1.151.285-1.941,0.814-2.5s2.825-1.151,3.992-1.481a6.368,6.368,0,0,0,2.441-1.809,0.487,0.487,0,0,1,.34-0.1,3.065,3.065,0,0,1,.623.095,3.034,3.034,0,0,0,.564.094,0.19,0.19,0,0,0,.236-0.154,7.236,7.236,0,0,1-.106-4.542c0.77-3,1.409-3.257,2.508-4.08a6.606,6.606,0,0,0,1.478-1.317,0.1,0.1,0,0,1,.067-0.048,0.409,0.409,0,0,1,.136.2,0.4,0.4,0,0,0,.366.2,1.163,1.163,0,0,0,.455-0.116c0.994-.428.038-0.326,1.411-0.593s2.3-2.139,2.3-2.139l1.905-.329c0.144-.2.037-0.525,0.528-0.59a15.589,15.589,0,0,0,2.366-1.053l1.242-.659s-0.92,1.054.28,1.25,2.433,0.034,1.732.561-0.286,1.052-1.168,1.052l-0.5,0a3.735,3.735,0,0,0-1.935.462c-1.056.528-1.415,2.04-2.471,3.127s-0.392,1.414.39,1.447h0.031c0.775,0,1.884-1.265,2.933-2.2a3.818,3.818,0,0,1,2.048-1.192,0.53,0.53,0,0,1,.211.038,0.566,0.566,0,0,0,.224.042c0.436,0,1.231-.374,3.055-1.389,2.191-1.219,3.11-1.252,3.11-1.713a1.322,1.322,0,0,1,.634-1.512c0.814-.462,1.626-2.536,1.452-4.047-0.079-.669-0.206-0.888-0.371-0.888a2.488,2.488,0,0,0-.8.59,4.051,4.051,0,0,0-1.131,2.337c-0.211.986-.353,2.2-0.987,2.272-0.032,0-.06,0-0.085,0-0.222,0-.2-0.119-0.258-0.238a0.7,0.7,0,0,0-.735-0.239c-0.089,0-.188,0-0.3.01-0.229.015-.456,0.024-0.683,0.024a6.5,6.5,0,0,1-4.477-1.833c-2.118-1.777-1.59-2.5-1.59-3.06s0.043-1.68-.875-1.91a3.108,3.108,0,0,1-1.876-1.744c-0.02-.086.02-0.116,0.107-0.116a3.322,3.322,0,0,1,.485.086,3.638,3.638,0,0,0,.739.087,1.915,1.915,0,0,0,1.358-.517c1.2-1.119,1.695-1.646,1.695-2.305s-1.665-1.94-2.335-2.139a0.568,0.568,0,0,0-.159-0.019,13.376,13.376,0,0,0-4.641,2.095c-1.31.919-5.582,3.882-6.606,5.132a11.072,11.072,0,0,1-3.527,2.633,16.02,16.02,0,0,0,3.5-4.147c1.478-2.565,3-4.442,4.272-4.871s1.939-.033,2.366-0.986-0.106-2.106,1.584-2.6,6.109-.56,7.419-0.69a8.613,8.613,0,0,0,2.759-1.054,0.415,0.415,0,0,1,.142-0.031c0.173,0,.151.208,0.282,0.414a1.266,1.266,0,0,0,1.2.413q0.115,0,.246-0.006c2.049-.1,2.756.229,4.166-1.088s2.365-2.53,4.377-2.8,2.932-.428,4.167-1.546,2.05-1.943,1.484-2.864a2.494,2.494,0,0,1,.107-2.534c0.352-.823.738-1.709-0.672-2.106a14.333,14.333,0,0,0-3.142-.907,2.272,2.272,0,0,0-.285.018,3.547,3.547,0,0,1-.434.037,0.487,0.487,0,0,1-.145-0.016,0.206,0.206,0,0,0-.076-0.017,3.581,3.581,0,0,0-.649.161,12.759,12.759,0,0,0-3.639,1.778,1.044,1.044,0,0,1-.523.266c-0.306,0-.157-0.611-0.185-1.023-0.031-.559.918-1.25,1.521-1.613a21.169,21.169,0,0,1,3-1.218c0.154-.055.29-0.107,0.407-0.159m470.845,0h-155.2V269.638a12.865,12.865,0,0,0,.555-1.224,6.925,6.925,0,0,1,1.824-2.115c0.029,0,.041.023,0.032,0.073-0.124.787-.069,11.059,0.212,12.767s-0.422,2.769,2.545,8.691,6.638,12.241,7.346,13.885c0.413,0.961.585,1.428,0.965,1.428a2.957,2.957,0,0,0,1.295-.7c1.552-1.12,2.614-2.391,2.776-3.487a22.283,22.283,0,0,1,1.241-4.369,10.54,10.54,0,0,0,1.3-3.725,30.888,30.888,0,0,0,.019-4.971c-0.044-2.041.727-1.877,1.962-2.4s1.957-.693,6.725-5.658,7.128-6.254,7.625-7.242-1.168-1.973.843-2.141,6.217-.329,8.054-1.675c0.946-.7,1.47-1.237,1.887-1.237,0.39,0,.687.472,1.149,1.728a11.347,11.347,0,0,0,4.13,5.266c1.483,1.12,2.471,4.278,2.794,5.263s-0.745,3.621-.887,4.313,1.415,0.854,2.471.854,1.905-.919,3-2.435a4.462,4.462,0,0,1,.923-1.221,2.556,2.556,0,0,1,.6,1.221,54.634,54.634,0,0,1,2.4,8.755c0.212,1.843,1.131,4.74.5,7.765s-1.416,4.083-.143,5.4,5.079,3.492,5.65,5.334,1.123,5.527,2.044,6.971a13.369,13.369,0,0,0,5.158,4.084c0.136,0.069.264,0.132,0.383,0.19h1.395a10,10,0,0,0-.927-1.573c-1.415-2.1-1.21-3.424-1.838-5.726s0.069-1.908-2.756-4.211-2.4-.922-3.533-3.423c-1.085-2.4-.872-4.555-2.156-4.555a1.314,1.314,0,0,0-.173.012,1.2,1.2,0,0,1-.165.011c-1.286,0-.884-2.273-0.543-4.485,0.354-2.3,2.043-1.578,1.838-3.883s1.273-1.909,1.9-1.976a0.262,0.262,0,0,1,.038,0c0.549,0-.645,1.388.248,1.583,0.926,0.2,5.867,1.646,7.489,3.423s2.962,3.157,2.613,5.525c-0.135.907-.145,1.256,0.019,1.256,0.265,0,.988-0.911,2.385-1.846,2.254-1.513,7.412-6.121,7.345-8.622a14.844,14.844,0,0,0-1.348-6.516c-1.055-2.3-5.507-6.58-6.419-7.634s-1.063-.2-0.219-2.7,3.322-2.635,5.372-4.608a4.139,4.139,0,0,1,2.932-1.3,4.409,4.409,0,0,1,1.725.38c0.639,0.264.777,0.988,0.564,1.976a0.97,0.97,0,0,0,.8,1.2,0.327,0.327,0,0,0,.339-0.278c0.13-.655-0.36-1.708.912-2.233a30.358,30.358,0,0,1,5.862-1.716c2.471-.456,4.52-0.788,9.109-4.011s4.589-3.492,6-6.32,4.522-8.487,4.733-9.215,1.483-.064-0.355-2.039a5.761,5.761,0,0,1-1.484-5.136c0.142-1.248,1.129-2.037.142-4.209a19.578,19.578,0,0,0-3.247-4.673c-0.924-1.118-1.763-.593.988-3.358s4.3-3.619,4.874-4.477,0.143-1.182-2.124-1.182c-1.931,0-2.986.726-4.183,0.726a2.782,2.782,0,0,1-.617-0.068c-1.484-.329-3.247-3.486-3.744-4.212s-0.49-1.248,1.628-2.172,2.614-.461,5.16-2.633c1.8-1.542,2.749-2.255,3.5-2.255a1.363,1.363,0,0,1,.868.348c0.993,0.789.285,0.986,0.776,2.893,0.154,0.592.307,0.792,0.512,0.792a2.533,2.533,0,0,0,.858-0.434,2.975,2.975,0,0,1,1.529-.435c0.09,0,.183,0,0.279.013,2.193,0.2,3.249.855,3.608,1.448s-0.571,1.908.069,3.553,1.688,0.461,3.172,1.843-0.558,2.371-1.062,2.962,0.92,0.594,1.062,2.5a50.948,50.948,0,0,1,0,5.859c-0.018.174,0.228,0.256,0.614,0.256,1.065,0,3.2-.623,3.77-1.639,0.77-1.383,1.975-4.541,1.764-6.714s-2.192-4.541-3.389-6.777-0.777-1.78.843-3.755,3.18-1.973,3.887-4.606a9.118,9.118,0,0,1,3.39-5.265c1.025-.917,1.655-1.405,2.146-1.405a1.345,1.345,0,0,1,1.033.946,1.841,1.841,0,0,0,1.694,1.17,4.941,4.941,0,0,0,1.765-.447c1.621-.658,8.829-7.965,10.306-10.858s2.546-4.873,3.888-7.5,1.695-7.832,2.684-11.451,1.7-5.2,1.129-7.371-2.118-3.29-4.024-4.806a2.009,2.009,0,0,0-.955-0.54c-0.544,0-.069,1.43-0.386,2.712-0.249,1.01-.131,1.217-0.458,1.217-0.226,0-.666-0.1-1.591-0.1-2.26,0-3.248-.656-3.6-2.63s-0.64-1.777-2.758-2.172c-1.943-.364-1.741-0.284.323-2.2m64.426,0H786.041c0.025,0.594.048,1.182,0.048,1.74,0,3.321,1.84,14.556,5.168,14.556,1.376,0,3.007-1.922,4.867-7.121,1.993-5.59,3.632-1.9,6-8.952l0.06-.223m-407.929-.4a0.286,0.286,0,0,0-.315.272c-0.007.043-.012,0.086-0.017,0.128h1.429a3.059,3.059,0,0,0-1.1-.4m-8.679-7.547a12.046,12.046,0,0,0-1.137.453c-3.626,1.432-2.607,2.362-1.992,2.881s1.718-.472-1.671,1.464c-1.936,1.106-2.783,2.273-2.823,3.149H388c-0.217-.68-0.321-1.138.555-2.254,1.442-1.84,1.553-3.775-1.285-4.673-1.825-.58-1.527-1.02-1.694-1.02m47.187-9.015a10.4,10.4,0,0,0-2.239.537c-3.533,1.052-3.669,1.052-3.036,6.844s1.41,6.517,1.974,7.764,0.64,1.187,0,1.448c-0.192.081-.647,0.216-1.2,0.369h11.587c-0.621-.43-1.05-0.762-3.109-0.762a23.461,23.461,0,0,0-2.9.313c-0.547,0-.882-0.313-1.624-1.564-1.485-2.5-1.771-3.949-1.416-6.318s1.912-2.369,2.191-5.594c0.193-2.181.611-3.037-.232-3.037m-35.585-5.141a5.062,5.062,0,0,0-1.072.161,15.045,15.045,0,0,0-4.111,1.227c-2.663,1.227-.831,2.928-1.943,6-0.9,2.477-2.264,3.878-1.617,3.878a2.855,2.855,0,0,0,.841-0.244c1.541-.606,3.084-2.124,3.805-2.124,0.291,0,.448.246,0.417,0.9-0.112,2.266-2.222,1.937-1.558,4.155s0.168,2.03,3.775,2.832,0.664,0.52,1.559,2.645a10.728,10.728,0,0,1,1.025,2.678h7.924a0.534,0.534,0,0,1,.542-0.232,4.94,4.94,0,0,1,1.247.232h1.663c-0.017-.472-1.18-1.582-3.852-3.291-4.5-2.88-1.72-2.315-3.775-4.723a6.974,6.974,0,0,0-5.2-2.136c-0.219,0-.346.01-0.346,0.01a7.083,7.083,0,0,0,2.385-2.643c0.888-1.746,1.056-1.606,2-3.729,0.593-1.335.067-1.757-1-1.757a12.019,12.019,0,0,0-2.331.339,16.919,16.919,0,0,1-2.442.454c-0.412,0-.475-0.178-0.227-0.642a9.869,9.869,0,0,1,1.943-2.5c0.855-.91,1.18-1.482.351-1.482m-28.182-32.336c-0.793,0-2.026.905-5.11,1.767-3.564,1-4.762.4-5.439,2.209A1.43,1.43,0,0,1,357,109.929a4.6,4.6,0,0,1-.589-0.05,4.8,4.8,0,0,0-.549-0.048,1.154,1.154,0,0,0-.3.035c-0.747.209-1.788,4.6-2.385,4.6a0.159,0.159,0,0,1-.125-0.076,13.961,13.961,0,0,1-1.6-2.9c-0.818-1.737.273-1.43-1.3-3.259a4.455,4.455,0,0,0-3.34-1.421,1.646,1.646,0,0,0-1.546.546c-0.219.752,2.141,1.379,1.34,2.228a42.028,42.028,0,0,1-3.452,2.5c-0.319.268-.088,0.367,0.384,0.367a12.2,12.2,0,0,0,2.348-.337,1.724,1.724,0,0,1,.4-0.047c1.117,0,1.908,1.145,2.4,1.982,0.54,0.936-.614,1.843-1.192,2.3s1.943,0.345,2.95.53a1.3,1.3,0,0,1,.843,2.175c-0.248.412,0.073,0.549,0.68,0.549,1.077,0,3.051-.427,4.357-0.5,0.076-.005.151-0.007,0.224-0.007a4.841,4.841,0,0,1,1.742.381,5.059,5.059,0,0,0,1.825.38,6.207,6.207,0,0,0,1.859-.323c3.08-.966,4.546-0.9,7.352-2.977s2.589-1.6,4.451-2.934,1.417-1.755,1.5-3.24c0.028-.559.21-0.637,0.4-0.637,0.036,0,.073,0,0.11,0s0.071,0.006.1,0.006c0.227,0,.383-0.123.171-1.2-0.427-2.247-2.73-1.635-4.34-1.811s-1.545-1.433-2.353-1.831a0.815,0.815,0,0,0-.379-0.087M528.328,91.376a5.391,5.391,0,0,0-1.195.129c-2.467.564-3.639,2.073-1.838,2.665a4.368,4.368,0,0,0,1.332.293c0.7,0,1.279-.38,3.257-1.082,2.5-.886.568-2-1.556-2m21.882-5.289a2.174,2.174,0,0,0-.29.02c-1.025.145-1.509,0.177,0.379,2.019,1.16,1.137,2.23,2.107,2.736,2.107,0.315,0,.412-0.375.176-1.318-0.555-2.22-2.03-2.828-3-2.828m27.061-14.458c-2.191,0-2.756,2.567-3.389,5.659s-3.036,4.017-3.887,6.452,1.627,1.513,1.627,4.935,2.682,2.567,3.738,6.187-0.205,5.791-.205,5.791a41.768,41.768,0,0,0-6.427-6.186c-2.9-1.974-7.42-4.738-10.382-4.935q-0.17-.011-0.33-0.011a4.224,4.224,0,0,0-3.768,2.315s1.13,0.79,2.689,1.973-1.838,2.371-2.9,3.1a1.742,1.742,0,0,1-.966.4,7.48,7.48,0,0,1-1.649-.533c-1.219-.4,1.1-1.681-0.264-1.681a5.919,5.919,0,0,0-.934.1c-3.111.528-4.1,1.317-7.413,1.977a9.738,9.738,0,0,1-1.85.217c-1.538,0-1.755-.672-2.677-1.073a3.955,3.955,0,0,0-1.745-.462,10.116,10.116,0,0,0-3.123.724c-3.036,1.054-7.345,4.54-9.532,5.595s-1.98,1.909-4.662,2.172a2.038,2.038,0,0,1-.22.011,3.307,3.307,0,0,1-2.783-2.084c-0.451-1.041-.269-2.084,1.006-2.084,0.074,0,.152,0,0.234.011,0.228,0.02.425,0.03,0.594,0.03,2.016,0-.033-1.389-0.88-2.663a0.825,0.825,0,0,0-.711-0.415c-1.006,0-2.4,1.663-3.176,2.389-0.988.922,0.285,1.578,1.913,3.488s0.776,3.358,0,4.608a1.426,1.426,0,0,1-1.319.5c-0.4,0-.862-0.047-1.366-0.094s-1.053-.093-1.62-0.093a6.779,6.779,0,0,0-2.477.414c-2.893,1.121-2.968,3.225-4.172,4.477s1.279,2.038-1.2,2.17c-0.142.008-.279,0.012-0.412,0.012a8,8,0,0,1-2.077-.29,6.32,6.32,0,0,0-1.45-.29,1.5,1.5,0,0,0-.719.173,1.253,1.253,0,0,0,.069,2.371,5.039,5.039,0,0,1,1.906,2.037c0.422,0.529-1.34.858-2.4,1.122a4.377,4.377,0,0,1-.943.265c-0.415,0-1.09-.257-3.007-1.187-3.4-1.644-2.476-2.566-2.266-5.924s0-5.068-1.974-6.909a28.288,28.288,0,0,1-3.105-3.358,76.548,76.548,0,0,0,7.345,2.632c3.224,0.987,3.957,2.158,6.288,2.158a13.064,13.064,0,0,0,3.034-.445c5.153-1.251,3.389-3.884,4.376-6.581s-2.471-1.647-5.438-2.9-4.664-4.082-8.545-4.607a24.62,24.62,0,0,1-7.133-1.712c-2.786-.989-2.331-2.386-0.272-2.386,0.132,0,.269.006,0.414,0.017,0.288,0.023.534,0.035,0.742,0.035,1.524,0,.953-0.606-0.6-1.416a1.784,1.784,0,0,0-.838-0.209,5.087,5.087,0,0,0-2.059.712,5.723,5.723,0,0,1-2.535.712A4.136,4.136,0,0,1,480.941,89a4.564,4.564,0,0,1-3.6-2.5s0.3,0.029.764,0.029a7.142,7.142,0,0,0,3.62-.821c1.62-1.054,1.129-1.185-1.769-2.5s-1.695-1.182-4.664-1.317c-0.089,0-.177-0.006-0.263-0.006-2.794,0-4.24,2.033-6.09,3.758a2.044,2.044,0,0,1-.9.622c-0.44,0,.54-1.764,2.246-3.453,1.749-1.732,2.356-2.4,1.5-2.4a6.414,6.414,0,0,0-1.14.161,5.992,5.992,0,0,1-1.226.124c-0.218,0-.417-0.011-0.6-0.021s-0.352-.021-0.512-0.021a2.035,2.035,0,0,0-1.834,1.169c-1.336,1.909-.348,2.173-6.142,4.607s-10.307,5.791-12.853,9.607-5.147,5.991-6.563,9.543-4.1,8.558-5.65,9.873-4.242,3.358-5.154,4.805-0.987,1.317-4.731,3.554-4.732,1.974-5.085,5.4a65.123,65.123,0,0,0,.067,8.489c0,2.172-.278,3.882,1.485,4.607a5.4,5.4,0,0,0,2.015.353,7.405,7.405,0,0,0,5.753-2.788c2.4-2.961,2.191-3.554,2.614-4.54l0.422-.988a5.889,5.889,0,0,0,1.484,3.158c1.2,1.052.211,3.028,1.484,5.067s2.117,3.423,3.172,5.067-0.278,4.872,2.124,5.269a2.971,2.971,0,0,0,.479.041c1.927,0,1.964-2.244,2.483-3.466,0.571-1.316,2.545-1.907,3.18-3.224s0-2.765,1.552-5.726,4.1-2.9,5.3-4.148,0.7-1.972-1.913-3.422-1.905-1.577-1.2-5.791,1.553-3.817,3.881-5.462,5.445-2.963,5.092-4.738-2.471-2.108-.5-5.528c1.024-1.775,2.03-2.24,2.938-2.24a9.878,9.878,0,0,1,2.215.526c1.273,0.265,3.888,2.768,4.589,3.49s0.144,1.514-1.341,1.644-0.844,1.976-3.315,4.213-6.081,4.014-4.808,6.122,0.5,2.959.5,5.133,1.34,2.5,1.763,2.962a6.6,6.6,0,0,0,3.037,1.184c0.038,0,.086,0,0.142,0,1.275,0,6.884-.679,9.251-1.058a7.945,7.945,0,0,1,1.241-.09c2.312,0,5,.8,5.54,1.406,0.162,0.187.007,0.247-.334,0.247-0.311,0-.777-0.05-1.3-0.1s-1.1-.1-1.637-0.1a3.108,3.108,0,0,0-1.535.284c-1.267.791-.424,1.184-0.635,1.579a0.636,0.636,0,0,1-.617.188c-0.671,0-1.971-.168-4.4-0.253q-0.468-.016-0.911-0.016a47.815,47.815,0,0,0-6.218.609c-0.776,0-.074.394,1.131,2.171,1.012,1.5,1.373,1.876,2.183,1.876a4.511,4.511,0,0,0,.5-0.034c0.03,0,.059,0,0.086,0,1.05,0-.239,2.425-0.652,4.284-0.237,1.076-.231,1.42-0.624,1.42-0.3,0-.844-0.205-1.921-0.436-2.222-.472-1.3-2.442-2.591-2.442a2.091,2.091,0,0,0-.513.076c-2.043.527-1.7,0.789-1.838,2.3s-0.2.657-.491,2.565,0.633,1.515.7,4.015-1.056,1.843-2.676,2.04-1.913,1.382-3.042,2.042c-0.461.268-.16,0.307,0.036,0.307,0.037,0,.07,0,0.094,0-0.144.013-.771,0.078-2.6,0.354a18.6,18.6,0,0,1-2.775.245,9.075,9.075,0,0,1-1.469-.113,6.312,6.312,0,0,0-.972-0.114,3.5,3.5,0,0,0-1.2.245,2.839,2.839,0,0,0-1.529,1.288H582.554V109.639H582.53a6.836,6.836,0,0,1-.955-0.1,14.022,14.022,0,0,1-5.508-2.171c-1.477-.987,2.546-0.264,5.726-1.514q0.41-.162.761-0.327v-20.4c-0.537-1.894-1.279-3.047-.128-5.794,0.044-.105.087-0.209,0.128-0.313V72.076c-1.578-.193-3.923-0.447-5.283-0.447m1.692-4.191a0.6,0.6,0,0,0-.561.549c-0.329,1.052,1.553,2.456,3.391,2.808a1.839,1.839,0,0,0,.341.037,0.562,0.562,0,0,0,.42-0.135V70a3.927,3.927,0,0,0-1.7-1.751,7.032,7.032,0,0,0-1.886-.811m-6.334-21.21c-0.934,0-2.886,1.714-9.619,4.648-8.668,3.772-8.575.525-16.672,6.932s-6.309,5.616-6.782,9.478-2.352,2.191-3.1,5.7-4.894,3.687-2.826,6.583,4.8,4.563,9.127,5.791a11.678,11.678,0,0,0,3.112.511c1.766,0,2.162-.732,1.509-1.04-0.944-.439-4.235-5.615-3.577-11.495s2.826-5,4.706-7.2,6.782-7.9,9.985-9.83c3.11-1.876,11.394-4.5,15.567-5.935l0.341-.12c3.3-3.684-.278-2.28-1.13-3.6a0.741,0.741,0,0,0-.638-0.434M548,21.25c-0.626,0-1.2.115-2.267,0.163-2.222.1-3.105,1.48-1.651,2.072a4.68,4.68,0,0,0,1.835.379,11.066,11.066,0,0,0,1.8-.213c1.2-.2,1.131-0.56.355-0.856s4.52-.362,2.826-0.92A9.067,9.067,0,0,0,548,21.25m-11.376-.232c-2.018,0-6.886,1.118-2.788,1.514,2.332,0.225,3.235.407,3.891,0.407a4.161,4.161,0,0,0,1.579-.374c1.7-.627-0.558-1.546-2.682-1.546m-6.558-3.295c-0.111,0-.22,0-0.328,0-1.907.044-2.941,0.135-4.166,0.135-0.561,0-1.163-.019-1.907-0.07q-0.25-.017-0.5-0.017c-2.144,0-3.948.948-6.21,1.333-4.385.748-1.591,1.321,0.713,1.321,0.333,0,.655-0.012.944-0.037,1.42-.122,2.772-0.206,4.03-0.206a20.875,20.875,0,0,1,2.222.107c1.833,0.2,1.163,1.779-2.228,2.139-3.111.332-.24,0.8,2.106,0.8,0.21,0,.416,0,0.613-0.012,2.4-.1.851-2.075,2.863-2.766s3.284-.263,5.682-1.12c2.309-.823-1.09-1.615-3.839-1.615m12.457-.41a4.738,4.738,0,0,0-2.08.415c-1.484.7-1.484,0.624-.075,1.283a9.785,9.785,0,0,0,3.719.71,5.385,5.385,0,0,0,2.882-.677c1.769-1.152,1.633-.922-0.6-1.251a27.877,27.877,0,0,0-3.849-.479m14.379-.184a11.349,11.349,0,0,0-3.6,1.235c-2.31,1.025-1.695,2.106-1.08,2.983a0.747,0.747,0,0,0,.664.3,3.679,3.679,0,0,0,.743-0.11,3.678,3.678,0,0,1,.73-0.11,0.639,0.639,0,0,1,.639.357,0.682,0.682,0,0,0,.507.527c0.347,0,.908-0.5,2.273-1.407,2.162-1.448,1.368-1.007.523-2.543-0.44-.794-0.7-1.235-1.4-1.235m10.727-1.864a10.615,10.615,0,0,0-2.684,1.672c-0.6.524,0.632,1.054-1.975,1.382-2.2.277-2.335,0.659-2.546,1.383-0.11.379-.017,0.513,0.433,0.513,0.408,0,1.109-.111,2.218-0.252a12.132,12.132,0,0,0,4.943-1.447c1.516-.823-0.317-2.829-0.317-3.195a0.058,0.058,0,0,0-.072-0.057m-16.74-3.606a9.131,9.131,0,0,0-3.045.518c-2.465.883-1.6,1.316-3.2,2.588-1.01.807-.95,1.242,0.1,1.242a13.312,13.312,0,0,0,2.822-.452,21.71,21.71,0,0,0,5.836-2.193c1.59-.728-0.081-1.7-2.513-1.7M329.594-.009q-0.471,0-.9.031c-4.384.329-10.8,0.263-13,.988s-1.907,3.554-4.377,3.686c-0.1.005-.2,0.008-0.313,0.008a27.1,27.1,0,0,1-4-.519,28.812,28.812,0,0,0-4.7-.519,10.729,10.729,0,0,0-1.573.107c-3.184.476-8.088,2.5-9.489,2.992V7.4a11.711,11.711,0,0,0,3.7,1.7c1.838,0.4,4.234,4.211,4.234,4.211s-3.689-1.229-7.93-2.456V133.183c0.119,0.043.244,0.082,0.374,0.115,2.825,0.725,5.513,1.711,7.556,2.171a13.516,13.516,0,0,0,2.528.494,1.952,1.952,0,0,0,1.85-1.283c0.993-1.91,2.968-9.149,4.595-14.414s-0.144-6.845,3.669-8.029,9.885-3.554,11.513-4.278,1.34-5.923,4.941-7.636,4.1-1.576,7.626-2.7A48.093,48.093,0,0,0,347.9,91.768c3.533-2.5,4.52-1.184,5.793-3.489s-1.273-5.66-1.553-9.082,1.131-3.621,1.833-6.713,1.062-5.135,3.813-7.239,4.234-3.288,3.743-5.264-1.907-4.938-1.907-7.107,0.5-.922-0.633-3.95-1.13-3.422-.074-6.253,3.887-2.1,3.676-3.357-4.521-3.157-4.589-6.646,0.776-4.541,1.478-5.4,7.911-6.582,8.408-7.109-0.144-1.975,3.389-3.685,4.732-2.831,6.073-3.355,3.459-.462-0.639-1.647c-3.292-.952-4.528-1.479-6.278-1.479a11.548,11.548,0,0,0-1.416.1c-2.682.329-3.6,1.844-8.407,2.305a42.648,42.648,0,0,0-10.239,2.7s1.627-1.449.211-2.831,3.677-5.923,4.526-6.45-6.644-2.369-10.53-3.093c-3.625-.675-10.519-2.73-14.98-2.73M769.3,421.453c-0.465,0-1.439,1.178-2.114,1.5a6.241,6.241,0,0,1-2.791,1.072,2.947,2.947,0,0,1-.787-0.108,13.561,13.561,0,0,1-2.682-1.274,2.155,2.155,0,0,0-.668-0.127c-1.107,0-.845,1.456-0.6,2.584a9.777,9.777,0,0,0,1.365,3.468c0.509,0.787,2.006,1.212,3.2,1.212a2.972,2.972,0,0,0,1.189-.2c1.03-.48,1.783-2.106,2.819-3.64a6.636,6.636,0,0,0,1.322-4.214,0.263,0.263,0,0,0-.244-0.265m58.711-4.166a18.129,18.129,0,0,0-2.491,2.763,12.161,12.161,0,0,0-1.744,3.115c-0.372.877-1.739,1.93-4,3.117s-3.111,1.666-3.862,2.766-3.44,4.518-3.763,4.911,1.267,0.789,2.918.789H815.1a8.715,8.715,0,0,0-.425,1.822c-0.093.572-.04,0.784,0.128,0.784a21.2,21.2,0,0,0,2.02-1.284,1.4,1.4,0,0,0,.829-0.834,6.411,6.411,0,0,0,1.309.163,2.262,2.262,0,0,0,1.762-.694c1.416-1.534,2.825-5.18,3.719-6.494a16.5,16.5,0,0,1,3.155-3.073c1.409-1.269,3.768-3.64,3.768-4.561a8.469,8.469,0,0,0-.615-2.413,1.765,1.765,0,0,1-1.528.891,2.038,2.038,0,0,1-.216-0.012c-1.223-.133-0.987-1.756-0.987-1.756m-0.6-16.065c-0.24,0-.249.373,0.517,1.279,0.686,0.818.957,0.936,1.255,0.936,0.06,0,.121,0,0.187-0.01s0.138-.009.218-0.009l0.121,0c0.658,0.044,1.23,2.457,1.6,3.072a10.764,10.764,0,0,0,1.082,1.359,13.2,13.2,0,0,1,.049,3.817c-0.329,1.184-1.038,1.712-1.267,2.81s1.08,0.789,1.931,1.14,0.7,0.351.373,1.318a5.161,5.161,0,0,1-1.317,1.577,2.487,2.487,0,0,0,1.69.631,1.533,1.533,0,0,0,1.229-.544c0.987-1.184,2.539-2.938,2.967-4.209s-0.757-.7.609-1.626,1.18-.484,1.887-1.621,1.455-2.327.658-2.94a0.71,0.71,0,0,0-.444-0.159c-0.675,0-1.38.95-1.963,1.17a2.574,2.574,0,0,1-.92.192,3.014,3.014,0,0,1-1.334-.373c-0.987-.481-1.18-0.481-1.553-1.358a4.848,4.848,0,0,0-.851-1.361s-0.212,1.106-.719,1.106a0.472,0.472,0,0,1-.268-0.1c-0.708-.481-0.522-1.01-1.037-1.842s-0.516-1.1-.851-1.712-0.044-1.8-1.688-1.976-1.417-.131-1.845-0.439a0.6,0.6,0,0,0-.318-0.135"/>
</svg>
