<svg xmlns="http://www.w3.org/2000/svg" width="100" height="100" viewBox="0 0 100 100">
  <metadata><?xpacket begin="﻿" id="W5M0MpCehiHzreSzNTczkc9d"?>
<x:xmpmeta xmlns:x="adobe:ns:meta/" x:xmptk="Adobe XMP Core 5.6-c140 79.160451, 2017/05/06-01:08:21        ">
   <rdf:RDF xmlns:rdf="http://www.w3.org/1999/02/22-rdf-syntax-ns#">
      <rdf:Description rdf:about=""/>
   </rdf:RDF>
</x:xmpmeta>
                                                                                                    
                                                                                                    
                                                                                                    
                                                                                                    
                                                                                                    
                                                                                                    
                                                                                                    
                                                                                                    
                                                                                                    
                                                                                                    
                                                                                                    
                                                                                                    
                                                                                                    
                                                                                                    
                                                                                                    
                                                                                                    
                                                                                                    
                                                                                                    
                                                                                                    
                                                                                                    
                           
<?xpacket end="w"?></metadata>
<defs>
    <style>
      .cls-1 {
        fill: #fff;
        fill-rule: evenodd;
      }
    </style>
  </defs>
  <path id="okay" class="cls-1" d="M91.636,73.347A47.309,47.309,0,0,1,74.347,90.636,46.477,46.477,0,0,1,50.5,97.006a46.479,46.479,0,0,1-23.846-6.371A47.313,47.313,0,0,1,9.365,73.347,46.482,46.482,0,0,1,2.994,49.5,46.468,46.468,0,0,1,9.366,25.654,47.292,47.292,0,0,1,26.655,8.365,46.471,46.471,0,0,1,50.5,1.994,46.475,46.475,0,0,1,74.348,8.365,47.3,47.3,0,0,1,91.636,25.654,46.476,46.476,0,0,1,98.007,49.5,46.481,46.481,0,0,1,91.636,73.347Zm-17-37.064-4.411-4.371a3.038,3.038,0,0,0-4.362,0L46.09,51.678,35.136,40.7a3.04,3.04,0,0,0-4.363,0l-4.411,4.371a3.03,3.03,0,0,0-.872,2.235,2.971,2.971,0,0,0,.872,2.185L43.908,67.074A2.978,2.978,0,0,0,46.089,68a3.034,3.034,0,0,0,2.23-.923L74.637,40.7a2.965,2.965,0,0,0,.873-2.186A3.023,3.023,0,0,0,74.637,36.283Z"/>
</svg>
