<?xml version="1.0" encoding="utf-8"?>
<!-- Generator: Adobe Illustrator 22.1.0, SVG Export Plug-In . SVG Version: 6.00 Build 0)  -->
<svg version="1.1" id="Layer_1" xmlns="http://www.w3.org/2000/svg" xmlns:xlink="http://www.w3.org/1999/xlink" x="0px" y="0px"
	 viewBox="0 0 12.8 12.8" style="enable-background:new 0 0 12.8 12.8;" xml:space="preserve">
<style type="text/css">
	.st0{fill:#FFFFFF;}
</style>
<g>
	<g>
		<g>
			<path class="st0" d="M10.6,2.1C9.5,1,8,0.3,6.4,0.3S3.2,1,2.1,2.1C1,3.2,0.3,4.8,0.3,6.4S1,9.5,2.1,10.6c1.1,1.1,2.7,1.8,4.3,1.8
				c1.1,0,2.2-0.3,3.1-0.9c0.2-0.1,0.3-0.4,0.2-0.6c-0.1-0.2-0.4-0.3-0.6-0.2c-0.8,0.5-1.7,0.7-2.6,0.7c-2.8,0-5.1-2.3-5.1-5.1
				s2.3-5.1,5.1-5.1s5.1,2.3,5.1,5.1c0,1-0.3,2-0.9,2.8c-0.1,0.2-0.1,0.5,0.1,0.7c0.2,0.1,0.5,0.1,0.7-0.1c0.7-1,1-2.2,1-3.4
				C12.4,4.8,11.8,3.2,10.6,2.1z"/>
		</g>
	</g>
</g>
<path class="st0" d="M5.4,8.7L5.4,8.7c-0.3,0-0.6-0.3-0.6-0.6V4.8c0-0.3,0.3-0.6,0.6-0.6h0C5.7,4.2,6,4.4,6,4.8v3.3
	C6,8.4,5.7,8.7,5.4,8.7z"/>
<path class="st0" d="M7.3,8.7L7.3,8.7C7,8.7,6.7,8.4,6.7,8.1V4.8c0-0.3,0.3-0.6,0.6-0.6h0c0.3,0,0.6,0.3,0.6,0.6v3.3
	C7.9,8.4,7.7,8.7,7.3,8.7z"/>
</svg>
