<?xml version="1.0" encoding="utf-8"?>
<!-- Generator: Adobe Illustrator 22.1.0, SVG Export Plug-In . SVG Version: 6.00 Build 0)  -->
<svg version="1.1" id="Layer_1" xmlns="http://www.w3.org/2000/svg" xmlns:xlink="http://www.w3.org/1999/xlink" x="0px" y="0px"
	 viewBox="0 0 12.8 12.8" style="enable-background:new 0 0 12.8 12.8;" xml:space="preserve">
<style type="text/css">
	.st0{fill:#FFFFFF;}
</style>
<g>
	<g>
		<g>
			<path class="st0" d="M10.6,2.2C9.5,1.1,8,0.5,6.4,0.5S3.2,1.1,2.1,2.2C1,3.4,0.3,4.9,0.3,6.5S1,9.6,2.1,10.8
				c1.1,1.1,2.7,1.8,4.3,1.8c1.1,0,2.2-0.3,3.1-0.9c0.2-0.1,0.3-0.4,0.2-0.6c-0.1-0.2-0.4-0.3-0.6-0.2c-0.8,0.5-1.7,0.7-2.6,0.7
				c-2.8,0-5.1-2.3-5.1-5.1s2.3-5.1,5.1-5.1s5.1,2.3,5.1,5.1c0,1-0.3,2-0.9,2.8c-0.1,0.2-0.1,0.5,0.1,0.7c0.2,0.1,0.5,0.1,0.7-0.1
				c0.7-1,1-2.2,1-3.4C12.4,4.9,11.8,3.4,10.6,2.2z"/>
			<path class="st0" d="M5.9,4C5.5,3.8,5.1,3.8,4.8,4C4.5,4.2,4.3,4.6,4.3,4.9V8c0,0.4,0.2,0.7,0.5,0.9C5,9.1,5.2,9.1,5.3,9.1
				c0.2,0,0.4,0,0.5-0.1l2.7-1.5c0.3-0.2,0.5-0.5,0.5-0.9c0-0.4-0.2-0.7-0.5-0.9L5.9,4z M8.1,6.6L5.4,8.1c0,0-0.1,0-0.1,0
				c0,0-0.1,0-0.1-0.1V4.9c0-0.1,0-0.1,0.1-0.1c0,0,0,0,0.1,0c0,0,0,0,0.1,0l2.7,1.5c0,0,0.1,0.1,0.1,0.1S8.1,6.6,8.1,6.6z"/>
		</g>
	</g>
</g>
<path class="st0" d="M10.6,2.2C9.5,1.1,8,0.5,6.4,0.5S3.2,1.1,2.1,2.2C1,3.4,0.3,4.9,0.3,6.5S1,9.6,2.1,10.8
	c1.1,1.1,2.7,1.8,4.3,1.8c1.1,0,2.2-0.3,3.1-0.9c0.2-0.1,0.3-0.4,0.2-0.6c-0.1-0.2-0.4-0.3-0.6-0.2c-0.8,0.5-1.7,0.7-2.6,0.7
	c-2.8,0-5.1-2.3-5.1-5.1s2.3-5.1,5.1-5.1s5.1,2.3,5.1,5.1c0,1-0.3,2-0.9,2.8c-0.1,0.2-0.1,0.5,0.1,0.7c0.2,0.1,0.5,0.1,0.7-0.1
	c0.7-1,1-2.2,1-3.4C12.4,4.9,11.8,3.4,10.6,2.2z"/>
</svg>
