<?xml version="1.0" encoding="utf-8"?>
<!-- Generator: Adobe Illustrator 22.1.0, SVG Export Plug-In . SVG Version: 6.00 Build 0)  -->
<svg version="1.1" id="Layer_1" xmlns="http://www.w3.org/2000/svg" xmlns:xlink="http://www.w3.org/1999/xlink" x="0px" y="0px"
	 viewBox="0 0 12.8 12.8" style="enable-background:new 0 0 12.8 12.8;" xml:space="preserve">
<style type="text/css">
	.st0{fill:#FFFFFF;}
</style>
<g>
	<g>
		<path class="st0" d="M3.8,9.4C3.7,9.3,3.6,9.2,3.6,9.2C3.3,9,3,9,2.8,9.2c-0.2,0.2-0.2,0.5,0,0.7C3,10,3.1,10.1,3.3,10.2
			c0.1,0.1,0.2,0.1,0.3,0.1c0.2,0,0.3-0.1,0.4-0.2C4.1,9.9,4.1,9.5,3.8,9.4z"/>
	</g>
</g>
<g>
	<g>
		<path class="st0" d="M11.8,5.7c0-3-2.4-5.5-5.4-5.5C3.6,0.2,1.3,2.3,1,5c0,0.3,0.2,0.5,0.4,0.6C1.7,5.7,2,5.4,2,5.2
			c0.3-2.2,2.1-3.9,4.3-3.9c2.4,0,4.4,2,4.4,4.5c0,2.1-1.4,3.8-3.3,4.3l0.6-0.9c0.2-0.2,0.1-0.6-0.1-0.7C7.7,8.3,7.4,8.3,7.2,8.6
			l-1.3,1.8c0,0,0,0,0,0c0,0,0,0,0,0.1c0,0,0,0,0,0c0,0,0,0,0,0c0,0,0,0,0,0.1c0,0,0,0,0,0c0,0,0,0,0,0.1c0,0,0,0,0,0c0,0,0,0,0,0
			c0,0,0,0,0,0.1c0,0,0,0,0,0c0,0,0,0,0,0c0,0,0,0,0,0c0,0,0,0,0,0c0,0,0,0,0,0c0,0,0,0,0,0c0,0,0,0,0,0c0,0,0,0,0,0l1.8,1.3
			c0.1,0.1,0.2,0.1,0.3,0.1c0.2,0,0.3-0.1,0.4-0.2c0.2-0.2,0.1-0.5-0.1-0.7L7.7,11C10,10.4,11.8,8.3,11.8,5.7z"/>
	</g>
</g>
<g>
	<g>
		<path class="st0" d="M2.4,7.7C2.4,7.7,2.4,7.7,2.4,7.7c0-0.1,0-0.1,0-0.1c0,0,0,0,0,0C2.3,7.5,2.3,7.4,2.2,7.3
			C2.2,7,1.9,6.8,1.6,6.9C1.3,7,1.2,7.3,1.3,7.6c0,0.1,0.1,0.3,0.2,0.4c0,0,0,0,0,0c0,0,0,0.1,0.1,0.1c0,0,0,0,0,0
			c0,0,0.1,0.1,0.1,0.1c0,0,0,0,0,0c0,0,0.1,0,0.1,0.1c0,0,0,0,0,0c0,0,0.1,0,0.1,0c0,0,0,0,0,0c0.2,0,0.5-0.2,0.5-0.4
			c0,0,0-0.1,0-0.1C2.4,7.8,2.4,7.8,2.4,7.7z"/>
	</g>
</g>
</svg>
