<svg xmlns="http://www.w3.org/2000/svg" width="135" height="135" viewBox="0 0 135 135">
  <metadata><?xpacket begin="﻿" id="W5M0MpCehiHzreSzNTczkc9d"?>
<x:xmpmeta xmlns:x="adobe:ns:meta/" x:xmptk="Adobe XMP Core 5.6-c140 79.160451, 2017/05/06-01:08:21        ">
   <rdf:RDF xmlns:rdf="http://www.w3.org/1999/02/22-rdf-syntax-ns#">
      <rdf:Description rdf:about=""/>
   </rdf:RDF>
</x:xmpmeta>
                                                                                                    
                                                                                                    
                                                                                                    
                                                                                                    
                                                                                                    
                                                                                                    
                                                                                                    
                                                                                                    
                                                                                                    
                                                                                                    
                                                                                                    
                                                                                                    
                                                                                                    
                                                                                                    
                                                                                                    
                                                                                                    
                                                                                                    
                                                                                                    
                                                                                                    
                                                                                                    
                           
<?xpacket end="w"?></metadata>
<defs>
    <style>
      .cls-1 {
        fill: #fff;
        fill-rule: evenodd;
      }
    </style>
  </defs>
  <path class="cls-1" d="M67,129.09a63.669,63.669,0,0,1-35.734-10.907L17.828,135.005,3.016,123.154l14.241-17.826A63.983,63.983,0,1,1,67,129.09ZM67,17.126A47.9,47.9,0,0,0,19.119,65.045c0,1.132.053,2.25,0.13,3.362,0.018,0.257.037,0.514,0.059,0.77,0.094,1.1.216,2.2,0.384,3.283,0.009,0.055.02,0.108,0.029,0.163,0.168,1.058.379,2.1,0.615,3.136,0.044,0.194.087,0.388,0.134,0.581,0.263,1.087.556,2.162,0.891,3.218,0.011,0.033.023,0.065,0.033,0.1,0.338,1.058.717,2.1,1.125,3.121,0.04,0.1.079,0.2,0.119,0.3q0.65,1.6,1.408,3.142h0q0.779,1.58,1.671,3.09l0.029,0.05q0.9,1.518,1.9,2.963h0a48.064,48.064,0,0,0,19.473,16.308l0.154,0.07a47.365,47.365,0,0,0,6.043,2.262c0.117,0.035.235,0.066,0.352,0.1q1.35,0.391,2.732.7c0.16,0.036.318,0.076,0.478,0.11,1.016,0.219,2.042.41,3.081,0.563,0.142,0.021.287,0.035,0.429,0.055,0.881,0.122,1.77.217,2.666,0.29,0.27,0.023.54,0.044,0.812,0.062,1.038,0.067,2.081.114,3.136,0.114A47.919,47.919,0,0,0,67,17.126Z"/>
</svg>
