<svg xmlns="http://www.w3.org/2000/svg" width="51" height="51" viewBox="0 0 51 51">
  <metadata><?xpacket begin="﻿" id="W5M0MpCehiHzreSzNTczkc9d"?>
<x:xmpmeta xmlns:x="adobe:ns:meta/" x:xmptk="Adobe XMP Core 5.6-c138 79.159824, 2016/09/14-01:09:01        ">
   <rdf:RDF xmlns:rdf="http://www.w3.org/1999/02/22-rdf-syntax-ns#">
      <rdf:Description rdf:about=""/>
   </rdf:RDF>
</x:xmpmeta>
                                                                                                    
                                                                                                    
                                                                                                    
                                                                                                    
                                                                                                    
                                                                                                    
                                                                                                    
                                                                                                    
                                                                                                    
                                                                                                    
                                                                                                    
                                                                                                    
                                                                                                    
                                                                                                    
                                                                                                    
                                                                                                    
                                                                                                    
                                                                                                    
                                                                                                    
                                                                                                    
                           
<?xpacket end="w"?></metadata>
<defs>
    <style>
      .cls-1 {
        fill: #fff;
        fill-rule: evenodd;
      }
    </style>
  </defs>
  <path class="cls-1" d="M47.074,20.122c-0.75-.112-1.519-0.221-2.294-0.325a20.2,20.2,0,0,0-1.556-3.755c0.474-.62.942-1.242,1.394-1.853a3.459,3.459,0,0,0-.337-4.475L41.285,6.72a3.459,3.459,0,0,0-4.476-.337C36.2,6.837,35.575,7.3,34.957,7.777A20.2,20.2,0,0,0,31.2,6.221c-0.1-.775-0.212-1.545-0.324-2.294A3.459,3.459,0,0,0,27.475,1H23.24a3.459,3.459,0,0,0-3.4,2.926c-0.112.749-.221,1.519-0.324,2.294a20.2,20.2,0,0,0-3.755,1.556c-0.618-.473-1.24-0.94-1.852-1.393A3.459,3.459,0,0,0,9.43,6.72L6.436,9.714A3.46,3.46,0,0,0,6.1,14.19c0.451,0.61.919,1.232,1.393,1.852A20.234,20.234,0,0,0,5.935,19.8c-0.775.1-1.545,0.212-2.294,0.325a3.46,3.46,0,0,0-2.927,3.4V27.76a3.459,3.459,0,0,0,2.926,3.4c0.75,0.112,1.519.221,2.294,0.324a20.221,20.221,0,0,0,1.556,3.755c-0.474.62-.941,1.241-1.394,1.853a3.459,3.459,0,0,0,.337,4.475L9.43,44.565a3.459,3.459,0,0,0,4.476.337c0.613-.453,1.234-0.921,1.852-1.393a20.213,20.213,0,0,0,3.755,1.556c0.1,0.775.212,1.545,0.324,2.294a3.46,3.46,0,0,0,3.4,2.927h4.235a3.459,3.459,0,0,0,3.4-2.927c0.112-.75.221-1.519,0.324-2.294a20.2,20.2,0,0,0,3.755-1.556c0.618,0.473,1.24.94,1.852,1.394a3.459,3.459,0,0,0,4.476-.337l2.995-2.994a3.459,3.459,0,0,0,.337-4.476c-0.452-.611-0.92-1.233-1.393-1.852a20.216,20.216,0,0,0,1.556-3.755c0.775-.1,1.545-0.212,2.294-0.325A3.46,3.46,0,0,0,50,27.76V23.525A3.46,3.46,0,0,0,47.074,20.122Zm-1.2,7.049c-0.68.1-1.375,0.195-2.071,0.285a3.43,3.43,0,0,0-2.873,2.491,16.053,16.053,0,0,1-1.517,3.662,3.431,3.431,0,0,0,.269,3.795c0.427,0.556.851,1.115,1.263,1.667l-2.16,2.161c-0.554-.414-1.113-0.837-1.667-1.264a3.432,3.432,0,0,0-3.8-.269,16.064,16.064,0,0,1-3.661,1.517,3.43,3.43,0,0,0-2.491,2.873c-0.091.7-.186,1.391-0.285,2.072H23.829c-0.1-.68-0.194-1.375-0.285-2.071a3.431,3.431,0,0,0-2.491-2.874A16.057,16.057,0,0,1,17.391,39.7a3.431,3.431,0,0,0-3.795.269c-0.555.427-1.113,0.85-1.668,1.264l-2.16-2.161c0.412-.553.836-1.112,1.264-1.668a3.432,3.432,0,0,0,.268-3.795,16.062,16.062,0,0,1-1.517-3.661A3.43,3.43,0,0,0,6.91,27.456c-0.7-.091-1.391-0.186-2.072-0.285V24.115c0.681-.1,1.375-0.194,2.071-0.285a3.43,3.43,0,0,0,2.873-2.491A16.056,16.056,0,0,1,11.3,17.677a3.432,3.432,0,0,0-.268-3.795c-0.428-.556-0.851-1.115-1.264-1.667l2.16-2.161c0.554,0.414,1.113.837,1.667,1.263a3.431,3.431,0,0,0,3.8.269,16.067,16.067,0,0,1,3.661-1.517A3.43,3.43,0,0,0,23.544,7.2c0.091-.7.187-1.391,0.285-2.071h3.056c0.1,0.68.194,1.375,0.285,2.071a3.43,3.43,0,0,0,2.491,2.873,16.062,16.062,0,0,1,3.662,1.518,3.432,3.432,0,0,0,3.795-.269c0.554-.426,1.113-0.85,1.668-1.263l2.16,2.161c-0.412.552-.836,1.111-1.264,1.668a3.432,3.432,0,0,0-.269,3.794,16.073,16.073,0,0,1,1.517,3.662A3.43,3.43,0,0,0,43.8,23.83c0.7,0.091,1.391.187,2.072,0.286v3.055h0ZM25.357,16.852a8.791,8.791,0,1,0,8.791,8.791A8.8,8.8,0,0,0,25.357,16.852Zm0,13.674a4.883,4.883,0,1,1,4.883-4.883A4.889,4.889,0,0,1,25.357,30.526Z"/>
</svg>
