<svg xmlns="http://www.w3.org/2000/svg" width="100" height="100" viewBox="0 0 100 100">
  <metadata><?xpacket begin="﻿" id="W5M0MpCehiHzreSzNTczkc9d"?>
<x:xmpmeta xmlns:x="adobe:ns:meta/" x:xmptk="Adobe XMP Core 5.6-c140 79.160451, 2017/05/06-01:08:21        ">
   <rdf:RDF xmlns:rdf="http://www.w3.org/1999/02/22-rdf-syntax-ns#">
      <rdf:Description rdf:about=""/>
   </rdf:RDF>
</x:xmpmeta>
                                                                                                    
                                                                                                    
                                                                                                    
                                                                                                    
                                                                                                    
                                                                                                    
                                                                                                    
                                                                                                    
                                                                                                    
                                                                                                    
                                                                                                    
                                                                                                    
                                                                                                    
                                                                                                    
                                                                                                    
                                                                                                    
                                                                                                    
                                                                                                    
                                                                                                    
                                                                                                    
                           
<?xpacket end="w"?></metadata>
<defs>
    <style>
      .cls-1 {
        fill: #fff;
        fill-rule: evenodd;
      }
    </style>
  </defs>
  <path id="send" class="cls-1" d="M50.5,98A47.5,47.5,0,1,1,98,50.5,47.363,47.363,0,0,1,50.5,98ZM74.325,34.4A3.514,3.514,0,0,0,70.672,33.1L26.63,44.007a3.441,3.441,0,0,0-2.591,2.816,3.4,3.4,0,0,0,1.651,3.433L35,55.751V67.806a1.193,1.193,0,0,0,.681,1.073,1.231,1.231,0,0,0,1.279-.13L45.7,62.062,52.875,66.3a3.513,3.513,0,0,0,4.75-1.14L74.482,38.212A3.373,3.373,0,0,0,74.325,34.4ZM43.533,56.069l11.078-9.388a0.409,0.409,0,0,0,.086-0.526,0.424,0.424,0,0,0-.513-0.173L37.311,52.4l-8.2-4.836L70.164,37.4,54.452,62.512Z"/>
</svg>
