<svg xmlns="http://www.w3.org/2000/svg" width="417" height="417" viewBox="0 0 417 417">
  <metadata><?xpacket begin="﻿" id="W5M0MpCehiHzreSzNTczkc9d"?>
<x:xmpmeta xmlns:x="adobe:ns:meta/" x:xmptk="Adobe XMP Core 5.6-c140 79.160451, 2017/05/06-01:08:21        ">
   <rdf:RDF xmlns:rdf="http://www.w3.org/1999/02/22-rdf-syntax-ns#">
      <rdf:Description rdf:about=""/>
   </rdf:RDF>
</x:xmpmeta>
                                                                                                    
                                                                                                    
                                                                                                    
                                                                                                    
                                                                                                    
                                                                                                    
                                                                                                    
                                                                                                    
                                                                                                    
                                                                                                    
                                                                                                    
                                                                                                    
                                                                                                    
                                                                                                    
                                                                                                    
                                                                                                    
                                                                                                    
                                                                                                    
                                                                                                    
                                                                                                    
                           
<?xpacket end="w"?></metadata>
<defs>
    <style>
      .cls-1 {
        fill: #fff;
        fill-rule: evenodd;
      }
    </style>
  </defs>
  <path id="Rounded_Rectangle_1" data-name="Rounded Rectangle 1" class="cls-1" d="M210,13c109.352,0,198,88.648,198,198S319.352,409,210,409,12,320.352,12,211,100.648,13,210,13Zm79,273a7,7,0,0,1-7-7V135a7,7,0,0,1,14,0V279A7,7,0,0,1,289,286Zm-22.489-71.408c-9.172,5.277-116.638,66.984-122.015,70.041a8.789,8.789,0,0,1-13.5-7.564V136.706c0-7.189,7.5-10.68,13.224-7.52,7.812,4.309,115.688,66.33,122.29,70.2A8.691,8.691,0,0,1,266.511,214.592Z"/>
</svg>
