<svg xmlns="http://www.w3.org/2000/svg" width="100" height="100" viewBox="0 0 100 100">
  <metadata><?xpacket begin="﻿" id="W5M0MpCehiHzreSzNTczkc9d"?>
<x:xmpmeta xmlns:x="adobe:ns:meta/" x:xmptk="Adobe XMP Core 5.6-c140 79.160451, 2017/05/06-01:08:21        ">
   <rdf:RDF xmlns:rdf="http://www.w3.org/1999/02/22-rdf-syntax-ns#">
      <rdf:Description rdf:about=""/>
   </rdf:RDF>
</x:xmpmeta>
                                                                                                    
                                                                                                    
                                                                                                    
                                                                                                    
                                                                                                    
                                                                                                    
                                                                                                    
                                                                                                    
                                                                                                    
                                                                                                    
                                                                                                    
                                                                                                    
                                                                                                    
                                                                                                    
                                                                                                    
                                                                                                    
                                                                                                    
                                                                                                    
                                                                                                    
                                                                                                    
                           
<?xpacket end="w"?></metadata>
<defs>
    <style>
      .cls-1 {
        fill: #fff;
        fill-rule: evenodd;
      }
    </style>
  </defs>
  <path id="submit" class="cls-1" d="M50.5,98A47.5,47.5,0,1,1,98,50.5,47.363,47.363,0,0,1,50.5,98ZM73.172,45.117L53.8,27.615a2.365,2.365,0,0,0-2.593-.4A2.5,2.5,0,0,0,49.788,29.5v8.113C44.287,39.407,28.677,46.1,28,64.4a2.483,2.483,0,0,0,1.954,2.55A2.276,2.276,0,0,0,30.42,67a2.421,2.421,0,0,0,2.271-1.645c2.448-6.948,12.513-8.148,17.1-8.333V64.5a2.5,2.5,0,0,0,1.421,2.278,2.257,2.257,0,0,0,.889.2c0.039,0,.073.025,0.111,0.025s0.094-.022.14-0.025a2.529,2.529,0,0,0,.528-0.1,2.5,2.5,0,0,0,.242-0.075,2.349,2.349,0,0,0,.683-0.42l5.67-5.123,4.842-4.376,8.857-8A2.552,2.552,0,0,0,73.172,45.117Z"/>
</svg>
