<svg xmlns="http://www.w3.org/2000/svg" width="99" height="99" viewBox="0 0 99 99">
  <metadata><?xpacket begin="﻿" id="W5M0MpCehiHzreSzNTczkc9d"?>
<x:xmpmeta xmlns:x="adobe:ns:meta/" x:xmptk="Adobe XMP Core 5.6-c138 79.159824, 2016/09/14-01:09:01        ">
   <rdf:RDF xmlns:rdf="http://www.w3.org/1999/02/22-rdf-syntax-ns#">
      <rdf:Description rdf:about=""/>
   </rdf:RDF>
</x:xmpmeta>
                                                                                                    
                                                                                                    
                                                                                                    
                                                                                                    
                                                                                                    
                                                                                                    
                                                                                                    
                                                                                                    
                                                                                                    
                                                                                                    
                                                                                                    
                                                                                                    
                                                                                                    
                                                                                                    
                                                                                                    
                                                                                                    
                                                                                                    
                                                                                                    
                                                                                                    
                                                                                                    
                           
<?xpacket end="w"?></metadata>
<defs>
    <style>
      .cls-1 {
        fill: #fff;
        fill-rule: evenodd;
      }
    </style>
  </defs>
  <path class="cls-1" d="M81.288,19.833l4.241-4.241A49.3,49.3,0,0,1,98.963,48h-6A43.321,43.321,0,0,0,81.288,19.833ZM51,6.038v-6A49.3,49.3,0,0,1,83.407,13.472l-4.24,4.241A43.323,43.323,0,0,0,51,6.038ZM15.593,13.472A49.3,49.3,0,0,1,48,.038v6A43.322,43.322,0,0,0,19.834,17.712Zm2.119,6.362A43.32,43.32,0,0,0,6.037,48h-6A49.3,49.3,0,0,1,13.472,15.593Zm0,59.333-4.241,4.241A49.3,49.3,0,0,1,.037,51h6A43.32,43.32,0,0,0,17.712,79.167ZM48,92.962v6A49.3,49.3,0,0,1,15.593,85.528l4.241-4.241A43.322,43.322,0,0,0,48,92.962Zm35.407-7.434A49.3,49.3,0,0,1,51,98.962v-6A43.322,43.322,0,0,0,79.167,81.288ZM92.963,51h6A49.3,49.3,0,0,1,85.529,83.407l-4.241-4.241A43.321,43.321,0,0,0,92.963,51Z"/>
</svg>
