<svg xmlns="http://www.w3.org/2000/svg" width="555" height="555" viewBox="0 0 555 555">
  <metadata><?xpacket begin="﻿" id="W5M0MpCehiHzreSzNTczkc9d"?>
<x:xmpmeta xmlns:x="adobe:ns:meta/" x:xmptk="Adobe XMP Core 5.6-c140 79.160451, 2017/05/06-01:08:21        ">
   <rdf:RDF xmlns:rdf="http://www.w3.org/1999/02/22-rdf-syntax-ns#">
      <rdf:Description rdf:about=""/>
   </rdf:RDF>
</x:xmpmeta>
                                                                                                    
                                                                                                    
                                                                                                    
                                                                                                    
                                                                                                    
                                                                                                    
                                                                                                    
                                                                                                    
                                                                                                    
                                                                                                    
                                                                                                    
                                                                                                    
                                                                                                    
                                                                                                    
                                                                                                    
                                                                                                    
                                                                                                    
                                                                                                    
                                                                                                    
                                                                                                    
                           
<?xpacket end="w"?></metadata>
<defs>
    <style>
      .cls-1 {
        fill: #fff;
        fill-rule: evenodd;
      }
    </style>
  </defs>
  <path id="Rounded_Rectangle_3" data-name="Rounded Rectangle 3" class="cls-1" d="M177.293,546.928l-47.762-47.762A54.33,54.33,0,0,0,57,426.639L8.072,377.707a27.571,27.571,0,0,1,0-38.991L338.716,8.072a27.571,27.571,0,0,1,38.991,0l48.2,48.2a54.33,54.33,0,0,0,74,74l47.028,47.027a27.571,27.571,0,0,1,0,38.991L216.284,546.928A27.571,27.571,0,0,1,177.293,546.928Zm279.566-317a11.029,11.029,0,0,0,0-15.6L340.665,98.142a11.028,11.028,0,0,0-15.6,0L96.192,327.019a11.028,11.028,0,0,0,0,15.6L212.385,458.808a11.028,11.028,0,0,0,15.6,0ZM217.064,441.652L113.348,337.936a5.515,5.515,0,0,1,0-7.8l216.01-216.01a5.513,5.513,0,0,1,7.8,0L440.872,217.844a5.513,5.513,0,0,1,0,7.8l-216.01,216.01A5.515,5.515,0,0,1,217.064,441.652Z"/>
</svg>
