<svg xmlns="http://www.w3.org/2000/svg" width="83" height="83" viewBox="0 0 83 83">
  <metadata><?xpacket begin="﻿" id="W5M0MpCehiHzreSzNTczkc9d"?>
<x:xmpmeta xmlns:x="adobe:ns:meta/" x:xmptk="Adobe XMP Core 5.6-c142 79.160924, 2017/07/13-01:06:39        ">
   <rdf:RDF xmlns:rdf="http://www.w3.org/1999/02/22-rdf-syntax-ns#">
      <rdf:Description rdf:about=""/>
   </rdf:RDF>
</x:xmpmeta>
                                                                                                    
                                                                                                    
                                                                                                    
                                                                                                    
                                                                                                    
                                                                                                    
                                                                                                    
                                                                                                    
                                                                                                    
                                                                                                    
                                                                                                    
                                                                                                    
                                                                                                    
                                                                                                    
                                                                                                    
                                                                                                    
                                                                                                    
                                                                                                    
                                                                                                    
                                                                                                    
                           
<?xpacket end="w"?></metadata>
<defs>
    <style>
      .cls-1 {
        fill: #fff;
        fill-rule: evenodd;
      }
    </style>
  </defs>
  <path class="cls-1" d="M15.263,5a0.4,0.4,0,0,1-.528,0h0.528ZM82,20.556V69.511a8.723,8.723,0,0,1-2.21,4.916,10.192,10.192,0,0,1-5.013,3.332,8.986,8.986,0,0,1-2.529.232H10.759a8.589,8.589,0,0,1-3.981-.7,8.86,8.86,0,0,1-2.153-1.343A10.393,10.393,0,0,1,1.215,70.84C1.094,70.4,1.1,69.948,1,69.511V20.469A10.346,10.346,0,0,1,3.785,14.69c1.967-2.282,3.859-4.628,5.786-6.944A7.014,7.014,0,0,1,14.383,5h0.352a0.674,0.674,0,0,0,.528,0H68.529a6.6,6.6,0,0,1,4.58,2.385c0.9,1.019,1.756,2.078,2.619,3.129,1.383,1.685,2.794,3.346,4.176,5.031a9.537,9.537,0,0,1,1.935,3.9C81.926,19.809,81.9,20.192,82,20.556ZM67.762,49.109a1.11,1.11,0,0,1-.22-0.135Q54.654,36.117,41.778,23.249c-0.26-.26-0.366-0.179-0.572.027Q28.375,36.1,15.537,48.912a0.415,0.415,0,0,0-.22.318H15.8q7.79,0,15.58-.009c0.364,0,.462.088,0.46,0.454-0.015,2.914,0,5.829-.016,8.743,0,0.343.049,0.469,0.439,0.468q9.242-.021,18.485,0c0.341,0,.434-0.08.432-0.427-0.015-2.929,0-5.858-.017-8.787,0-.372.1-0.449,0.463-0.448q7.79,0.019,15.58.009h0.479Zm3.926-34.682c-1.36-1.5-2.725-2.989-4.077-4.493a0.684,0.684,0,0,0-.579-0.22c-2.993,0-3.345,0-6.338,0-15.9,0-29.166,0-45.07-.007a0.876,0.876,0,0,0-.773.362c-1.119,1.393-2.264,2.766-3.4,4.149a0.746,0.746,0,0,0-.256.406H71.777A0.187,0.187,0,0,0,71.688,14.427Z"/>
</svg>
