<?xml version="1.0" encoding="utf-8"?>
<!-- Generator: Adobe Illustrator 22.1.0, SVG Export Plug-In . SVG Version: 6.00 Build 0)  -->
<svg version="1.1" id="Layer_1" xmlns="http://www.w3.org/2000/svg" xmlns:xlink="http://www.w3.org/1999/xlink" x="0px" y="0px"
	 viewBox="0 0 12.8 12.8" style="enable-background:new 0 0 12.8 12.8;" xml:space="preserve">
<style type="text/css">
	.st0{fill:#FFFFFF;}
</style>
<path class="st0" d="M12.6,6.4c0,1.2-0.4,2.4-1.1,3.5c-0.1,0.2-0.4,0.3-0.7,0.2c-0.2-0.1-0.3-0.4-0.2-0.7c0,0,0,0,0,0
	c1.4-2,1.1-4.7-0.5-6.5l0,0C10.1,2.7,10,2.6,10,2.5l1.8-1.8L12,1l-1.1,1.1C12,3.3,12.6,4.8,12.6,6.4z M6.4,1.1
	c-2.9,0-5.2,2.3-5.3,5.2c0,0.8,0.2,1.6,0.5,2.3c0.2,0.4,0.4,0.8,0.7,1.1l-1.7,1.8l-0.3-0.3l1.1-1.1c-2.1-2.7-1.6-6.6,1.1-8.7
	C3.7,0.6,5,0.2,6.4,0.2c1.4,0,2.8,0.5,3.9,1.4L9.6,2.2C8.6,1.5,7.5,1.1,6.4,1.1z M6.4,11.6c1,0,1.9-0.3,2.7-0.8
	c0.2-0.1,0.5-0.1,0.7,0.1c0.1,0.2,0.1,0.5-0.1,0.7c0,0,0,0,0,0c-2.4,1.5-5.5,1.1-7.5-0.8l0.7-0.7C3.7,11.1,5,11.6,6.4,11.6L6.4,11.6
	z"/>
<g>
	<g>
		<path class="st0" d="M9.4,6.2c-0.9-1.2-2-1.7-3-1.7C6,4.5,5.6,4.6,5.1,4.8c-0.3,0.1-0.7,0.3-1,0.6C3.6,5.8,3.3,6.2,3.3,6.2
			c-0.1,0.1-0.1,0.2,0,0.3c0.9,1.2,2,1.7,3,1.7c0.4,0,0.9-0.1,1.3-0.3c0.3-0.1,0.7-0.3,1-0.6C9.1,7,9.4,6.5,9.5,6.5
			C9.5,6.4,9.5,6.3,9.4,6.2z M8.3,7c-0.4,0.4-1.1,0.8-2,0.8c-0.9,0-1.7-0.5-2.6-1.4C3.9,6.2,4.1,6,4.5,5.7c0.4-0.4,1.1-0.8,2-0.8
			c0.9,0,1.7,0.5,2.6,1.4C8.8,6.5,8.6,6.8,8.3,7z"/>
	</g>
</g>
<g>
	<g>
		<path class="st0" d="M7.2,6.1C7.1,6.1,7,6.2,7,6.4C7,6.7,6.7,7,6.4,7C6,7,5.8,6.7,5.8,6.4C5.8,6,6,5.8,6.4,5.8
			c0.1,0,0.2-0.1,0.2-0.2S6.5,5.3,6.4,5.3c-0.6,0-1.1,0.5-1.1,1.1s0.5,1.1,1.1,1.1S7.4,7,7.4,6.4C7.4,6.2,7.3,6.1,7.2,6.1z"/>
	</g>
</g>
</svg>
