<?xml version="1.0" encoding="utf-8"?>
<!-- Generator: Adobe Illustrator 22.1.0, SVG Export Plug-In . SVG Version: 6.00 Build 0)  -->
<svg version="1.1" id="Layer_1" xmlns="http://www.w3.org/2000/svg" xmlns:xlink="http://www.w3.org/1999/xlink" x="0px" y="0px"
	 viewBox="0 0 12.8 12.8" style="enable-background:new 0 0 12.8 12.8;" xml:space="preserve">
<style type="text/css">
	.st0{fill:#FFFFFF;}
</style>
<g>
	<path class="st0" d="M10.1,6.1C10,6,8.4,3.9,6.4,3.9c-2,0-3.6,2.2-3.7,2.3c-0.1,0.1-0.1,0.3,0,0.4c0.1,0.1,1.7,2.3,3.7,2.3
		c2,0,3.6-2.2,3.7-2.3C10.2,6.4,10.2,6.3,10.1,6.1z M5.8,5.9C5.7,6.1,5.6,6.3,5.7,6.6C5.7,6.8,5.6,7,5.4,7c0,0-0.1,0-0.1,0
		C5.2,7,5.1,6.9,5,6.8c-0.2-0.6,0-1.1,0.2-1.3c0.3-0.3,0.7-0.5,0.9-0.5c0,0,0,0,0,0c0.2,0,0.4,0.2,0.4,0.3c0,0.2-0.2,0.3-0.3,0.3
		C6.1,5.6,5.9,5.7,5.8,5.9z M7.1,7.5c-0.2,0-0.4-0.2-0.4-0.4c0-0.2,0.2-0.4,0.4-0.4c0.2,0,0.4,0.2,0.4,0.4C7.5,7.4,7.3,7.5,7.1,7.5z
		 M3.4,6.3c0.3-0.4,1-1.2,2-1.5C4.8,5.1,4.5,5.7,4.5,6.4c0,0.6,0.2,1,0.6,1.4C4.3,7.4,3.7,6.7,3.4,6.3z M7.5,7.9
		C7.9,7.5,8.2,7,8.2,6.4c0-0.7-0.4-1.4-1-1.7c1,0.3,1.8,1.2,2.2,1.6C9,6.7,8.3,7.5,7.5,7.9z"/>
</g>
<path class="st0" d="M12.4,6.3c0,1.2-0.4,2.4-1,3.4C11.3,9.9,11,10,10.7,9.9c-0.2-0.1-0.3-0.4-0.2-0.6c0,0,0,0,0,0
	c1.3-2,1.1-4.6-0.5-6.3l0,0C10,2.8,9.9,2.7,9.8,2.6l1.7-1.7l0.2,0.2l-1,1C11.8,3.3,12.4,4.8,12.4,6.3z M6.4,1.3
	c-2.8,0-5.1,2.3-5.1,5.1c0,0.8,0.2,1.6,0.5,2.3C2,9,2.2,9.4,2.5,9.7l-1.7,1.7l-0.3-0.3L1.6,10c-2-2.6-1.6-6.4,1.1-8.5
	C3.7,0.8,5,0.3,6.4,0.3c1.4,0,2.7,0.5,3.8,1.3L9.5,2.3C8.6,1.6,7.5,1.3,6.4,1.3z M6.4,11.4c0.9,0,1.8-0.3,2.6-0.7
	c0.2-0.1,0.5-0.1,0.7,0.1c0.1,0.2,0.1,0.5-0.1,0.7c0,0,0,0,0,0c-2.3,1.4-5.3,1.1-7.3-0.8L2.9,10C3.8,10.9,5.1,11.4,6.4,11.4
	L6.4,11.4z"/>
</svg>
