<svg xmlns="http://www.w3.org/2000/svg" width="20" height="20" viewBox="0 0 20 20">
  <metadata><?xpacket begin="﻿" id="W5M0MpCehiHzreSzNTczkc9d"?>
<x:xmpmeta xmlns:x="adobe:ns:meta/" x:xmptk="Adobe XMP Core 5.6-c140 79.160451, 2017/05/06-01:08:21        ">
   <rdf:RDF xmlns:rdf="http://www.w3.org/1999/02/22-rdf-syntax-ns#">
      <rdf:Description rdf:about=""/>
   </rdf:RDF>
</x:xmpmeta>
                                                                                                    
                                                                                                    
                                                                                                    
                                                                                                    
                                                                                                    
                                                                                                    
                                                                                                    
                                                                                                    
                                                                                                    
                                                                                                    
                                                                                                    
                                                                                                    
                                                                                                    
                                                                                                    
                                                                                                    
                                                                                                    
                                                                                                    
                                                                                                    
                                                                                                    
                                                                                                    
                           
<?xpacket end="w"?></metadata>
<defs>
    <style>
      .cls-1 {
        fill: #cb4d43;
        fill-rule: evenodd;
      }
    </style>
  </defs>
  <path id="Forma_1" data-name="Forma 1" class="cls-1" d="M10,20A10,10,0,1,1,20,10,10,10,0,0,1,10,20ZM10,5.095c-4.315,0-7.687,4.231-7.829,4.412a0.8,0.8,0,0,0,0,.988C2.313,10.674,5.685,14.9,10,14.9s7.687-4.229,7.829-4.409a0.8,0.8,0,0,0,0-.988C17.688,9.326,14.316,5.095,10,5.095ZM10,13.3c-2.747,0-5.178-2.275-6.137-3.3C4.822,8.97,7.254,6.694,10,6.694S15.18,8.972,16.138,10C15.183,11.03,12.758,13.3,10,13.3Zm0-5.7A2.4,2.4,0,1,0,12.4,10,2.4,2.4,0,0,0,10,7.6Z"/>
</svg>
