<svg xmlns="http://www.w3.org/2000/svg" width="279" height="275" viewBox="0 0 279 275">
  <metadata><?xpacket begin="﻿" id="W5M0MpCehiHzreSzNTczkc9d"?>
<x:xmpmeta xmlns:x="adobe:ns:meta/" x:xmptk="Adobe XMP Core 5.6-c140 79.160451, 2017/05/06-01:08:21        ">
   <rdf:RDF xmlns:rdf="http://www.w3.org/1999/02/22-rdf-syntax-ns#">
      <rdf:Description rdf:about=""/>
   </rdf:RDF>
</x:xmpmeta>
                                                                                                    
                                                                                                    
                                                                                                    
                                                                                                    
                                                                                                    
                                                                                                    
                                                                                                    
                                                                                                    
                                                                                                    
                                                                                                    
                                                                                                    
                                                                                                    
                                                                                                    
                                                                                                    
                                                                                                    
                                                                                                    
                                                                                                    
                                                                                                    
                                                                                                    
                                                                                                    
                           
<?xpacket end="w"?></metadata>
<defs>
    <style>
      .cls-1 {
        fill: #fff;
        fill-rule: evenodd;
      }
    </style>
  </defs>
  <path id="Rectangle_1_copy" data-name="Rectangle 1 copy" class="cls-1" d="M265.714,199.08v34.5A41.067,41.067,0,0,1,224.2,275H41.518A41.067,41.067,0,0,1,0,233.577V89.424A41.069,41.069,0,0,1,41.518,48H224.2a41.067,41.067,0,0,1,41.518,41.423v36.155c7.822,5.153,13.286,13.951,13.286,23.5v26.511C279,185.112,273.536,193.927,265.714,199.08Zm-21.7-106.357c0-12.649-11.1-23.716-23.786-23.716H45.8c-12.686,0-23.786,11.068-23.786,23.716v29.229h0.007v81.1H22.013v27.229c0,12.648,11.1,23.716,23.786,23.716H220.227c12.686,0,23.786-11.068,23.786-23.716v-28.46H228.727c-14.271,0-26.957-12.648-26.957-26.878v-25.3c0-14.23,12.686-26.878,26.957-26.878h15.286V92.723Zm15.975,57.78a10.225,10.225,0,0,0-10.444-10.5H231.452a10.225,10.225,0,0,0-10.444,10.5v24A10.225,10.225,0,0,0,231.452,185h18.092a10.225,10.225,0,0,0,10.444-10.5v-24ZM241.5,173a9.5,9.5,0,1,1,9.5-9.5A9.5,9.5,0,0,1,241.5,173ZM134.487,99a63.5,63.5,0,1,1,0,127H22.019V203.048H40.365V169.386H70.974v33.662H89.339v-81.1H70.974v30.6H40.365v-30.6H22.019V99H134.487ZM104.643,204.578h33.67v-0.154a41.269,41.269,0,0,0,0-82.318v-0.154h-33.67v82.626Zm52.035-41.313a27.531,27.531,0,0,1-18.558,26.012H123.009V137.253H138.12A27.531,27.531,0,0,1,156.678,163.265ZM171.921,24.914l36.411-9.756L214.72,39H175.833ZM119.352,39h-53l88.98-23.842L161.72,39H119.352Z"/>
</svg>
